<svg xmlns="http://www.w3.org/2000/svg" xmlns:xlink="http://www.w3.org/1999/xlink" width="500" zoomAndPan="magnify" viewBox="0 0 375 374.999991" height="500" preserveAspectRatio="xMidYMid meet" version="1.0"><defs><clipPath id="c908545320"><path d="M 82.664062 127.828125 L 170.414062 127.828125 L 170.414062 251.578125 L 82.664062 251.578125 Z M 82.664062 127.828125 " clip-rule="nonzero"/></clipPath><clipPath id="b715ce10e1"><path d="M 121 82 L 203 82 L 203 166 L 121 166 Z M 121 82 " clip-rule="nonzero"/></clipPath><clipPath id="83294f1da5"><path d="M 116.117188 92.304688 L 197.65625 75.519531 L 213.535156 152.652344 L 131.992188 169.4375 Z M 116.117188 92.304688 " clip-rule="nonzero"/></clipPath><clipPath id="83ded3588a"><path d="M 116.117188 92.304688 L 197.65625 75.519531 L 213.535156 152.652344 L 131.992188 169.4375 Z M 116.117188 92.304688 " clip-rule="nonzero"/></clipPath><clipPath id="b122dd0d79"><path d="M 121.523438 117.644531 L 136.277344 128.5625 L 137.9375 128.222656 L 140.339844 124.382812 L 148.605469 164.546875 L 149.40625 165.835938 L 195.710938 156.15625 L 196.914062 154.890625 L 188.289062 114.949219 L 192.425781 117.585938 L 193.773438 117.019531 L 202.816406 101.492188 L 202.414062 99.539062 L 183.527344 85.984375 L 165.949219 82.046875 C 165.949219 82.046875 161.484375 90.085938 148.519531 85.925781 L 134.410156 94.933594 L 121.519531 117.648438 Z M 121.523438 117.644531 " clip-rule="nonzero"/></clipPath><radialGradient gradientTransform="matrix(0.236873, 1.150698, -0.808232, 0.166356, 471.843533, -151.442926)" gradientUnits="userSpaceOnUse" r="66.008514" cx="175.679779" id="1fcea2e467" cy="431.352109" fx="175.679779" fy="431.352109"><stop stop-opacity="1" stop-color="rgb(49.398804%, 85.099792%, 34.098816%)" offset="0"/><stop stop-opacity="1" stop-color="rgb(49.398804%, 85.099792%, 34.098816%)" offset="1"/></radialGradient><clipPath id="f34ea3248b"><path d="M 134 95 L 141 95 L 141 122 L 134 122 Z M 134 95 " clip-rule="nonzero"/></clipPath><clipPath id="00688aab8d"><path d="M 116.117188 92.304688 L 197.65625 75.519531 L 213.535156 152.652344 L 131.992188 169.4375 Z M 116.117188 92.304688 " clip-rule="nonzero"/></clipPath><clipPath id="903f245d6d"><path d="M 116.117188 92.304688 L 197.65625 75.519531 L 213.535156 152.652344 L 131.992188 169.4375 Z M 116.117188 92.304688 " clip-rule="nonzero"/></clipPath><clipPath id="ef3754fedb"><path d="M 145 83 L 171 83 L 171 98 L 145 98 Z M 145 83 " clip-rule="nonzero"/></clipPath><clipPath id="7f265e3e31"><path d="M 116.117188 92.304688 L 197.65625 75.519531 L 213.535156 152.652344 L 131.992188 169.4375 Z M 116.117188 92.304688 " clip-rule="nonzero"/></clipPath><clipPath id="a00a45e911"><path d="M 116.117188 92.304688 L 197.65625 75.519531 L 213.535156 152.652344 L 131.992188 169.4375 Z M 116.117188 92.304688 " clip-rule="nonzero"/></clipPath><clipPath id="347d6aa9d4"><path d="M 148 83 L 168 83 L 168 94 L 148 94 Z M 148 83 " clip-rule="nonzero"/></clipPath><clipPath id="3ca72fc956"><path d="M 116.117188 92.304688 L 197.65625 75.519531 L 213.535156 152.652344 L 131.992188 169.4375 Z M 116.117188 92.304688 " clip-rule="nonzero"/></clipPath><clipPath id="1f6463f8cb"><path d="M 116.117188 92.304688 L 197.65625 75.519531 L 213.535156 152.652344 L 131.992188 169.4375 Z M 116.117188 92.304688 " clip-rule="nonzero"/></clipPath><clipPath id="fbb37a1824"><path d="M 149 152 L 196 152 L 196 163 L 149 163 Z M 149 152 " clip-rule="nonzero"/></clipPath><clipPath id="517f31fff3"><path d="M 116.117188 92.304688 L 197.65625 75.519531 L 213.535156 152.652344 L 131.992188 169.4375 Z M 116.117188 92.304688 " clip-rule="nonzero"/></clipPath><clipPath id="390964c2c3"><path d="M 116.117188 92.304688 L 197.65625 75.519531 L 213.535156 152.652344 L 131.992188 169.4375 Z M 116.117188 92.304688 " clip-rule="nonzero"/></clipPath><clipPath id="3b08ddfdf5"><path d="M 191 99 L 202 99 L 202 116 L 191 116 Z M 191 99 " clip-rule="nonzero"/></clipPath><clipPath id="999fa64084"><path d="M 116.117188 92.304688 L 197.65625 75.519531 L 213.535156 152.652344 L 131.992188 169.4375 Z M 116.117188 92.304688 " clip-rule="nonzero"/></clipPath><clipPath id="24393982fb"><path d="M 116.117188 92.304688 L 197.65625 75.519531 L 213.535156 152.652344 L 131.992188 169.4375 Z M 116.117188 92.304688 " clip-rule="nonzero"/></clipPath><clipPath id="e7ebff5daa"><path d="M 123 115 L 138 115 L 138 127 L 123 127 Z M 123 115 " clip-rule="nonzero"/></clipPath><clipPath id="68b5a6525a"><path d="M 116.117188 92.304688 L 197.65625 75.519531 L 213.535156 152.652344 L 131.992188 169.4375 Z M 116.117188 92.304688 " clip-rule="nonzero"/></clipPath><clipPath id="84d924bb03"><path d="M 116.117188 92.304688 L 197.65625 75.519531 L 213.535156 152.652344 L 131.992188 169.4375 Z M 116.117188 92.304688 " clip-rule="nonzero"/></clipPath><clipPath id="825c0c22fb"><path d="M 181 87 L 188 87 L 188 113 L 181 113 Z M 181 87 " clip-rule="nonzero"/></clipPath><clipPath id="ae6d464ebd"><path d="M 116.117188 92.304688 L 197.65625 75.519531 L 213.535156 152.652344 L 131.992188 169.4375 Z M 116.117188 92.304688 " clip-rule="nonzero"/></clipPath><clipPath id="0a9697c56a"><path d="M 116.117188 92.304688 L 197.65625 75.519531 L 213.535156 152.652344 L 131.992188 169.4375 Z M 116.117188 92.304688 " clip-rule="nonzero"/></clipPath><clipPath id="7337437754"><path d="M 208 53.078125 L 251 53.078125 L 251 95 L 208 95 Z M 208 53.078125 " clip-rule="nonzero"/></clipPath></defs><g clip-path="url(#c908545320)"><path fill="#ffffff" d="M 169.992188 155.054688 L 163.277344 133.605469 C 162.179688 130.167969 159.027344 127.828125 155.464844 127.828125 L 97.613281 127.828125 C 94.050781 127.828125 90.898438 130.167969 89.800781 133.605469 L 83.082031 155.054688 C 82.808594 155.878906 82.671875 156.703125 82.671875 157.53125 L 82.671875 243.328125 C 82.671875 247.867188 86.375 251.578125 90.898438 251.578125 L 96.378906 251.578125 C 98.984375 251.578125 101.453125 250.34375 102.960938 248.28125 L 107.894531 241.679688 C 108.445312 240.992188 109.265625 240.578125 110.089844 240.578125 L 142.988281 240.578125 C 143.8125 240.578125 144.632812 240.992188 145.183594 241.679688 L 150.117188 248.28125 C 151.625 250.34375 154.09375 251.578125 156.695312 251.578125 L 162.179688 251.578125 C 166.703125 251.578125 170.40625 247.867188 170.40625 243.328125 L 170.40625 157.53125 C 170.40625 156.703125 170.269531 155.878906 169.992188 155.054688 Z M 95.007812 135.253906 C 95.421875 134.15625 96.378906 133.328125 97.613281 133.328125 L 155.324219 133.328125 C 156.558594 133.328125 157.519531 134.15625 157.929688 135.253906 L 163.960938 153.953125 L 149.429688 153.953125 C 148.199219 149.96875 144.496094 147.078125 140.246094 147.078125 L 112.832031 147.078125 C 108.445312 147.078125 104.878906 149.96875 103.644531 153.953125 L 89.113281 153.953125 Z M 144.359375 156.703125 C 144.359375 158.90625 142.578125 160.828125 140.246094 160.828125 L 112.832031 160.828125 C 110.5 160.828125 108.71875 158.90625 108.71875 156.703125 C 108.71875 154.367188 110.5 152.578125 112.832031 152.578125 L 140.246094 152.578125 C 142.578125 152.578125 144.359375 154.367188 144.359375 156.703125 Z M 164.921875 243.328125 C 164.921875 244.84375 163.6875 246.078125 162.179688 246.078125 L 156.695312 246.078125 C 155.875 246.078125 155.050781 245.667969 154.503906 244.980469 L 149.570312 238.378906 C 148.0625 236.316406 145.59375 235.078125 142.988281 235.078125 L 110.089844 235.078125 C 107.484375 235.078125 105.015625 236.316406 103.507812 238.378906 L 98.574219 244.980469 C 98.023438 245.667969 97.203125 246.078125 96.378906 246.078125 L 90.898438 246.078125 C 89.390625 246.078125 88.15625 244.84375 88.15625 243.328125 L 88.15625 159.453125 L 103.644531 159.453125 C 104.878906 163.441406 108.582031 166.328125 112.832031 166.328125 L 140.246094 166.328125 C 144.632812 166.328125 148.199219 163.441406 149.429688 159.453125 L 164.921875 159.453125 Z M 146.277344 201.941406 L 151.761719 211.015625 C 152.722656 212.667969 152.859375 214.730469 151.898438 216.515625 C 150.941406 218.167969 149.292969 219.265625 147.375 219.265625 L 134.625 219.265625 L 137.640625 222.292969 C 138.738281 223.390625 138.738281 225.042969 137.640625 226.140625 C 137.09375 226.691406 136.410156 226.96875 135.722656 226.96875 C 135.039062 226.96875 134.351562 226.691406 133.804688 226.140625 L 126.265625 218.441406 C 125.167969 217.34375 125.167969 215.691406 126.265625 214.59375 L 133.804688 206.890625 C 134.902344 205.792969 136.546875 205.792969 137.640625 206.890625 C 138.738281 207.992188 138.738281 209.640625 137.640625 210.742188 L 134.625 213.765625 L 147.101562 213.765625 L 141.617188 204.828125 C 140.796875 203.59375 141.207031 201.804688 142.578125 201.117188 C 143.8125 200.15625 145.59375 200.566406 146.277344 201.941406 Z M 120.78125 216.378906 C 120.78125 217.890625 119.546875 219.128906 118.039062 219.128906 L 106.25 219.128906 C 104.332031 219.128906 102.6875 218.167969 101.726562 216.378906 C 100.765625 214.730469 100.765625 212.667969 101.863281 210.878906 L 108.03125 200.703125 L 103.78125 201.667969 C 102.273438 201.941406 100.902344 200.980469 100.492188 199.605469 C 100.21875 198.09375 101.179688 196.71875 102.6875 196.304688 L 113.105469 194.105469 C 113.789062 193.96875 114.613281 194.105469 115.160156 194.515625 C 115.847656 194.929688 116.257812 195.617188 116.394531 196.304688 L 118.449219 207.03125 C 118.726562 208.542969 117.765625 209.917969 116.257812 210.191406 C 116.121094 210.191406 115.847656 210.191406 115.710938 210.191406 C 114.476562 210.191406 113.242188 209.230469 112.96875 207.992188 L 112.28125 204.28125 L 106.660156 213.628906 L 118.039062 213.628906 C 119.546875 213.628906 120.78125 214.867188 120.78125 216.378906 Z M 126.8125 180.355469 L 121.328125 189.429688 C 120.507812 190.667969 118.863281 191.078125 117.492188 190.390625 C 116.257812 189.566406 115.847656 187.917969 116.53125 186.542969 L 122.289062 177.054688 C 123.25 175.542969 124.894531 174.578125 126.8125 174.578125 C 128.59375 174.578125 130.378906 175.542969 131.199219 177.054688 L 137.230469 186.953125 L 137.917969 183.242188 C 138.191406 181.730469 139.699219 180.765625 141.207031 181.042969 C 142.714844 181.316406 143.675781 182.828125 143.398438 184.203125 L 141.34375 195.203125 C 141.207031 195.890625 140.796875 196.578125 140.109375 196.992188 C 139.699219 197.265625 139.148438 197.40625 138.601562 197.40625 C 138.464844 197.40625 138.191406 197.40625 138.054688 197.40625 L 127.636719 195.203125 C 126.128906 194.929688 125.167969 193.417969 125.441406 191.90625 C 125.714844 190.390625 127.222656 189.429688 128.730469 189.84375 L 132.980469 190.804688 Z M 126.8125 180.355469 " fill-opacity="1" fill-rule="nonzero"/></g><g clip-path="url(#b715ce10e1)"><g clip-path="url(#83294f1da5)"><g clip-path="url(#83ded3588a)"><g clip-path="url(#b122dd0d79)"><path fill="url(#1fcea2e467)" d="M 199.511719 65.992188 L 104.972656 85.449219 L 124.824219 181.886719 L 219.363281 162.429688 Z M 199.511719 65.992188 " fill-rule="nonzero"/></g></g></g></g><g clip-path="url(#f34ea3248b)"><g clip-path="url(#00688aab8d)"><g clip-path="url(#903f245d6d)"><path fill="#77b255" d="M 134.964844 96.019531 C 134.875 96.058594 134.8125 96.121094 134.773438 96.214844 C 134.734375 96.308594 134.730469 96.402344 134.761719 96.5 C 134.761719 96.5 136.3125 101.953125 137.734375 107.71875 C 138.441406 110.601562 139.113281 113.558594 139.542969 115.941406 C 139.757812 117.132812 139.910156 118.1875 139.972656 119 C 140.039062 119.816406 139.992188 120.417969 139.925781 120.574219 C 139.882812 120.671875 139.878906 120.769531 139.910156 120.875 C 139.945312 120.976562 140.011719 121.050781 140.101562 121.101562 C 140.195312 121.148438 140.289062 121.15625 140.382812 121.121094 C 140.480469 121.085938 140.546875 121.019531 140.589844 120.921875 C 140.792969 120.453125 140.78125 119.824219 140.710938 118.960938 C 140.640625 118.101562 140.480469 117.027344 140.261719 115.820312 C 139.828125 113.402344 139.152344 110.429688 138.441406 107.535156 C 137.015625 101.75 135.460938 96.28125 135.460938 96.28125 C 135.429688 96.167969 135.363281 96.085938 135.265625 96.035156 C 135.164062 95.980469 135.066406 95.976562 134.964844 96.019531 Z M 134.964844 96.019531 " fill-opacity="1" fill-rule="nonzero"/></g></g></g><g clip-path="url(#ef3754fedb)"><g clip-path="url(#7f265e3e31)"><g clip-path="url(#a00a45e911)"><path fill="#77b255" d="M 145.75 88.230469 C 145.65625 88.265625 145.585938 88.332031 145.546875 88.425781 C 145.503906 88.523438 145.5 88.621094 145.535156 88.722656 C 145.535156 88.722656 146.503906 91.625 148.765625 94.128906 C 151.03125 96.632812 154.667969 98.742188 159.78125 97.132812 C 165.085938 95.464844 167.589844 93.15625 168.78125 90.746094 C 169.972656 88.335938 169.84375 85.898438 170.046875 84.050781 C 170.058594 83.945312 170.03125 83.847656 169.96875 83.761719 C 169.90625 83.675781 169.824219 83.625 169.722656 83.609375 C 169.621094 83.59375 169.53125 83.617188 169.453125 83.683594 C 169.371094 83.746094 169.324219 83.832031 169.3125 83.941406 C 169.101562 85.894531 169.210938 88.167969 168.121094 90.371094 C 167.035156 92.570312 164.75 94.746094 159.558594 96.382812 C 154.691406 97.914062 151.421875 95.957031 149.285156 93.597656 C 147.152344 91.238281 146.21875 88.484375 146.21875 88.484375 C 146.183594 88.378906 146.121094 88.300781 146.03125 88.253906 C 145.9375 88.203125 145.84375 88.195312 145.746094 88.230469 Z M 145.75 88.230469 " fill-opacity="1" fill-rule="nonzero"/></g></g></g><g clip-path="url(#347d6aa9d4)"><g clip-path="url(#3ca72fc956)"><g clip-path="url(#1f6463f8cb)"><path fill="#77b255" d="M 148.546875 87.351562 L 148.085938 87.933594 C 148.101562 87.953125 148.121094 87.964844 148.140625 87.984375 C 151.03125 91.253906 153.71875 92.726562 156.140625 93.023438 C 158.574219 93.320312 160.691406 92.421875 162.410156 91.132812 C 165.851562 88.550781 167.777344 84.34375 167.777344 84.34375 L 167.222656 83.855469 C 161.734375 88.519531 157.054688 89.359375 153.753906 89.066406 C 150.453125 88.773438 148.546875 87.351562 148.546875 87.351562 Z M 166.152344 85.675781 C 165.324219 87.078125 164.0625 88.9375 161.988281 90.492188 C 160.367188 91.710938 158.425781 92.519531 156.203125 92.246094 C 154.40625 92.027344 152.394531 91.039062 150.199219 88.996094 C 151.121094 89.355469 152.261719 89.707031 153.714844 89.835938 C 156.867188 90.117188 161.195312 89.367188 166.152344 85.675781 Z M 166.152344 85.675781 " fill-opacity="1" fill-rule="nonzero"/></g></g></g><g clip-path="url(#fbb37a1824)"><g clip-path="url(#517f31fff3)"><g clip-path="url(#390964c2c3)"><path fill="#77b255" d="M 149.28125 162.175781 C 149.183594 162.199219 149.109375 162.257812 149.058594 162.351562 C 149.007812 162.445312 148.996094 162.542969 149.019531 162.648438 C 149.046875 162.753906 149.105469 162.832031 149.191406 162.890625 C 149.28125 162.945312 149.375 162.960938 149.472656 162.9375 L 195.707031 153.566406 C 195.804688 153.550781 195.882812 153.496094 195.9375 153.40625 C 195.996094 153.316406 196.011719 153.21875 195.988281 153.109375 C 195.96875 153.003906 195.914062 152.917969 195.828125 152.859375 C 195.738281 152.796875 195.648438 152.777344 195.546875 152.800781 L 149.3125 162.167969 C 149.300781 162.171875 149.292969 162.171875 149.28125 162.175781 Z M 149.28125 162.175781 " fill-opacity="1" fill-rule="nonzero"/></g></g></g><g clip-path="url(#3b08ddfdf5)"><g clip-path="url(#999fa64084)"><g clip-path="url(#24393982fb)"><path fill="#77b255" d="M 201.046875 99.542969 C 200.964844 99.574219 200.902344 99.628906 200.859375 99.707031 L 191.476562 114.921875 C 191.421875 115.011719 191.40625 115.109375 191.429688 115.214844 C 191.453125 115.320312 191.507812 115.40625 191.59375 115.464844 C 191.679688 115.523438 191.773438 115.542969 191.871094 115.523438 C 191.972656 115.5 192.046875 115.445312 192.101562 115.355469 L 201.472656 100.144531 C 201.574219 99.992188 201.570312 99.839844 201.460938 99.6875 C 201.351562 99.535156 201.214844 99.488281 201.046875 99.542969 Z M 201.046875 99.542969 " fill-opacity="1" fill-rule="nonzero"/></g></g></g><g clip-path="url(#e7ebff5daa)"><g clip-path="url(#68b5a6525a)"><g clip-path="url(#84d924bb03)"><path fill="#77b255" d="M 123.3125 115.546875 C 123.164062 115.59375 123.082031 115.699219 123.0625 115.867188 C 123.046875 116.03125 123.105469 116.160156 123.238281 116.25 L 137.105469 126.101562 C 137.191406 126.175781 137.285156 126.203125 137.394531 126.1875 C 137.5 126.171875 137.585938 126.117188 137.644531 126.023438 C 137.703125 125.925781 137.714844 125.820312 137.6875 125.707031 C 137.65625 125.59375 137.59375 125.511719 137.496094 125.457031 L 123.628906 115.605469 C 123.53125 115.53125 123.425781 115.511719 123.3125 115.546875 Z M 123.3125 115.546875 " fill-opacity="1" fill-rule="nonzero"/></g></g></g><g clip-path="url(#825c0c22fb)"><g clip-path="url(#ae6d464ebd)"><g clip-path="url(#0a9697c56a)"><path fill="#77b255" d="M 181.972656 87.054688 C 181.804688 87.117188 181.726562 87.242188 181.734375 87.429688 C 181.734375 87.429688 181.90625 92.34375 182.667969 97.90625 C 183.046875 100.6875 183.570312 103.636719 184.300781 106.226562 C 185.027344 108.820312 185.953125 111.054688 187.195312 112.441406 C 187.265625 112.527344 187.355469 112.578125 187.460938 112.585938 C 187.566406 112.59375 187.65625 112.558594 187.734375 112.480469 C 187.808594 112.402344 187.847656 112.308594 187.84375 112.195312 C 187.839844 112.082031 187.796875 111.984375 187.714844 111.910156 C 186.632812 110.703125 185.714844 108.554688 185.003906 106.019531 C 184.289062 103.488281 183.769531 100.5625 183.394531 97.804688 C 182.640625 92.292969 182.46875 87.429688 182.46875 87.429688 C 182.464844 87.292969 182.410156 87.1875 182.304688 87.105469 C 182.203125 87.027344 182.089844 87.011719 181.972656 87.054688 Z M 181.972656 87.054688 " fill-opacity="1" fill-rule="nonzero"/></g></g></g><g clip-path="url(#7337437754)"><path fill="#ffffff" d="M 208.859375 74.242188 C 208.734375 62.785156 217.921875 53.410156 229.382812 53.277344 C 240.851562 53.152344 250.25 62.332031 250.371094 73.785156 C 250.496094 85.234375 241.308594 94.621094 229.839844 94.742188 C 218.378906 94.875 208.980469 85.6875 208.859375 74.242188 " fill-opacity="1" fill-rule="nonzero"/></g><path fill="#ffffff" d="M 283.988281 221.0625 L 265.195312 209.539062 L 261.414062 190.464844 C 265.734375 187.09375 268.394531 181.992188 268.617188 176.472656 C 268.679688 174.988281 268.5625 173.5 268.269531 172.046875 L 257.480469 117.871094 C 255.503906 107.828125 245.757812 101.296875 235.710938 103.273438 C 234.003906 103.605469 232.453125 104.253906 230.929688 104.902344 C 228.238281 106.058594 226.308594 108.320312 224.917969 110.777344 L 224.871094 110.851562 C 220.773438 118.15625 212.40625 128.800781 206.277344 134.503906 L 206.074219 134.6875 L 188.648438 132.984375 C 184.863281 132.605469 181.492188 135.382812 181.144531 139.171875 C 180.796875 142.949219 183.574219 146.28125 187.351562 146.628906 L 205.707031 148.3125 C 208.085938 148.535156 210.472656 147.917969 212.445312 146.570312 L 224.871094 138.085938 L 234.917969 173.097656 C 235.765625 176.140625 234.5625 179.390625 231.917969 181.140625 L 212.574219 194.007812 C 210.25 195.628906 208.8125 198.253906 208.695312 201.085938 L 207.082031 240.761719 C 206.855469 246.128906 211.039062 250.660156 216.410156 250.875 C 221.777344 251.089844 226.308594 246.921875 226.53125 241.558594 L 227.738281 211.949219 L 243.949219 201.660156 L 246.136719 218.625 C 246.730469 221.179688 248.6875 223.195312 251.214844 223.890625 L 279.328125 238.761719 C 284.234375 240.113281 289.296875 237.203125 290.605469 232.289062 C 291.917969 227.355469 288.53125 223.789062 283.988281 221.0625 " fill-opacity="1" fill-rule="nonzero"/></svg>