<svg xmlns="http://www.w3.org/2000/svg" xmlns:xlink="http://www.w3.org/1999/xlink" width="500" zoomAndPan="magnify" viewBox="0 0 375 374.999991" height="500" preserveAspectRatio="xMidYMid meet" version="1.0"><defs><clipPath id="a9294ed480"><path d="M 82.664062 112.25 L 170.414062 112.25 L 170.414062 236 L 82.664062 236 Z M 82.664062 112.25 " clip-rule="nonzero"/></clipPath><clipPath id="d729390c4d"><path d="M 121 66 L 203 66 L 203 151 L 121 151 Z M 121 66 " clip-rule="nonzero"/></clipPath><clipPath id="5f3be7e4e4"><path d="M 116.117188 76.722656 L 197.65625 59.9375 L 213.535156 137.070312 L 131.992188 153.855469 Z M 116.117188 76.722656 " clip-rule="nonzero"/></clipPath><clipPath id="430b7307d6"><path d="M 116.117188 76.722656 L 197.65625 59.9375 L 213.535156 137.070312 L 131.992188 153.855469 Z M 116.117188 76.722656 " clip-rule="nonzero"/></clipPath><clipPath id="a32854fd56"><path d="M 121.523438 102.066406 L 136.277344 112.984375 L 137.9375 112.644531 L 140.339844 108.804688 L 148.605469 148.964844 L 149.40625 150.253906 L 195.710938 140.578125 L 196.914062 139.3125 L 188.289062 99.371094 L 192.425781 102.007812 L 193.773438 101.4375 L 202.816406 85.914062 L 202.414062 83.960938 L 183.527344 70.40625 L 165.949219 66.464844 C 165.949219 66.464844 161.484375 74.507812 148.519531 70.34375 L 134.410156 79.355469 L 121.519531 102.066406 Z M 121.523438 102.066406 " clip-rule="nonzero"/></clipPath><radialGradient gradientTransform="matrix(0.236873, 1.150698, -0.808232, 0.166356, 471.843533, -167.022696)" gradientUnits="userSpaceOnUse" r="66.008514" cx="175.679779" id="ef6d4003c3" cy="431.352109" fx="175.679779" fy="431.352109"><stop stop-opacity="1" stop-color="rgb(49.398804%, 85.099792%, 34.098816%)" offset="0"/><stop stop-opacity="1" stop-color="rgb(49.398804%, 85.099792%, 34.098816%)" offset="1"/></radialGradient><clipPath id="5108f19644"><path d="M 134 80 L 141 80 L 141 106 L 134 106 Z M 134 80 " clip-rule="nonzero"/></clipPath><clipPath id="57a07f76f7"><path d="M 116.117188 76.722656 L 197.65625 59.9375 L 213.535156 137.070312 L 131.992188 153.855469 Z M 116.117188 76.722656 " clip-rule="nonzero"/></clipPath><clipPath id="d88efbea7e"><path d="M 116.117188 76.722656 L 197.65625 59.9375 L 213.535156 137.070312 L 131.992188 153.855469 Z M 116.117188 76.722656 " clip-rule="nonzero"/></clipPath><clipPath id="83319a8e51"><path d="M 145 68 L 171 68 L 171 83 L 145 83 Z M 145 68 " clip-rule="nonzero"/></clipPath><clipPath id="9ac6d726e2"><path d="M 116.117188 76.722656 L 197.65625 59.9375 L 213.535156 137.070312 L 131.992188 153.855469 Z M 116.117188 76.722656 " clip-rule="nonzero"/></clipPath><clipPath id="7f8f8898d4"><path d="M 116.117188 76.722656 L 197.65625 59.9375 L 213.535156 137.070312 L 131.992188 153.855469 Z M 116.117188 76.722656 " clip-rule="nonzero"/></clipPath><clipPath id="65450a1ec5"><path d="M 148 68 L 168 68 L 168 78 L 148 78 Z M 148 68 " clip-rule="nonzero"/></clipPath><clipPath id="0b875dad68"><path d="M 116.117188 76.722656 L 197.65625 59.9375 L 213.535156 137.070312 L 131.992188 153.855469 Z M 116.117188 76.722656 " clip-rule="nonzero"/></clipPath><clipPath id="372b5e5334"><path d="M 116.117188 76.722656 L 197.65625 59.9375 L 213.535156 137.070312 L 131.992188 153.855469 Z M 116.117188 76.722656 " clip-rule="nonzero"/></clipPath><clipPath id="e83403ad5e"><path d="M 149 137 L 196 137 L 196 148 L 149 148 Z M 149 137 " clip-rule="nonzero"/></clipPath><clipPath id="b0f1da9200"><path d="M 116.117188 76.722656 L 197.65625 59.9375 L 213.535156 137.070312 L 131.992188 153.855469 Z M 116.117188 76.722656 " clip-rule="nonzero"/></clipPath><clipPath id="e442fa41cf"><path d="M 116.117188 76.722656 L 197.65625 59.9375 L 213.535156 137.070312 L 131.992188 153.855469 Z M 116.117188 76.722656 " clip-rule="nonzero"/></clipPath><clipPath id="419c3b2a92"><path d="M 191 83 L 202 83 L 202 100 L 191 100 Z M 191 83 " clip-rule="nonzero"/></clipPath><clipPath id="7dcd7855ec"><path d="M 116.117188 76.722656 L 197.65625 59.9375 L 213.535156 137.070312 L 131.992188 153.855469 Z M 116.117188 76.722656 " clip-rule="nonzero"/></clipPath><clipPath id="4c9a781893"><path d="M 116.117188 76.722656 L 197.65625 59.9375 L 213.535156 137.070312 L 131.992188 153.855469 Z M 116.117188 76.722656 " clip-rule="nonzero"/></clipPath><clipPath id="acd52d2fdc"><path d="M 123 99 L 138 99 L 138 111 L 123 111 Z M 123 99 " clip-rule="nonzero"/></clipPath><clipPath id="c1f62c08b8"><path d="M 116.117188 76.722656 L 197.65625 59.9375 L 213.535156 137.070312 L 131.992188 153.855469 Z M 116.117188 76.722656 " clip-rule="nonzero"/></clipPath><clipPath id="a39f1efaa9"><path d="M 116.117188 76.722656 L 197.65625 59.9375 L 213.535156 137.070312 L 131.992188 153.855469 Z M 116.117188 76.722656 " clip-rule="nonzero"/></clipPath><clipPath id="5a3628cc89"><path d="M 181 71 L 188 71 L 188 98 L 181 98 Z M 181 71 " clip-rule="nonzero"/></clipPath><clipPath id="aa0c0f2a83"><path d="M 116.117188 76.722656 L 197.65625 59.9375 L 213.535156 137.070312 L 131.992188 153.855469 Z M 116.117188 76.722656 " clip-rule="nonzero"/></clipPath><clipPath id="bc5a9173f3"><path d="M 116.117188 76.722656 L 197.65625 59.9375 L 213.535156 137.070312 L 131.992188 153.855469 Z M 116.117188 76.722656 " clip-rule="nonzero"/></clipPath><clipPath id="29616f6f93"><path d="M 208 37.5 L 251 37.5 L 251 80 L 208 80 Z M 208 37.5 " clip-rule="nonzero"/></clipPath><clipPath id="06965bc906"><path d="M 181 87 L 291 87 L 291 235.5 L 181 235.5 Z M 181 87 " clip-rule="nonzero"/></clipPath></defs><g clip-path="url(#a9294ed480)"><path fill="#ffffff" d="M 169.992188 139.476562 L 163.277344 118.023438 C 162.179688 114.585938 159.027344 112.25 155.464844 112.25 L 97.613281 112.25 C 94.050781 112.25 90.898438 114.585938 89.800781 118.023438 L 83.082031 139.476562 C 82.808594 140.300781 82.671875 141.125 82.671875 141.949219 L 82.671875 227.75 C 82.671875 232.289062 86.375 236 90.898438 236 L 96.378906 236 C 98.984375 236 101.453125 234.761719 102.960938 232.699219 L 107.894531 226.101562 C 108.445312 225.414062 109.265625 225 110.089844 225 L 142.988281 225 C 143.8125 225 144.632812 225.414062 145.183594 226.101562 L 150.117188 232.699219 C 151.625 234.761719 154.09375 236 156.695312 236 L 162.179688 236 C 166.703125 236 170.40625 232.289062 170.40625 227.75 L 170.40625 141.949219 C 170.40625 141.125 170.269531 140.300781 169.992188 139.476562 Z M 95.007812 119.675781 C 95.421875 118.574219 96.378906 117.75 97.613281 117.75 L 155.324219 117.75 C 156.558594 117.75 157.519531 118.574219 157.929688 119.675781 L 163.960938 138.375 L 149.429688 138.375 C 148.199219 134.386719 144.496094 131.5 140.246094 131.5 L 112.832031 131.5 C 108.445312 131.5 104.878906 134.386719 103.644531 138.375 L 89.113281 138.375 Z M 144.359375 141.125 C 144.359375 143.324219 142.578125 145.25 140.246094 145.25 L 112.832031 145.25 C 110.5 145.25 108.71875 143.324219 108.71875 141.125 C 108.71875 138.789062 110.5 137 112.832031 137 L 140.246094 137 C 142.578125 137 144.359375 138.789062 144.359375 141.125 Z M 164.921875 227.75 C 164.921875 229.261719 163.6875 230.5 162.179688 230.5 L 156.695312 230.5 C 155.875 230.5 155.050781 230.085938 154.503906 229.398438 L 149.570312 222.800781 C 148.0625 220.738281 145.59375 219.5 142.988281 219.5 L 110.089844 219.5 C 107.484375 219.5 105.015625 220.738281 103.507812 222.800781 L 98.574219 229.398438 C 98.023438 230.085938 97.203125 230.5 96.378906 230.5 L 90.898438 230.5 C 89.390625 230.5 88.15625 229.261719 88.15625 227.75 L 88.15625 143.875 L 103.644531 143.875 C 104.878906 147.863281 108.582031 150.75 112.832031 150.75 L 140.246094 150.75 C 144.632812 150.75 148.199219 147.863281 149.429688 143.875 L 164.921875 143.875 Z M 146.277344 186.363281 L 151.761719 195.4375 C 152.722656 197.085938 152.859375 199.148438 151.898438 200.9375 C 150.941406 202.585938 149.292969 203.6875 147.375 203.6875 L 134.625 203.6875 L 137.640625 206.710938 C 138.738281 207.8125 138.738281 209.460938 137.640625 210.5625 C 137.09375 211.113281 136.410156 211.386719 135.722656 211.386719 C 135.039062 211.386719 134.351562 211.113281 133.804688 210.5625 L 126.265625 202.863281 C 125.167969 201.761719 125.167969 200.113281 126.265625 199.011719 L 133.804688 191.3125 C 134.902344 190.210938 136.546875 190.210938 137.640625 191.3125 C 138.738281 192.414062 138.738281 194.0625 137.640625 195.164062 L 134.625 198.1875 L 147.101562 198.1875 L 141.617188 189.25 C 140.796875 188.011719 141.207031 186.226562 142.578125 185.539062 C 143.8125 184.574219 145.59375 184.988281 146.277344 186.363281 Z M 120.78125 200.800781 C 120.78125 202.3125 119.546875 203.550781 118.039062 203.550781 L 106.25 203.550781 C 104.332031 203.550781 102.6875 202.585938 101.726562 200.800781 C 100.765625 199.148438 100.765625 197.085938 101.863281 195.300781 L 108.03125 185.125 L 103.78125 186.085938 C 102.273438 186.363281 100.902344 185.398438 100.492188 184.023438 C 100.21875 182.511719 101.179688 181.136719 102.6875 180.726562 L 113.105469 178.523438 C 113.789062 178.386719 114.613281 178.523438 115.160156 178.9375 C 115.847656 179.351562 116.257812 180.039062 116.394531 180.726562 L 118.449219 191.449219 C 118.726562 192.960938 117.765625 194.335938 116.257812 194.613281 C 116.121094 194.613281 115.847656 194.613281 115.710938 194.613281 C 114.476562 194.613281 113.242188 193.648438 112.96875 192.414062 L 112.28125 188.699219 L 106.660156 198.050781 L 118.039062 198.050781 C 119.546875 198.050781 120.78125 199.289062 120.78125 200.800781 Z M 126.8125 164.773438 L 121.328125 173.851562 C 120.507812 175.085938 118.863281 175.5 117.492188 174.8125 C 116.257812 173.988281 115.847656 172.335938 116.53125 170.960938 L 122.289062 161.476562 C 123.25 159.960938 124.894531 159 126.8125 159 C 128.59375 159 130.378906 159.960938 131.199219 161.476562 L 137.230469 171.375 L 137.917969 167.664062 C 138.191406 166.148438 139.699219 165.1875 141.207031 165.460938 C 142.714844 165.738281 143.675781 167.25 143.398438 168.625 L 141.34375 179.625 C 141.207031 180.3125 140.796875 181 140.109375 181.414062 C 139.699219 181.6875 139.148438 181.824219 138.601562 181.824219 C 138.464844 181.824219 138.191406 181.824219 138.054688 181.824219 L 127.636719 179.625 C 126.128906 179.351562 125.167969 177.835938 125.441406 176.324219 C 125.714844 174.8125 127.222656 173.851562 128.730469 174.261719 L 132.980469 175.226562 Z M 126.8125 164.773438 " fill-opacity="1" fill-rule="nonzero"/></g><g clip-path="url(#d729390c4d)"><g clip-path="url(#5f3be7e4e4)"><g clip-path="url(#430b7307d6)"><g clip-path="url(#a32854fd56)"><path fill="url(#ef6d4003c3)" d="M 199.511719 50.414062 L 104.972656 69.871094 L 124.824219 166.308594 L 219.363281 146.847656 Z M 199.511719 50.414062 " fill-rule="nonzero"/></g></g></g></g><g clip-path="url(#5108f19644)"><g clip-path="url(#57a07f76f7)"><g clip-path="url(#d88efbea7e)"><path fill="#77b255" d="M 134.964844 80.441406 C 134.875 80.476562 134.8125 80.542969 134.773438 80.636719 C 134.734375 80.726562 134.730469 80.824219 134.761719 80.921875 C 134.761719 80.921875 136.3125 86.375 137.734375 92.140625 C 138.441406 95.023438 139.113281 97.976562 139.542969 100.363281 C 139.757812 101.554688 139.910156 102.609375 139.972656 103.421875 C 140.039062 104.234375 139.992188 104.835938 139.925781 104.992188 C 139.882812 105.089844 139.878906 105.191406 139.910156 105.292969 C 139.945312 105.398438 140.011719 105.472656 140.101562 105.519531 C 140.195312 105.570312 140.289062 105.578125 140.382812 105.542969 C 140.480469 105.507812 140.546875 105.441406 140.589844 105.34375 C 140.792969 104.871094 140.78125 104.242188 140.710938 103.382812 C 140.640625 102.523438 140.480469 101.449219 140.261719 100.238281 C 139.828125 97.824219 139.152344 94.847656 138.441406 91.957031 C 137.015625 86.171875 135.460938 80.703125 135.460938 80.703125 C 135.429688 80.589844 135.363281 80.507812 135.265625 80.453125 C 135.164062 80.402344 135.066406 80.398438 134.964844 80.441406 Z M 134.964844 80.441406 " fill-opacity="1" fill-rule="nonzero"/></g></g></g><g clip-path="url(#83319a8e51)"><g clip-path="url(#9ac6d726e2)"><g clip-path="url(#7f8f8898d4)"><path fill="#77b255" d="M 145.75 72.648438 C 145.65625 72.683594 145.585938 72.75 145.546875 72.847656 C 145.503906 72.941406 145.5 73.042969 145.535156 73.144531 C 145.535156 73.144531 146.503906 76.046875 148.765625 78.550781 C 151.03125 81.050781 154.667969 83.164062 159.78125 81.554688 C 165.085938 79.886719 167.589844 77.574219 168.78125 75.167969 C 169.972656 72.757812 169.84375 70.316406 170.046875 68.472656 C 170.058594 68.367188 170.03125 68.269531 169.96875 68.183594 C 169.90625 68.09375 169.824219 68.042969 169.722656 68.027344 C 169.621094 68.015625 169.53125 68.039062 169.453125 68.101562 C 169.371094 68.167969 169.324219 68.253906 169.3125 68.359375 C 169.101562 70.3125 169.210938 72.589844 168.121094 74.789062 C 167.035156 76.992188 164.75 79.167969 159.558594 80.800781 C 154.691406 82.332031 151.421875 80.378906 149.285156 78.019531 C 147.152344 75.65625 146.21875 72.902344 146.21875 72.902344 C 146.183594 72.796875 146.121094 72.722656 146.03125 72.671875 C 145.9375 72.621094 145.84375 72.617188 145.746094 72.648438 Z M 145.75 72.648438 " fill-opacity="1" fill-rule="nonzero"/></g></g></g><g clip-path="url(#65450a1ec5)"><g clip-path="url(#0b875dad68)"><g clip-path="url(#372b5e5334)"><path fill="#77b255" d="M 148.546875 71.773438 L 148.085938 72.355469 C 148.101562 72.375 148.121094 72.382812 148.140625 72.40625 C 151.03125 75.671875 153.71875 77.148438 156.140625 77.441406 C 158.574219 77.738281 160.691406 76.84375 162.410156 75.550781 C 165.851562 72.96875 167.777344 68.761719 167.777344 68.761719 L 167.222656 68.277344 C 161.734375 72.9375 157.054688 73.78125 153.753906 73.484375 C 150.453125 73.191406 148.546875 71.773438 148.546875 71.773438 Z M 166.152344 70.097656 C 165.324219 71.5 164.0625 73.355469 161.988281 74.914062 C 160.367188 76.132812 158.425781 76.9375 156.203125 76.667969 C 154.40625 76.449219 152.394531 75.457031 150.199219 73.417969 C 151.121094 73.773438 152.261719 74.125 153.714844 74.257812 C 156.867188 74.535156 161.195312 73.789062 166.152344 70.097656 Z M 166.152344 70.097656 " fill-opacity="1" fill-rule="nonzero"/></g></g></g><g clip-path="url(#e83403ad5e)"><g clip-path="url(#b0f1da9200)"><g clip-path="url(#e442fa41cf)"><path fill="#77b255" d="M 149.28125 146.597656 C 149.183594 146.621094 149.109375 146.679688 149.058594 146.773438 C 149.007812 146.863281 148.996094 146.960938 149.019531 147.066406 C 149.046875 147.171875 149.105469 147.253906 149.191406 147.308594 C 149.28125 147.367188 149.375 147.382812 149.472656 147.355469 L 195.707031 137.988281 C 195.804688 137.96875 195.882812 137.914062 195.9375 137.824219 C 195.996094 137.734375 196.011719 137.636719 195.988281 137.53125 C 195.96875 137.421875 195.914062 137.339844 195.828125 137.277344 C 195.738281 137.21875 195.648438 137.199219 195.546875 137.222656 L 149.3125 146.589844 C 149.300781 146.589844 149.292969 146.59375 149.28125 146.597656 Z M 149.28125 146.597656 " fill-opacity="1" fill-rule="nonzero"/></g></g></g><g clip-path="url(#419c3b2a92)"><g clip-path="url(#7dcd7855ec)"><g clip-path="url(#4c9a781893)"><path fill="#77b255" d="M 201.046875 83.964844 C 200.964844 83.996094 200.902344 84.050781 200.859375 84.128906 L 191.476562 99.339844 C 191.421875 99.429688 191.40625 99.53125 191.429688 99.636719 C 191.453125 99.742188 191.507812 99.824219 191.59375 99.886719 C 191.679688 99.945312 191.773438 99.964844 191.871094 99.941406 C 191.972656 99.921875 192.046875 99.863281 192.101562 99.773438 L 201.472656 84.566406 C 201.574219 84.410156 201.570312 84.257812 201.460938 84.105469 C 201.351562 83.953125 201.214844 83.90625 201.046875 83.964844 Z M 201.046875 83.964844 " fill-opacity="1" fill-rule="nonzero"/></g></g></g><g clip-path="url(#acd52d2fdc)"><g clip-path="url(#c1f62c08b8)"><g clip-path="url(#a39f1efaa9)"><path fill="#77b255" d="M 123.3125 99.964844 C 123.164062 100.015625 123.082031 100.121094 123.0625 100.285156 C 123.046875 100.449219 123.105469 100.578125 123.238281 100.667969 L 137.105469 110.519531 C 137.191406 110.59375 137.285156 110.625 137.394531 110.609375 C 137.5 110.59375 137.585938 110.539062 137.644531 110.441406 C 137.703125 110.34375 137.714844 110.242188 137.6875 110.128906 C 137.65625 110.015625 137.59375 109.933594 137.496094 109.878906 L 123.628906 100.027344 C 123.53125 99.953125 123.425781 99.933594 123.3125 99.964844 Z M 123.3125 99.964844 " fill-opacity="1" fill-rule="nonzero"/></g></g></g><g clip-path="url(#5a3628cc89)"><g clip-path="url(#aa0c0f2a83)"><g clip-path="url(#bc5a9173f3)"><path fill="#77b255" d="M 181.972656 71.476562 C 181.804688 71.535156 181.726562 71.660156 181.734375 71.847656 C 181.734375 71.847656 181.90625 76.765625 182.667969 82.324219 C 183.046875 85.105469 183.570312 88.054688 184.300781 90.648438 C 185.027344 93.238281 185.953125 95.476562 187.195312 96.859375 C 187.265625 96.949219 187.355469 97 187.460938 97.007812 C 187.566406 97.015625 187.65625 96.980469 187.734375 96.902344 C 187.808594 96.824219 187.847656 96.730469 187.84375 96.613281 C 187.839844 96.5 187.796875 96.40625 187.714844 96.328125 C 186.632812 95.121094 185.714844 92.972656 185.003906 90.441406 C 184.289062 87.90625 183.769531 84.984375 183.394531 82.226562 C 182.640625 76.714844 182.46875 71.847656 182.46875 71.847656 C 182.464844 71.714844 182.410156 71.605469 182.304688 71.527344 C 182.203125 71.449219 182.089844 71.429688 181.972656 71.476562 Z M 181.972656 71.476562 " fill-opacity="1" fill-rule="nonzero"/></g></g></g><g clip-path="url(#29616f6f93)"><path fill="#ffffff" d="M 208.859375 58.664062 C 208.734375 47.207031 217.921875 37.828125 229.382812 37.699219 C 240.851562 37.574219 250.25 46.75 250.371094 58.207031 C 250.496094 69.652344 241.308594 79.039062 229.839844 79.164062 C 218.378906 79.296875 208.980469 70.109375 208.859375 58.664062 " fill-opacity="1" fill-rule="nonzero"/></g><g clip-path="url(#06965bc906)"><path fill="#ffffff" d="M 283.988281 205.484375 L 265.195312 193.960938 L 261.414062 174.886719 C 265.734375 171.511719 268.394531 166.410156 268.617188 160.890625 C 268.679688 159.410156 268.5625 157.921875 268.269531 156.46875 L 257.480469 102.289062 C 255.503906 92.246094 245.757812 85.71875 235.710938 87.691406 C 234.003906 88.023438 232.453125 88.671875 230.929688 89.320312 C 228.238281 90.480469 226.308594 92.742188 224.917969 95.195312 L 224.871094 95.273438 C 220.773438 102.574219 212.40625 113.21875 206.277344 118.925781 L 206.074219 119.109375 L 188.648438 117.402344 C 184.863281 117.023438 181.492188 119.804688 181.144531 123.59375 C 180.796875 127.367188 183.574219 130.703125 187.351562 131.050781 L 205.707031 132.734375 C 208.085938 132.957031 210.472656 132.339844 212.445312 130.988281 L 224.871094 122.503906 L 234.917969 157.519531 C 235.765625 160.558594 234.5625 163.808594 231.917969 165.5625 L 212.574219 178.429688 C 210.25 180.050781 208.8125 182.675781 208.695312 185.507812 L 207.082031 225.183594 C 206.855469 230.546875 211.039062 235.078125 216.410156 235.292969 C 221.777344 235.511719 226.308594 231.34375 226.53125 225.976562 L 227.738281 196.367188 L 243.949219 186.078125 L 246.136719 203.046875 C 246.730469 205.601562 248.6875 207.613281 251.214844 208.308594 L 279.328125 223.183594 C 284.234375 224.535156 289.296875 221.625 290.605469 216.707031 C 291.917969 211.773438 288.53125 208.207031 283.988281 205.484375 " fill-opacity="1" fill-rule="nonzero"/></g></svg>