<svg xmlns="http://www.w3.org/2000/svg" xmlns:xlink="http://www.w3.org/1999/xlink" width="500" zoomAndPan="magnify" viewBox="0 0 375 374.999991" height="500" preserveAspectRatio="xMidYMid meet" version="1.0"><defs><clipPath id="7940a076f6"><path d="M 152.308594 112.984375 L 302.308594 112.984375 L 302.308594 244.234375 L 152.308594 244.234375 Z M 152.308594 112.984375 " clip-rule="nonzero"/></clipPath><clipPath id="c1286b3d47"><path d="M 212.472656 72.808594 L 295.722656 72.808594 L 295.722656 151.558594 L 212.472656 151.558594 Z M 212.472656 72.808594 " clip-rule="nonzero"/></clipPath><clipPath id="f4e3ce440a"><path d="M 212.660156 98.71875 L 224.910156 112.386719 L 226.605469 112.386719 L 229.730469 109.113281 L 229.730469 150.117188 L 230.253906 151.539062 L 277.558594 151.398438 L 278.992188 150.398438 L 278.601562 109.539062 L 282.121094 112.957031 L 283.554688 112.671875 L 295.542969 99.289062 L 295.542969 97.292969 L 279.773438 80.210938 L 263.351562 72.804688 C 263.351562 72.804688 257.359375 79.78125 245.5 73.089844 L 229.859375 79.070312 Z M 212.660156 98.71875 " clip-rule="nonzero"/></clipPath><radialGradient gradientTransform="matrix(0, 1.174826, -0.825174, -0.0000187732, 610.04131, -94.211448)" gradientUnits="userSpaceOnUse" r="66.008513" cx="175.679777" id="9e68be3212" cy="431.352104" fx="175.679777" fy="431.352104"><stop stop-opacity="1" stop-color="rgb(49.398804%, 85.099792%, 34.098816%)" offset="0"/><stop stop-opacity="1" stop-color="rgb(49.398804%, 85.099792%, 34.098816%)" offset="1"/></radialGradient><clipPath id="39b1ba3f06"><path d="M 102 103.609375 L 132 103.609375 L 132 134 L 102 134 Z M 102 103.609375 " clip-rule="nonzero"/></clipPath><clipPath id="1aac611ef9"><path d="M 73 139 L 152 139 L 152 244.609375 L 73 244.609375 Z M 73 139 " clip-rule="nonzero"/></clipPath></defs><g clip-path="url(#7940a076f6)"><path fill="#000000" d="M 283.558594 172.75 L 274.183594 172.75 L 274.183594 159.859375 C 274.183594 157.28125 272.074219 155.171875 269.496094 155.171875 L 241.371094 155.171875 C 238.792969 155.171875 236.683594 157.28125 236.683594 159.859375 L 236.683594 172.75 L 231.996094 172.75 L 231.996094 159.859375 C 231.996094 157.28125 229.886719 155.171875 227.308594 155.171875 L 219.105469 155.171875 L 219.105469 145.09375 C 220.511719 144.273438 221.449219 142.75 221.449219 141.109375 L 221.449219 134.078125 C 224.027344 134.078125 226.136719 131.96875 226.136719 129.390625 L 226.136719 117.671875 C 226.136719 115.09375 224.027344 112.984375 221.449219 112.984375 L 202.699219 112.984375 C 201.527344 112.984375 200.472656 113.453125 199.652344 114.15625 L 164.027344 114.15625 C 161.449219 114.15625 159.339844 116.265625 159.339844 118.84375 L 159.339844 156.460938 C 157.347656 156.929688 155.824219 158.804688 155.824219 161.03125 L 155.824219 172.75 L 154.652344 172.75 C 153.363281 172.75 152.308594 173.804688 152.308594 175.09375 C 152.308594 176.382812 153.363281 177.4375 154.652344 177.4375 L 283.558594 177.4375 C 291.292969 177.4375 297.621094 183.765625 297.621094 191.5 C 297.621094 199.234375 291.292969 205.5625 283.558594 205.5625 L 154.652344 205.5625 C 153.363281 205.5625 152.308594 206.617188 152.308594 207.90625 C 152.308594 209.195312 153.363281 210.25 154.652344 210.25 L 160.511719 210.25 L 160.511719 241.890625 C 160.511719 243.179688 161.566406 244.234375 162.855469 244.234375 C 164.144531 244.234375 165.199219 243.179688 165.199219 241.890625 L 165.199219 232.515625 L 282.386719 232.515625 L 282.386719 241.890625 C 282.386719 243.179688 283.441406 244.234375 284.730469 244.234375 C 286.019531 244.234375 287.074219 243.179688 287.074219 241.890625 L 287.074219 209.898438 C 295.746094 208.257812 302.308594 200.640625 302.308594 191.5 C 302.308594 181.1875 293.871094 172.75 283.558594 172.75 Z M 202.699219 117.671875 L 221.449219 117.671875 L 221.449219 129.390625 L 202.699219 129.390625 Z M 207.386719 141.109375 L 207.386719 134.078125 L 216.761719 134.078125 L 216.761719 141.109375 Z M 214.417969 145.796875 L 214.417969 155.171875 L 209.730469 155.171875 L 209.730469 145.796875 Z M 164.027344 118.84375 L 198.011719 118.84375 L 198.011719 128.21875 L 173.402344 128.21875 L 173.402344 156.34375 L 164.027344 156.34375 Z M 176.917969 172.75 L 160.511719 172.75 L 160.511719 161.03125 L 176.917969 161.03125 Z M 194.496094 159.859375 L 194.496094 172.75 L 181.605469 172.75 L 181.605469 161.03125 C 181.605469 158.804688 180.082031 157.046875 178.089844 156.460938 L 178.089844 132.90625 L 199.652344 132.90625 C 200.472656 133.609375 201.527344 134.078125 202.699219 134.078125 L 202.699219 141.109375 C 202.699219 142.867188 203.636719 144.390625 205.042969 145.09375 L 205.042969 155.171875 L 199.183594 155.171875 C 196.605469 155.171875 194.496094 157.28125 194.496094 159.859375 Z M 227.308594 172.75 L 199.183594 172.75 L 199.183594 159.859375 L 227.308594 159.859375 Z M 269.496094 172.75 L 241.371094 172.75 L 241.371094 159.859375 L 269.496094 159.859375 Z M 282.386719 227.828125 L 165.199219 227.828125 L 165.199219 210.25 L 282.386719 210.25 Z M 282.386719 227.828125 " fill-opacity="1" fill-rule="nonzero"/></g><path fill="#000000" d="M 292.933594 191.5 C 292.933594 186.34375 288.714844 182.125 283.558594 182.125 C 278.402344 182.125 274.183594 186.34375 274.183594 191.5 C 274.183594 196.65625 278.402344 200.875 283.558594 200.875 C 288.714844 200.875 292.933594 196.65625 292.933594 191.5 Z M 278.871094 191.5 C 278.871094 188.921875 280.980469 186.8125 283.558594 186.8125 C 286.136719 186.8125 288.246094 188.921875 288.246094 191.5 C 288.246094 194.078125 286.136719 196.1875 283.558594 196.1875 C 280.980469 196.1875 278.871094 194.078125 278.871094 191.5 Z M 278.871094 191.5 " fill-opacity="1" fill-rule="nonzero"/><path fill="#000000" d="M 269.496094 191.5 C 269.496094 186.929688 265.863281 183.296875 261.292969 183.296875 C 256.722656 183.296875 253.089844 186.929688 253.089844 191.5 C 253.089844 196.070312 256.722656 199.703125 261.292969 199.703125 C 265.863281 199.703125 269.496094 196.070312 269.496094 191.5 Z M 257.777344 191.5 C 257.777344 189.507812 259.300781 187.984375 261.292969 187.984375 C 263.285156 187.984375 264.808594 189.507812 264.808594 191.5 C 264.808594 193.492188 263.285156 195.015625 261.292969 195.015625 C 259.300781 195.015625 257.777344 193.492188 257.777344 191.5 Z M 257.777344 191.5 " fill-opacity="1" fill-rule="nonzero"/><path fill="#000000" d="M 248.402344 191.5 C 248.402344 186.929688 244.769531 183.296875 240.199219 183.296875 C 235.628906 183.296875 231.996094 186.929688 231.996094 191.5 C 231.996094 196.070312 235.628906 199.703125 240.199219 199.703125 C 244.769531 199.703125 248.402344 196.070312 248.402344 191.5 Z M 236.683594 191.5 C 236.683594 189.507812 238.207031 187.984375 240.199219 187.984375 C 242.191406 187.984375 243.714844 189.507812 243.714844 191.5 C 243.714844 193.492188 242.191406 195.015625 240.199219 195.015625 C 238.207031 195.015625 236.683594 193.492188 236.683594 191.5 Z M 236.683594 191.5 " fill-opacity="1" fill-rule="nonzero"/><path fill="#000000" d="M 227.308594 191.5 C 227.308594 186.929688 223.675781 183.296875 219.105469 183.296875 C 214.535156 183.296875 210.902344 186.929688 210.902344 191.5 C 210.902344 196.070312 214.535156 199.703125 219.105469 199.703125 C 223.675781 199.703125 227.308594 196.070312 227.308594 191.5 Z M 215.589844 191.5 C 215.589844 189.507812 217.113281 187.984375 219.105469 187.984375 C 221.097656 187.984375 222.621094 189.507812 222.621094 191.5 C 222.621094 193.492188 221.097656 195.015625 219.105469 195.015625 C 217.113281 195.015625 215.589844 193.492188 215.589844 191.5 Z M 215.589844 191.5 " fill-opacity="1" fill-rule="nonzero"/><path fill="#000000" d="M 206.214844 191.5 C 206.214844 186.929688 202.582031 183.296875 198.011719 183.296875 C 193.441406 183.296875 189.808594 186.929688 189.808594 191.5 C 189.808594 196.070312 193.441406 199.703125 198.011719 199.703125 C 202.582031 199.703125 206.214844 196.070312 206.214844 191.5 Z M 194.496094 191.5 C 194.496094 189.507812 196.019531 187.984375 198.011719 187.984375 C 200.003906 187.984375 201.527344 189.507812 201.527344 191.5 C 201.527344 193.492188 200.003906 195.015625 198.011719 195.015625 C 196.019531 195.015625 194.496094 193.492188 194.496094 191.5 Z M 194.496094 191.5 " fill-opacity="1" fill-rule="nonzero"/><path fill="#000000" d="M 185.121094 191.5 C 185.121094 186.929688 181.488281 183.296875 176.917969 183.296875 C 172.347656 183.296875 168.714844 186.929688 168.714844 191.5 C 168.714844 196.070312 172.347656 199.703125 176.917969 199.703125 C 181.488281 199.703125 185.121094 196.070312 185.121094 191.5 Z M 173.402344 191.5 C 173.402344 189.507812 174.925781 187.984375 176.917969 187.984375 C 178.910156 187.984375 180.433594 189.507812 180.433594 191.5 C 180.433594 193.492188 178.910156 195.015625 176.917969 195.015625 C 174.925781 195.015625 173.402344 193.492188 173.402344 191.5 Z M 173.402344 191.5 " fill-opacity="1" fill-rule="nonzero"/><g clip-path="url(#c1286b3d47)"><g clip-path="url(#f4e3ce440a)"><path fill="url(#9e68be3212)" d="M 295.542969 72.808594 L 212.660156 72.804688 L 212.660156 151.539062 L 295.542969 151.539062 Z M 295.542969 72.808594 " fill-rule="nonzero"/></g></g><path fill="#77b255" d="M 230.1875 80.246094 C 230.09375 80.265625 230.015625 80.316406 229.960938 80.398438 C 229.902344 80.480469 229.878906 80.574219 229.890625 80.675781 C 229.890625 80.675781 230.3125 86.332031 230.539062 92.265625 C 230.652344 95.230469 230.714844 98.261719 230.652344 100.683594 C 230.625 101.894531 230.558594 102.957031 230.460938 103.765625 C 230.359375 104.578125 230.191406 105.15625 230.09375 105.296875 C 230.03125 105.382812 230.007812 105.480469 230.019531 105.585938 C 230.035156 105.695312 230.082031 105.78125 230.160156 105.847656 C 230.242188 105.914062 230.332031 105.941406 230.433594 105.925781 C 230.535156 105.910156 230.613281 105.859375 230.675781 105.773438 C 230.96875 105.351562 231.082031 104.734375 231.1875 103.875 C 231.296875 103.019531 231.351562 101.933594 231.382812 100.707031 C 231.445312 98.253906 231.382812 95.203125 231.269531 92.226562 C 231.039062 86.273438 230.621094 80.601562 230.621094 80.601562 C 230.609375 80.484375 230.5625 80.390625 230.476562 80.320312 C 230.390625 80.25 230.292969 80.226562 230.1875 80.246094 Z M 230.1875 80.246094 " fill-opacity="1" fill-rule="nonzero"/><path fill="#77b255" d="M 242.320312 74.789062 C 242.21875 74.804688 242.140625 74.855469 242.082031 74.941406 C 242.019531 75.027344 241.996094 75.125 242.011719 75.230469 C 242.011719 75.230469 242.375 78.269531 244.085938 81.179688 C 245.800781 84.085938 248.9375 86.886719 254.269531 86.34375 C 259.800781 85.777344 262.722656 84.019531 264.371094 81.898438 C 266.023438 79.78125 266.390625 77.363281 266.960938 75.597656 C 266.992188 75.496094 266.988281 75.394531 266.941406 75.296875 C 266.898438 75.199219 266.828125 75.132812 266.730469 75.097656 C 266.636719 75.0625 266.542969 75.070312 266.453125 75.117188 C 266.359375 75.164062 266.300781 75.238281 266.265625 75.339844 C 265.664062 77.210938 265.3125 79.460938 263.800781 81.398438 C 262.292969 83.335938 259.617188 85.003906 254.199219 85.558594 C 249.125 86.078125 246.316406 83.503906 244.703125 80.761719 C 243.085938 78.019531 242.730469 75.132812 242.730469 75.132812 C 242.71875 75.023438 242.671875 74.9375 242.589844 74.871094 C 242.511719 74.800781 242.417969 74.777344 242.320312 74.789062 Z M 242.320312 74.789062 " fill-opacity="1" fill-rule="nonzero"/><path fill="#77b255" d="M 245.238281 74.496094 L 244.667969 74.972656 C 244.679688 74.996094 244.699219 75.007812 244.710938 75.03125 C 246.882812 78.816406 249.222656 80.804688 251.53125 81.578125 C 253.855469 82.359375 256.109375 81.910156 258.054688 80.992188 C 261.945312 79.15625 264.679688 75.425781 264.679688 75.425781 L 264.234375 74.835938 C 257.917969 78.296875 253.164062 78.175781 249.992188 77.222656 C 246.816406 76.269531 245.238281 74.496094 245.238281 74.496094 Z M 262.820312 76.402344 C 261.726562 77.609375 260.113281 79.175781 257.769531 80.28125 C 255.933594 81.148438 253.871094 81.546875 251.75 80.832031 C 250.035156 80.257812 248.261719 78.878906 246.527344 76.441406 C 247.351562 76.976562 248.402344 77.550781 249.796875 77.96875 C 252.828125 78.878906 257.21875 79.019531 262.820312 76.402344 Z M 262.820312 76.402344 " fill-opacity="1" fill-rule="nonzero"/><path fill="#77b255" d="M 230.871094 147.929688 C 230.769531 147.933594 230.683594 147.976562 230.617188 148.058594 C 230.546875 148.136719 230.515625 148.230469 230.519531 148.339844 C 230.523438 148.449219 230.566406 148.539062 230.640625 148.613281 C 230.714844 148.683594 230.800781 148.71875 230.902344 148.714844 L 278.078125 148.859375 C 278.179688 148.863281 278.265625 148.824219 278.339844 148.746094 C 278.410156 148.671875 278.445312 148.578125 278.445312 148.46875 C 278.445312 148.359375 278.410156 148.265625 278.339844 148.191406 C 278.265625 148.113281 278.179688 148.074219 278.078125 148.078125 L 230.902344 147.929688 C 230.890625 147.929688 230.878906 147.929688 230.871094 147.929688 Z M 230.871094 147.929688 " fill-opacity="1" fill-rule="nonzero"/><path fill="#77b255" d="M 294.203125 97.023438 C 294.117188 97.035156 294.042969 97.078125 293.984375 97.144531 L 281.726562 110.152344 C 281.65625 110.230469 281.621094 110.324219 281.621094 110.433594 C 281.625 110.542969 281.660156 110.632812 281.734375 110.710938 C 281.804688 110.785156 281.890625 110.824219 281.992188 110.820312 C 282.09375 110.820312 282.179688 110.78125 282.25 110.703125 L 294.5 97.695312 C 294.625 97.566406 294.652344 97.414062 294.578125 97.246094 C 294.503906 97.074219 294.375 97 294.203125 97.023438 Z M 294.203125 97.023438 " fill-opacity="1" fill-rule="nonzero"/><path fill="#77b255" d="M 214.839844 97.023438 C 214.683594 97.039062 214.578125 97.125 214.527344 97.285156 C 214.476562 97.441406 214.507812 97.582031 214.621094 97.695312 L 226.21875 110.140625 C 226.285156 110.230469 226.375 110.28125 226.484375 110.285156 C 226.589844 110.292969 226.683594 110.253906 226.761719 110.171875 C 226.835938 110.089844 226.871094 109.992188 226.867188 109.875 C 226.863281 109.757812 226.816406 109.664062 226.730469 109.589844 L 215.132812 97.144531 C 215.054688 97.054688 214.957031 97.011719 214.839844 97.023438 Z M 214.839844 97.023438 " fill-opacity="1" fill-rule="nonzero"/><path fill="#77b255" d="M 278.035156 80.945312 C 277.863281 80.96875 277.757812 81.078125 277.726562 81.261719 C 277.726562 81.261719 276.90625 86.109375 276.53125 91.710938 C 276.34375 94.511719 276.257812 97.507812 276.449219 100.191406 C 276.640625 102.875 277.09375 105.253906 278.035156 106.859375 C 278.085938 106.960938 278.160156 107.027344 278.265625 107.058594 C 278.367188 107.085938 278.464844 107.070312 278.554688 107.011719 C 278.644531 106.949219 278.699219 106.863281 278.71875 106.75 C 278.738281 106.636719 278.714844 106.535156 278.652344 106.445312 C 277.832031 105.042969 277.367188 102.753906 277.179688 100.128906 C 276.992188 97.503906 277.074219 94.535156 277.261719 91.761719 C 277.632812 86.207031 278.445312 81.410156 278.445312 81.410156 C 278.472656 81.277344 278.441406 81.160156 278.351562 81.0625 C 278.265625 80.964844 278.160156 80.925781 278.035156 80.945312 Z M 278.035156 80.945312 " fill-opacity="1" fill-rule="nonzero"/><g clip-path="url(#39b1ba3f06)"><path fill="#000000" d="M 131.976562 118.679688 C 132.066406 110.519531 125.558594 103.84375 117.445312 103.75 C 109.324219 103.660156 102.671875 110.195312 102.582031 118.355469 C 102.496094 126.507812 109 133.191406 117.121094 133.277344 C 125.234375 133.371094 131.890625 126.832031 131.976562 118.679688 " fill-opacity="1" fill-rule="nonzero"/></g><g clip-path="url(#1aac611ef9)"><path fill="#000000" d="M 78.78125 223.234375 L 92.089844 215.027344 L 94.761719 201.445312 C 91.703125 199.042969 89.824219 195.410156 89.664062 191.476562 C 89.621094 190.421875 89.703125 189.363281 89.910156 188.328125 L 97.546875 149.746094 C 98.949219 142.59375 105.847656 137.945312 112.960938 139.351562 C 114.171875 139.589844 115.273438 140.050781 116.351562 140.511719 C 118.253906 141.335938 119.621094 142.945312 120.605469 144.695312 L 120.640625 144.75 C 123.539062 149.949219 129.464844 157.53125 133.804688 161.59375 L 133.945312 161.722656 L 146.285156 160.507812 C 148.96875 160.238281 151.351562 162.21875 151.597656 164.917969 C 151.84375 167.605469 149.878906 169.980469 147.203125 170.226562 L 134.210938 171.425781 C 132.523438 171.585938 130.832031 171.144531 129.4375 170.183594 L 120.640625 164.144531 L 113.527344 189.078125 C 112.925781 191.242188 113.777344 193.554688 115.648438 194.804688 L 129.34375 203.96875 C 130.992188 205.121094 132.011719 206.992188 132.09375 209.007812 L 133.234375 237.261719 C 133.394531 241.082031 130.433594 244.308594 126.632812 244.460938 C 122.828125 244.617188 119.621094 241.648438 119.464844 237.828125 L 118.609375 216.742188 L 107.128906 209.414062 L 105.582031 221.496094 C 105.160156 223.316406 103.777344 224.75 101.988281 225.246094 L 82.082031 235.835938 C 78.605469 236.800781 75.023438 234.726562 74.097656 231.226562 C 73.167969 227.714844 75.5625 225.175781 78.78125 223.234375 " fill-opacity="1" fill-rule="nonzero"/></g></svg>