<svg xmlns="http://www.w3.org/2000/svg" xmlns:xlink="http://www.w3.org/1999/xlink" width="500" zoomAndPan="magnify" viewBox="0 0 375 374.999991" height="500" preserveAspectRatio="xMidYMid meet" version="1.0"><defs><clipPath id="74e863785b"><path d="M 162 235 L 259 235 L 259 258.394531 L 162 258.394531 Z M 162 235 " clip-rule="nonzero"/></clipPath><clipPath id="f8b58350bc"><path d="M 72.304688 70.144531 L 302.554688 70.144531 L 302.554688 256 L 72.304688 256 Z M 72.304688 70.144531 " clip-rule="nonzero"/></clipPath><clipPath id="bba267df1e"><path d="M 125.253906 170 L 166 170 L 166 226 L 125.253906 226 Z M 125.253906 170 " clip-rule="nonzero"/></clipPath></defs><path fill="#ffffff" d="M 203.296875 226.9375 C 204.769531 226.40625 205.539062 224.785156 205.011719 223.3125 C 204.480469 221.839844 202.859375 221.070312 201.386719 221.601562 C 196.515625 223.34375 191.394531 224.226562 186.167969 224.226562 C 170.125 224.226562 155.144531 215.597656 147.078125 201.703125 C 146.292969 200.351562 144.558594 199.890625 143.207031 200.675781 C 143.117188 200.726562 138.546875 203.386719 138.546875 203.386719 L 139.070312 193.597656 L 152.472656 200.40625 C 153.867188 201.113281 155.574219 200.554688 156.28125 199.160156 C 156.992188 197.765625 156.433594 196.058594 155.039062 195.351562 L 137.757812 186.574219 C 136.90625 186.140625 135.886719 186.167969 135.058594 186.644531 C 134.230469 187.125 133.695312 187.992188 133.644531 188.949219 L 132.605469 208.304688 C 132.550781 209.34375 133.066406 210.328125 133.953125 210.871094 C 134.40625 211.152344 134.921875 211.289062 135.433594 211.289062 C 135.925781 211.289062 136.414062 211.164062 136.851562 210.910156 L 143.679688 206.96875 C 147.960938 213.476562 153.703125 218.949219 160.425781 222.90625 C 168.199219 227.480469 177.101562 229.898438 186.167969 229.898438 C 192.046875 229.894531 197.8125 228.898438 203.296875 226.9375 Z M 203.296875 226.9375 " fill-opacity="1" fill-rule="nonzero"/><path fill="#ffffff" d="M 218.960938 140.207031 C 217.777344 139.207031 216.011719 139.34375 214.996094 140.511719 C 213.957031 141.703125 214.144531 143.554688 215.347656 144.574219 C 225.507812 153.183594 231.332031 165.746094 231.332031 179.054688 C 231.332031 186.992188 229.246094 194.796875 225.300781 201.628906 L 225.296875 201.628906 C 224.9375 202.304688 224.832031 203.09375 225.046875 203.824219 C 225.253906 204.515625 225.710938 205.140625 226.371094 205.519531 L 231.003906 208.195312 L 222.265625 212.636719 L 221.457031 197.625 C 221.375 196.0625 220.035156 194.863281 218.476562 194.945312 C 216.914062 195.03125 215.714844 196.367188 215.796875 197.929688 L 216.839844 217.285156 C 216.890625 218.242188 217.421875 219.109375 218.25 219.585938 C 218.6875 219.839844 219.179688 219.964844 219.667969 219.964844 C 220.109375 219.964844 220.546875 219.863281 220.953125 219.660156 L 238.230469 210.882812 C 239.160156 210.410156 239.753906 209.46875 239.78125 208.429688 C 239.808594 207.390625 239.265625 206.421875 238.367188 205.898438 L 231.554688 201.96875 C 235.125 194.898438 237 187.035156 237 179.054688 C 237 164.058594 230.425781 149.898438 218.960938 140.207031 Z M 218.960938 140.207031 " fill-opacity="1" fill-rule="nonzero"/><path fill="#ffffff" d="M 183.792969 143.175781 C 184.335938 144.007812 185.242188 144.460938 186.171875 144.460938 C 186.703125 144.460938 187.238281 144.3125 187.714844 144.003906 L 203.953125 133.425781 C 204.757812 132.902344 205.242188 132.007812 205.242188 131.050781 C 205.242188 130.09375 204.757812 129.199219 203.953125 128.675781 L 187.714844 118.097656 C 186.84375 117.53125 185.730469 117.484375 184.816406 117.980469 C 183.902344 118.476562 183.335938 119.433594 183.335938 120.472656 L 183.335938 128.292969 C 178.4375 128.5625 173.644531 129.527344 169.042969 131.175781 C 163.738281 133.074219 158.8125 135.828125 154.402344 139.363281 C 150.03125 142.867188 146.289062 147.035156 143.28125 151.753906 C 140.214844 156.558594 138 161.796875 136.695312 167.328125 C 136.335938 168.851562 137.277344 170.378906 138.800781 170.738281 C 139.019531 170.789062 139.238281 170.816406 139.453125 170.816406 C 140.738281 170.816406 141.902344 169.9375 142.210938 168.632812 C 147.042969 148.171875 165.117188 133.886719 186.167969 133.886719 C 187.730469 133.886719 189 132.617188 189 131.050781 L 189 125.699219 L 197.214844 131.050781 L 184.621094 139.253906 C 183.308594 140.109375 182.9375 141.863281 183.792969 143.175781 Z M 183.792969 143.175781 " fill-opacity="1" fill-rule="nonzero"/><path fill="#ffffff" d="M 263.410156 183.535156 L 263.410156 150.589844 L 269.570312 162.550781 C 270.050781 163.492188 271.011719 164.078125 272.070312 164.078125 C 272.511719 164.078125 272.957031 163.96875 273.355469 163.765625 C 274.019531 163.421875 274.515625 162.839844 274.742188 162.121094 C 274.972656 161.40625 274.910156 160.644531 274.566406 159.980469 L 263.097656 137.707031 C 262.386719 136.332031 260.6875 135.789062 259.3125 136.496094 C 258.425781 136.953125 257.84375 137.859375 257.792969 138.859375 C 257.789062 138.902344 257.789062 138.945312 257.789062 138.984375 L 257.789062 183.535156 C 257.789062 185.085938 259.046875 186.34375 260.597656 186.34375 C 262.148438 186.347656 263.410156 185.085938 263.410156 183.535156 Z M 263.410156 183.535156 " fill-opacity="1" fill-rule="nonzero"/><g clip-path="url(#74e863785b)"><path fill="#ffffff" d="M 255.328125 252.746094 L 168.0625 252.703125 L 168.0625 238.503906 C 168.0625 236.953125 166.800781 235.691406 165.25 235.691406 C 163.699219 235.691406 162.441406 236.953125 162.441406 238.503906 L 162.441406 255.515625 C 162.441406 257.0625 163.699219 258.324219 165.25 258.324219 L 255.328125 258.367188 C 256.878906 258.367188 258.140625 257.105469 258.140625 255.554688 C 258.140625 254.003906 256.878906 252.746094 255.328125 252.746094 Z M 255.328125 252.746094 " fill-opacity="1" fill-rule="nonzero"/></g><g clip-path="url(#f8b58350bc)"><path fill="#ffffff" d="M 302.300781 130.082031 C 302.285156 130.046875 302.265625 130.011719 302.246094 129.972656 L 289.589844 105.394531 C 287.765625 101.851562 285.105469 98.734375 281.894531 96.378906 C 278.679688 94.019531 274.910156 92.417969 270.992188 91.742188 L 245.179688 85.515625 C 245.507812 84.734375 245.464844 83.839844 245.058594 83.089844 L 238.851562 71.652344 C 238.390625 70.800781 237.5 70.238281 236.53125 70.1875 L 236.507812 70.1875 C 236.476562 70.183594 236.441406 70.183594 236.402344 70.183594 L 189.472656 70.183594 C 189.457031 70.183594 189.445312 70.183594 189.433594 70.183594 L 189.394531 70.183594 C 189.371094 70.183594 189.34375 70.1875 189.316406 70.1875 C 188.351562 70.238281 187.460938 70.800781 187 71.652344 L 180.792969 83.089844 C 180.386719 83.839844 180.34375 84.734375 180.667969 85.515625 L 154.867188 91.699219 C 150.941406 92.378906 147.167969 93.980469 143.957031 96.335938 C 140.746094 98.695312 138.082031 101.8125 136.257812 105.355469 L 95.792969 183.925781 C 95.765625 183.980469 95.742188 184.035156 95.714844 184.09375 L 80.261719 219.648438 L 72.714844 234.296875 C 72.371094 234.964844 72.308594 235.726562 72.539062 236.441406 C 72.765625 237.15625 73.261719 237.738281 73.929688 238.082031 L 103.492188 253.3125 C 104.148438 253.652344 104.9375 253.71875 105.636719 253.492188 C 106.351562 253.261719 106.933594 252.769531 107.277344 252.101562 L 114.820312 237.460938 L 126.71875 217.65625 C 127.496094 216.367188 127.121094 214.703125 125.871094 213.871094 C 125.226562 213.441406 124.453125 213.296875 123.695312 213.464844 C 122.9375 213.636719 122.300781 214.097656 121.902344 214.761719 L 111.3125 232.382812 L 86.425781 219.5625 L 100.832031 186.421875 L 141.253906 107.929688 C 144.148438 102.308594 149.59375 98.3125 155.832031 97.238281 L 183.257812 90.769531 L 192.757812 110.019531 C 193.144531 110.796875 193.847656 111.34375 194.699219 111.523438 C 194.890625 111.566406 195.085938 111.585938 195.28125 111.585938 C 195.9375 111.585938 196.574219 111.355469 197.078125 110.933594 L 209.105469 100.914062 C 210.230469 99.976562 210.449219 98.359375 209.617188 97.15625 L 204.210938 89.34375 L 221.640625 89.34375 L 216.234375 97.15625 C 215.398438 98.359375 215.617188 99.976562 216.746094 100.914062 L 228.769531 110.933594 C 229.273438 111.355469 229.914062 111.585938 230.570312 111.585938 C 230.765625 111.585938 230.960938 111.566406 231.152344 111.523438 C 232 111.34375 232.707031 110.796875 233.089844 110.019531 L 242.59375 90.765625 L 270.027344 97.28125 C 276.253906 98.355469 281.699219 102.351562 284.59375 107.96875 L 296.589844 131.257812 L 268.324219 186.140625 C 268.296875 186.195312 268.269531 186.25 268.246094 186.308594 L 252.792969 221.863281 L 245.246094 236.511719 C 244.902344 237.179688 244.839844 237.941406 245.070312 238.65625 C 245.296875 239.371094 245.792969 239.953125 246.457031 240.296875 L 276.023438 255.527344 C 276.421875 255.730469 276.867188 255.839844 277.3125 255.839844 C 277.601562 255.839844 277.890625 255.792969 278.167969 255.707031 C 278.882812 255.476562 279.464844 254.984375 279.808594 254.316406 L 287.351562 239.675781 L 301.761719 215.691406 C 302.023438 215.257812 302.160156 214.761719 302.164062 214.257812 L 302.5625 131.273438 C 302.5625 130.859375 302.472656 130.460938 302.300781 130.082031 Z M 108.582031 237.296875 L 103.570312 247.03125 L 79 234.375 L 84.011719 224.640625 Z M 196.222656 104.332031 L 186.425781 84.492188 L 189.761719 78.347656 L 203.53125 98.242188 Z M 200.316406 83.726562 L 194.832031 75.804688 L 231.015625 75.804688 L 225.53125 83.726562 Z M 229.628906 104.332031 L 222.316406 98.242188 L 236.089844 78.347656 L 239.421875 84.492188 Z M 276.097656 249.242188 L 251.53125 236.585938 L 256.542969 226.855469 L 281.109375 239.511719 Z M 296.546875 213.460938 L 283.84375 234.597656 L 258.957031 221.777344 L 273.363281 188.636719 L 296.882812 142.964844 Z M 296.546875 213.460938 " fill-opacity="1" fill-rule="nonzero"/></g><path fill="#77b255" d="M 230.414062 214.738281 C 229.191406 214.738281 228.003906 214.101562 227.359375 212.964844 L 212.464844 188.429688 C 211.5 186.746094 211.878906 184.636719 213.5625 183.667969 L 231 173.117188 C 231.546875 172.804688 232.742188 172.535156 233.332031 172.535156 C 234.558594 172.535156 235.695312 173.230469 236.34375 174.367188 L 247.273438 192.378906 L 247.847656 200.230469 C 248.8125 201.914062 244.480469 204.394531 242.789062 205.355469 L 232.152344 214.273438 C 231.605469 214.589844 231.003906 214.738281 230.414062 214.738281 Z M 230.414062 214.738281 " fill-opacity="1" fill-rule="nonzero"/><path fill="#7ed957" d="M 205.792969 225.289062 C 203.847656 225.289062 202.277344 223.714844 202.277344 221.769531 L 202.277344 200.667969 C 202.277344 198.722656 203.847656 197.152344 205.792969 197.152344 L 240.960938 197.152344 C 247.46875 197.152344 246.414062 190.886719 246.414062 190.886719 C 246.414062 190.886719 247.5625 192.863281 247.730469 193.179688 C 248.882812 195.335938 249.644531 198.636719 247.851562 201.988281 L 236.988281 223.519531 C 236.476562 224.535156 235.261719 225.289062 233.929688 225.289062 Z M 205.792969 225.289062 " fill-opacity="1" fill-rule="nonzero"/><path fill="#7ed957" d="M 202.277344 235.839844 C 201.359375 235.839844 200.460938 235.480469 199.789062 234.808594 L 178.6875 213.707031 C 177.3125 212.332031 177.3125 210.109375 178.6875 208.734375 L 199.789062 187.632812 C 200.460938 186.960938 201.359375 186.601562 202.277344 186.601562 C 202.730469 186.601562 203.1875 186.6875 203.621094 186.867188 C 204.9375 187.410156 205.792969 188.699219 205.792969 190.117188 L 205.792969 232.320312 C 205.792969 233.742188 204.9375 235.03125 203.621094 235.570312 C 203.1875 235.753906 202.730469 235.839844 202.277344 235.839844 Z M 202.277344 235.839844 " fill-opacity="1" fill-rule="nonzero"/><path fill="#77b255" d="M 197.328125 124.347656 C 197.882812 125.4375 197.855469 126.78125 197.136719 127.878906 L 182.039062 152.285156 C 180.972656 153.914062 178.921875 154.535156 177.296875 153.46875 L 159.980469 142.726562 C 159.453125 142.378906 158.664062 141.4375 158.398438 140.914062 C 157.84375 139.824219 157.945312 138.492188 158.660156 137.394531 L 169.746094 119.480469 L 176.480469 115.402344 C 177.542969 113.777344 181.71875 116.511719 183.347656 117.582031 L 196.117188 123.011719 C 196.652344 123.359375 197.058594 123.828125 197.328125 124.347656 Z M 197.328125 124.347656 " fill-opacity="1" fill-rule="nonzero"/><path fill="#7ed957" d="M 217.90625 141.496094 C 218.789062 143.230469 218.105469 145.34375 216.367188 146.230469 L 197.5625 155.808594 C 195.832031 156.691406 193.714844 156.003906 192.835938 154.273438 L 176.863281 122.9375 C 173.910156 117.136719 168.808594 120.921875 168.808594 120.921875 C 168.808594 120.921875 170.046875 119 170.25 118.707031 C 171.652344 116.703125 174.242188 114.527344 178.042969 114.601562 L 202.167969 114.503906 C 203.304688 114.503906 204.527344 115.238281 205.136719 116.425781 Z M 217.90625 141.496094 " fill-opacity="1" fill-rule="nonzero"/><path fill="#7ed957" d="M 228.902344 139.84375 C 229.316406 140.65625 229.40625 141.621094 229.113281 142.523438 L 219.894531 170.910156 C 219.296875 172.753906 217.3125 173.765625 215.464844 173.167969 L 187.082031 163.941406 C 186.175781 163.648438 185.449219 163.007812 185.03125 162.195312 C 184.824219 161.796875 184.695312 161.347656 184.65625 160.875 C 184.542969 159.453125 185.304688 158.109375 186.570312 157.46875 L 224.171875 138.304688 C 225.4375 137.660156 226.96875 137.835938 228.050781 138.761719 C 228.414062 139.066406 228.699219 139.4375 228.902344 139.84375 Z M 228.902344 139.84375 " fill-opacity="1" fill-rule="nonzero"/><path fill="#77b255" d="M 136.773438 199.058594 C 137.410156 198.015625 138.566406 197.335938 139.875 197.375 L 168.578125 197.390625 C 170.519531 197.449219 172.125 198.867188 172.074219 200.808594 L 172.027344 221.191406 C 172.007812 221.824219 171.617188 222.992188 171.3125 223.492188 C 170.675781 224.535156 169.488281 225.152344 168.179688 225.113281 L 147.113281 225.082031 L 140.101562 221.5 C 138.164062 221.441406 138.300781 216.453125 138.347656 214.515625 L 136.261719 200.785156 C 136.277344 200.15625 136.464844 199.5625 136.773438 199.058594 Z M 136.773438 199.058594 " fill-opacity="1" fill-rule="nonzero"/><g clip-path="url(#bba267df1e)"><path fill="#7ed957" d="M 140.558594 172.539062 C 141.566406 170.878906 143.730469 170.351562 145.390625 171.363281 L 163.417969 182.332031 C 165.082031 183.339844 165.605469 185.5 164.59375 187.164062 L 146.316406 217.210938 C 142.941406 222.765625 148.839844 225.121094 148.839844 225.121094 C 148.839844 225.121094 146.554688 225.074219 146.199219 225.050781 C 143.75 224.917969 140.539062 223.851562 138.605469 220.582031 L 125.851562 200.113281 C 125.25 199.144531 125.242188 197.714844 125.933594 196.574219 Z M 140.558594 172.539062 " fill-opacity="1" fill-rule="nonzero"/></g><path fill="#7ed957" d="M 133.367188 164.054688 C 133.847656 163.265625 134.617188 162.691406 135.542969 162.457031 L 164.539062 155.402344 C 166.425781 154.9375 168.328125 156.09375 168.789062 157.984375 L 175.847656 186.976562 C 176.070312 187.90625 175.90625 188.855469 175.429688 189.640625 C 175.199219 190.023438 174.886719 190.371094 174.503906 190.652344 C 173.355469 191.488281 171.816406 191.554688 170.597656 190.816406 L 134.550781 168.886719 C 133.332031 168.144531 132.683594 166.746094 132.898438 165.339844 C 132.96875 164.871094 133.132812 164.441406 133.367188 164.054688 Z M 133.367188 164.054688 " fill-opacity="1" fill-rule="nonzero"/></svg>