<svg xmlns="http://www.w3.org/2000/svg" xmlns:xlink="http://www.w3.org/1999/xlink" width="500" zoomAndPan="magnify" viewBox="0 0 375 374.999991" height="500" preserveAspectRatio="xMidYMid meet" version="1.0"><defs><g/><clipPath id="0a6e8dff1f"><path d="M 52 211 L 174 211 L 174 257.25 L 52 257.25 Z M 52 211 " clip-rule="nonzero"/></clipPath><clipPath id="34975adfde"><path d="M 39.75 190 L 186.75 190 L 186.75 209 L 39.75 209 Z M 39.75 190 " clip-rule="nonzero"/></clipPath><clipPath id="2c7d4d06f3"><path d="M 47 107.25 L 179 107.25 L 179 135 L 47 135 Z M 47 107.25 " clip-rule="nonzero"/></clipPath><clipPath id="6271901151"><path d="M 178 138 L 293 138 L 293 287.25 L 178 287.25 Z M 178 138 " clip-rule="nonzero"/></clipPath><clipPath id="f72e46eb34"><path d="M 256.070312 144.769531 L 339.320312 144.769531 L 339.320312 223.519531 L 256.070312 223.519531 Z M 256.070312 144.769531 " clip-rule="nonzero"/></clipPath><clipPath id="26e0f213d2"><path d="M 256.253906 170.679688 L 268.503906 184.347656 L 270.199219 184.347656 L 273.324219 181.074219 L 273.324219 222.078125 L 273.847656 223.5 L 321.152344 223.359375 L 322.585938 222.363281 L 322.195312 181.5 L 325.714844 184.917969 L 327.148438 184.632812 L 339.136719 171.25 L 339.136719 169.257812 L 323.367188 152.171875 L 306.949219 144.769531 C 306.949219 144.769531 300.953125 151.746094 289.09375 145.054688 L 273.457031 151.035156 Z M 256.253906 170.679688 " clip-rule="nonzero"/></clipPath><radialGradient gradientTransform="matrix(0, 1.174826, -0.825174, -0.0000187732, 653.635369, -22.248659)" gradientUnits="userSpaceOnUse" r="66.008513" cx="175.679777" id="4accecf788" cy="431.352104" fx="175.679777" fy="431.352104"><stop stop-opacity="1" stop-color="rgb(49.398804%, 85.099792%, 34.098816%)" offset="0"/><stop stop-opacity="1" stop-color="rgb(49.398804%, 85.099792%, 34.098816%)" offset="1"/></radialGradient><clipPath id="e2a85f47f3"><path d="M 40.878906 72.214844 L 185.621094 72.214844 L 185.621094 107.25 L 40.878906 107.25 Z M 40.878906 72.214844 " clip-rule="nonzero"/></clipPath><clipPath id="2a6ae7c06e"><path d="M 185.621094 72.214844 L 40.878906 72.214844 L 54.941406 89.734375 L 40.878906 107.25 L 185.621094 107.25 L 171.558594 89.734375 Z M 185.621094 72.214844 " clip-rule="nonzero"/></clipPath></defs><g clip-path="url(#0a6e8dff1f)"><path fill="#ffffff" d="M 172.089844 257.183594 L 54.40625 257.183594 C 53.4375 257.183594 52.652344 256.394531 52.652344 255.425781 L 52.652344 211.851562 L 71.019531 211.851562 L 71.019531 236.71875 C 71.019531 237.691406 71.804688 238.472656 72.773438 238.472656 C 73.746094 238.472656 74.53125 237.691406 74.53125 236.71875 L 74.53125 211.851562 L 98.003906 211.851562 L 98.003906 246.363281 C 98.003906 247.332031 98.789062 248.121094 99.757812 248.121094 C 100.730469 248.121094 101.511719 247.332031 101.511719 246.363281 L 101.511719 211.851562 L 124.984375 211.851562 L 124.984375 233.503906 C 124.984375 234.472656 125.769531 235.257812 126.742188 235.257812 C 127.710938 235.257812 128.496094 234.472656 128.496094 233.503906 L 128.496094 211.851562 L 151.96875 211.851562 L 151.96875 237.851562 C 151.96875 238.824219 152.753906 239.609375 153.726562 239.609375 C 154.695312 239.609375 155.480469 238.824219 155.480469 237.851562 L 155.480469 211.851562 L 173.847656 211.851562 L 173.847656 255.425781 C 173.847656 256.394531 173.0625 257.183594 172.089844 257.183594 Z M 172.089844 257.183594 " fill-opacity="1" fill-rule="evenodd"/></g><g clip-path="url(#34975adfde)"><path fill="#ffffff" d="M 184.988281 208.335938 L 41.511719 208.335938 C 40.539062 208.335938 39.753906 207.546875 39.753906 206.578125 L 39.753906 192.554688 C 39.753906 191.582031 40.539062 190.796875 41.511719 190.796875 L 184.988281 190.796875 C 185.960938 190.796875 186.746094 191.582031 186.746094 192.554688 L 186.746094 206.578125 C 186.746094 207.546875 185.960938 208.335938 184.988281 208.335938 Z M 184.988281 208.335938 " fill-opacity="1" fill-rule="evenodd"/></g><path fill="#ffffff" d="M 172.007812 194.308594 L 54.492188 194.308594 C 53.523438 194.308594 52.738281 193.523438 52.738281 192.554688 L 52.738281 148.824219 C 52.738281 147.855469 53.523438 147.066406 54.492188 147.066406 C 55.464844 147.066406 56.25 147.855469 56.25 148.824219 L 56.25 190.796875 L 170.25 190.796875 L 170.25 148.824219 C 170.25 147.855469 171.035156 147.066406 172.007812 147.066406 C 172.976562 147.066406 173.761719 147.855469 173.761719 148.824219 L 173.761719 192.554688 C 173.761719 193.523438 172.976562 194.308594 172.007812 194.308594 Z M 172.007812 194.308594 " fill-opacity="1" fill-rule="evenodd"/><g clip-path="url(#2c7d4d06f3)"><path fill="#ffffff" d="M 47.59375 134.179688 L 56.492188 108.472656 C 56.734375 107.765625 57.402344 107.289062 58.148438 107.289062 L 77.183594 107.289062 L 70.238281 133.972656 Z M 80.8125 107.289062 L 100.058594 107.289062 L 97.816406 133.71875 L 73.875 133.9375 Z M 103.582031 107.289062 L 121.964844 107.289062 L 124.25 133.476562 L 101.34375 133.683594 Z M 125.492188 107.289062 L 143.539062 107.289062 L 151.304688 133.226562 L 127.777344 133.441406 Z M 147.207031 107.289062 L 167.503906 107.289062 C 168.230469 107.289062 168.875 107.734375 169.140625 108.410156 L 178.695312 132.976562 L 154.960938 133.195312 Z M 147.207031 107.289062 " fill-opacity="1" fill-rule="evenodd"/></g><path fill="#ffffff" d="M 61.234375 152.464844 C 53.097656 152.464844 46.476562 145.84375 46.476562 137.703125 L 179.972656 136.476562 C 180.007812 136.917969 180.023438 137.320312 180.023438 137.703125 C 180.023438 145.84375 173.398438 152.464844 165.261719 152.464844 C 159.644531 152.464844 154.753906 149.3125 152.261719 144.679688 C 149.765625 149.3125 144.871094 152.464844 139.257812 152.464844 C 133.640625 152.464844 128.746094 149.3125 126.25 144.679688 C 123.757812 149.3125 118.867188 152.464844 113.25 152.464844 C 107.632812 152.464844 102.742188 149.3125 100.246094 144.679688 C 97.753906 149.3125 92.859375 152.464844 87.242188 152.464844 C 81.628906 152.464844 76.734375 149.3125 74.238281 144.679688 C 71.746094 149.3125 66.851562 152.464844 61.234375 152.464844 Z M 61.234375 152.464844 " fill-opacity="1" fill-rule="evenodd"/><g clip-path="url(#6271901151)"><path fill="#ffffff" d="M 236.019531 168.042969 C 243.175781 168.042969 248.957031 162.230469 248.957031 155.074219 C 248.957031 147.921875 243.144531 142.109375 236.019531 142.109375 C 228.898438 142.109375 223.054688 147.921875 223.054688 155.074219 C 223.054688 162.230469 228.867188 168.042969 236.019531 168.042969 Z M 289.113281 139.125 C 285.953125 137.25 281.867188 138.292969 279.988281 141.453125 L 265.53125 165.867188 L 237.542969 172.273438 L 204.601562 169.414062 L 191.160156 146.371094 C 189.308594 143.210938 185.226562 142.136719 182.066406 143.984375 C 178.90625 145.832031 177.832031 149.917969 179.683594 153.078125 L 194.855469 179.101562 C 195.929688 180.980469 197.867188 182.171875 200.011719 182.378906 L 221.535156 184.257812 L 225.945312 220.566406 L 217.628906 234.902344 C 216.289062 237.230469 216.109375 240.03125 217.152344 242.503906 L 229.613281 271.777344 C 230.984375 275.027344 234.144531 276.964844 237.453125 276.964844 C 238.554688 276.964844 239.6875 276.757812 240.789062 276.277344 C 245.113281 274.429688 247.140625 269.421875 245.292969 265.101562 L 234.5 239.761719 L 242.132812 226.648438 C 242.460938 226.050781 242.699219 225.425781 242.90625 224.796875 L 252.386719 280.183594 C 253.101562 284.328125 256.710938 287.25 260.761719 287.25 C 261.238281 287.25 261.71875 287.21875 262.222656 287.128906 C 266.84375 286.324219 269.972656 281.941406 269.167969 277.292969 L 259.453125 220.535156 L 254.324219 182.082031 L 271.316406 178.175781 C 273.074219 177.757812 274.625 176.65625 275.546875 175.078125 L 291.464844 148.21875 C 293.316406 145.089844 292.269531 141.003906 289.113281 139.125 Z M 289.113281 139.125 " fill-opacity="1" fill-rule="nonzero"/></g><g clip-path="url(#f72e46eb34)"><g clip-path="url(#26e0f213d2)"><path fill="url(#4accecf788)" d="M 339.136719 144.769531 L 256.253906 144.765625 L 256.253906 223.5 L 339.136719 223.503906 Z M 339.136719 144.769531 " fill-rule="nonzero"/></g></g><path fill="#77b255" d="M 273.78125 152.210938 C 273.6875 152.230469 273.609375 152.28125 273.554688 152.363281 C 273.496094 152.445312 273.472656 152.535156 273.484375 152.636719 C 273.484375 152.636719 273.90625 158.292969 274.132812 164.226562 C 274.246094 167.195312 274.308594 170.222656 274.246094 172.644531 C 274.21875 173.855469 274.152344 174.917969 274.054688 175.730469 C 273.953125 176.539062 273.785156 177.121094 273.6875 177.257812 C 273.625 177.34375 273.601562 177.441406 273.613281 177.550781 C 273.628906 177.65625 273.675781 177.746094 273.753906 177.8125 C 273.835938 177.878906 273.925781 177.902344 274.027344 177.886719 C 274.128906 177.875 274.210938 177.824219 274.269531 177.734375 C 274.5625 177.316406 274.675781 176.695312 274.785156 175.839844 C 274.890625 174.984375 274.945312 173.898438 274.976562 172.667969 C 275.039062 170.214844 274.976562 167.167969 274.863281 164.191406 C 274.636719 158.238281 274.214844 152.566406 274.214844 152.566406 C 274.203125 152.449219 274.15625 152.355469 274.070312 152.285156 C 273.984375 152.210938 273.886719 152.1875 273.78125 152.210938 Z M 273.78125 152.210938 " fill-opacity="1" fill-rule="nonzero"/><path fill="#77b255" d="M 285.914062 146.753906 C 285.8125 146.769531 285.734375 146.820312 285.675781 146.90625 C 285.613281 146.992188 285.589844 147.085938 285.605469 147.195312 C 285.605469 147.195312 285.96875 150.234375 287.679688 153.140625 C 289.394531 156.046875 292.53125 158.851562 297.863281 158.304688 C 303.394531 157.738281 306.316406 155.980469 307.964844 153.863281 C 309.617188 151.742188 309.984375 149.328125 310.554688 147.5625 C 310.585938 147.457031 310.582031 147.359375 310.535156 147.261719 C 310.492188 147.164062 310.421875 147.097656 310.328125 147.0625 C 310.230469 147.027344 310.136719 147.03125 310.046875 147.078125 C 309.957031 147.125 309.894531 147.203125 309.859375 147.304688 C 309.257812 149.171875 308.90625 151.425781 307.394531 153.359375 C 305.886719 155.296875 303.210938 156.96875 297.796875 157.523438 C 292.71875 158.039062 289.910156 155.46875 288.296875 152.726562 C 286.679688 149.980469 286.324219 147.097656 286.324219 147.097656 C 286.3125 146.988281 286.265625 146.898438 286.183594 146.832031 C 286.105469 146.765625 286.015625 146.738281 285.914062 146.753906 Z M 285.914062 146.753906 " fill-opacity="1" fill-rule="nonzero"/><path fill="#77b255" d="M 288.832031 146.457031 L 288.261719 146.933594 C 288.273438 146.957031 288.292969 146.972656 288.304688 146.996094 C 290.476562 150.78125 292.816406 152.765625 295.125 153.542969 C 297.449219 154.324219 299.703125 153.871094 301.648438 152.957031 C 305.539062 151.121094 308.273438 147.386719 308.273438 147.386719 L 307.828125 146.800781 C 301.511719 150.257812 296.761719 150.140625 293.585938 149.1875 C 290.410156 148.234375 288.832031 146.457031 288.832031 146.457031 Z M 306.414062 148.367188 C 305.320312 149.574219 303.707031 151.140625 301.363281 152.246094 C 299.527344 153.109375 297.464844 153.507812 295.34375 152.796875 C 293.628906 152.21875 291.855469 150.84375 290.121094 148.402344 C 290.945312 148.9375 291.996094 149.511719 293.390625 149.933594 C 296.425781 150.84375 300.8125 150.980469 306.414062 148.367188 Z M 306.414062 148.367188 " fill-opacity="1" fill-rule="nonzero"/><path fill="#77b255" d="M 274.464844 219.894531 C 274.363281 219.898438 274.277344 219.941406 274.210938 220.019531 C 274.140625 220.101562 274.109375 220.195312 274.113281 220.300781 C 274.121094 220.410156 274.160156 220.5 274.234375 220.574219 C 274.308594 220.648438 274.398438 220.679688 274.496094 220.675781 L 321.671875 220.824219 C 321.773438 220.824219 321.859375 220.785156 321.933594 220.710938 C 322.003906 220.632812 322.039062 220.539062 322.039062 220.429688 C 322.039062 220.320312 322.003906 220.230469 321.933594 220.152344 C 321.859375 220.074219 321.773438 220.039062 321.671875 220.039062 L 274.496094 219.894531 C 274.484375 219.890625 274.476562 219.890625 274.464844 219.894531 Z M 274.464844 219.894531 " fill-opacity="1" fill-rule="nonzero"/><path fill="#77b255" d="M 337.796875 168.984375 C 337.710938 169 337.636719 169.039062 337.578125 169.109375 L 325.320312 182.117188 C 325.25 182.195312 325.214844 182.285156 325.214844 182.394531 C 325.21875 182.503906 325.253906 182.597656 325.328125 182.671875 C 325.398438 182.75 325.484375 182.785156 325.585938 182.785156 C 325.6875 182.785156 325.773438 182.746094 325.84375 182.667969 L 338.09375 169.660156 C 338.21875 169.527344 338.246094 169.378906 338.171875 169.207031 C 338.097656 169.035156 337.972656 168.960938 337.796875 168.984375 Z M 337.796875 168.984375 " fill-opacity="1" fill-rule="nonzero"/><path fill="#77b255" d="M 258.433594 168.984375 C 258.277344 169.003906 258.171875 169.089844 258.121094 169.246094 C 258.070312 169.40625 258.101562 169.542969 258.214844 169.660156 L 269.8125 182.105469 C 269.878906 182.195312 269.96875 182.242188 270.078125 182.25 C 270.183594 182.253906 270.277344 182.21875 270.355469 182.136719 C 270.429688 182.050781 270.46875 181.953125 270.460938 181.835938 C 270.457031 181.71875 270.410156 181.625 270.324219 181.554688 L 258.730469 169.109375 C 258.648438 169.015625 258.550781 168.976562 258.433594 168.984375 Z M 258.433594 168.984375 " fill-opacity="1" fill-rule="nonzero"/><path fill="#77b255" d="M 321.628906 152.90625 C 321.457031 152.933594 321.351562 153.039062 321.320312 153.226562 C 321.320312 153.226562 320.5 158.074219 320.125 163.675781 C 319.9375 166.476562 319.851562 169.46875 320.042969 172.15625 C 320.234375 174.839844 320.691406 177.21875 321.628906 178.824219 C 321.679688 178.925781 321.753906 178.988281 321.859375 179.019531 C 321.960938 179.050781 322.058594 179.035156 322.148438 178.972656 C 322.238281 178.910156 322.292969 178.824219 322.3125 178.714844 C 322.332031 178.601562 322.308594 178.5 322.246094 178.40625 C 321.425781 177.007812 320.960938 174.71875 320.773438 172.09375 C 320.585938 169.46875 320.667969 166.5 320.855469 163.722656 C 321.226562 158.171875 322.039062 153.371094 322.039062 153.371094 C 322.066406 153.238281 322.035156 153.121094 321.945312 153.023438 C 321.859375 152.925781 321.753906 152.886719 321.628906 152.90625 Z M 321.628906 152.90625 " fill-opacity="1" fill-rule="nonzero"/><g clip-path="url(#e2a85f47f3)"><g clip-path="url(#2a6ae7c06e)"><path fill="#ff5757" d="M 40.878906 72.214844 L 185.621094 72.214844 L 185.621094 107.25 L 40.878906 107.25 Z M 40.878906 72.214844 " fill-opacity="1" fill-rule="nonzero"/></g></g><g fill="#ffffff" fill-opacity="1"><g transform="translate(59.604371, 93.964535)"><g><path d="M 0.46875 -4.625 L 0.46875 -6.5 L 7.65625 -6.5 L 7.65625 -4.625 Z M 0.46875 -4.625 "/></g></g></g><g fill="#ffffff" fill-opacity="1"><g transform="translate(67.727387, 93.964535)"><g><path d="M 7.390625 0.25 C 5.847656 0.25 4.597656 0.101562 3.640625 -0.1875 C 2.679688 -0.476562 1.960938 -0.867188 1.484375 -1.359375 C 1.003906 -1.847656 0.71875 -2.40625 0.625 -3.03125 L 5.34375 -3.03125 C 5.5 -2.300781 6.179688 -1.9375 7.390625 -1.9375 C 8.023438 -1.9375 8.488281 -2.023438 8.78125 -2.203125 C 9.082031 -2.378906 9.269531 -2.59375 9.34375 -2.84375 C 9.425781 -3.09375 9.46875 -3.332031 9.46875 -3.5625 C 9.46875 -3.78125 9.425781 -4.015625 9.34375 -4.265625 C 9.269531 -4.523438 9.082031 -4.742188 8.78125 -4.921875 C 8.488281 -5.097656 8.023438 -5.1875 7.390625 -5.1875 C 6.898438 -5.1875 6.515625 -5.128906 6.234375 -5.015625 C 5.953125 -4.910156 5.742188 -4.773438 5.609375 -4.609375 C 5.472656 -4.453125 5.382812 -4.28125 5.34375 -4.09375 L 0.625 -4.09375 C 0.644531 -4.238281 0.679688 -4.382812 0.734375 -4.53125 L 2.25 -11.203125 L 13.1875 -11.203125 L 13.1875 -8.4375 L 5.234375 -8.4375 L 5.03125 -7.203125 C 5.71875 -7.304688 6.503906 -7.359375 7.390625 -7.359375 C 9.066406 -7.359375 10.398438 -7.1875 11.390625 -6.84375 C 12.390625 -6.5 13.101562 -6.039062 13.53125 -5.46875 C 13.957031 -4.894531 14.171875 -4.257812 14.171875 -3.5625 C 14.171875 -2.863281 13.957031 -2.222656 13.53125 -1.640625 C 13.101562 -1.066406 12.390625 -0.609375 11.390625 -0.265625 C 10.398438 0.078125 9.066406 0.25 7.390625 0.25 Z M 7.390625 0.25 "/></g></g></g><g fill="#ffffff" fill-opacity="1"><g transform="translate(82.520648, 93.964535)"><g><path d="M 7.421875 0.25 C 5.023438 0.25 3.257812 -0.320312 2.125 -1.46875 C 1.125 -2.476562 0.625 -3.859375 0.625 -5.609375 C 0.625 -7.347656 1.125 -8.722656 2.125 -9.734375 C 3.257812 -10.867188 5.023438 -11.4375 7.421875 -11.4375 C 9.816406 -11.4375 11.582031 -10.867188 12.71875 -9.734375 C 13.71875 -8.722656 14.21875 -7.347656 14.21875 -5.609375 C 14.21875 -3.859375 13.71875 -2.476562 12.71875 -1.46875 C 11.582031 -0.320312 9.816406 0.25 7.421875 0.25 Z M 7.421875 -2.765625 C 8.285156 -2.765625 8.875 -3.109375 9.1875 -3.796875 C 9.40625 -4.265625 9.515625 -4.867188 9.515625 -5.609375 C 9.515625 -6.335938 9.40625 -6.9375 9.1875 -7.40625 C 8.875 -8.09375 8.285156 -8.4375 7.421875 -8.4375 C 6.554688 -8.4375 5.96875 -8.09375 5.65625 -7.40625 C 5.4375 -6.9375 5.328125 -6.335938 5.328125 -5.609375 C 5.328125 -4.867188 5.4375 -4.265625 5.65625 -3.796875 C 5.96875 -3.109375 6.554688 -2.765625 7.421875 -2.765625 Z M 7.421875 -2.765625 "/></g></g></g><g fill="#ffffff" fill-opacity="1"><g transform="translate(97.360774, 93.964535)"><g><path d="M 14.765625 0.25 C 13.847656 0.25 13.117188 0.101562 12.578125 -0.1875 C 12.035156 -0.476562 11.644531 -0.863281 11.40625 -1.34375 C 11.175781 -1.832031 11.0625 -2.367188 11.0625 -2.953125 C 11.0625 -3.535156 11.175781 -4.066406 11.40625 -4.546875 C 11.644531 -5.035156 12.035156 -5.421875 12.578125 -5.703125 C 13.117188 -5.992188 13.847656 -6.140625 14.765625 -6.140625 C 15.691406 -6.140625 16.425781 -5.992188 16.96875 -5.703125 C 17.507812 -5.421875 17.894531 -5.035156 18.125 -4.546875 C 18.363281 -4.066406 18.484375 -3.535156 18.484375 -2.953125 C 18.484375 -2.367188 18.363281 -1.832031 18.125 -1.34375 C 17.894531 -0.863281 17.507812 -0.476562 16.96875 -0.1875 C 16.425781 0.101562 15.691406 0.25 14.765625 0.25 Z M 14.765625 -1.40625 C 15.523438 -1.40625 15.90625 -1.921875 15.90625 -2.953125 C 15.90625 -3.140625 15.882812 -3.351562 15.84375 -3.59375 C 15.800781 -3.832031 15.695312 -4.039062 15.53125 -4.21875 C 15.375 -4.40625 15.117188 -4.5 14.765625 -4.5 C 14.003906 -4.5 13.625 -3.984375 13.625 -2.953125 C 13.625 -2.765625 13.644531 -2.546875 13.6875 -2.296875 C 13.738281 -2.054688 13.84375 -1.847656 14 -1.671875 C 14.164062 -1.492188 14.421875 -1.40625 14.765625 -1.40625 Z M 4.34375 -5.0625 C 3.414062 -5.0625 2.679688 -5.203125 2.140625 -5.484375 C 1.597656 -5.773438 1.207031 -6.160156 0.96875 -6.640625 C 0.738281 -7.128906 0.625 -7.664062 0.625 -8.25 C 0.625 -8.832031 0.738281 -9.363281 0.96875 -9.84375 C 1.207031 -10.332031 1.597656 -10.71875 2.140625 -11 C 2.679688 -11.289062 3.414062 -11.4375 4.34375 -11.4375 C 5.257812 -11.4375 5.988281 -11.289062 6.53125 -11 C 7.070312 -10.71875 7.457031 -10.332031 7.6875 -9.84375 C 7.925781 -9.363281 8.046875 -8.832031 8.046875 -8.25 C 8.046875 -7.664062 7.925781 -7.128906 7.6875 -6.640625 C 7.457031 -6.160156 7.070312 -5.773438 6.53125 -5.484375 C 5.988281 -5.203125 5.257812 -5.0625 4.34375 -5.0625 Z M 4.34375 -6.703125 C 5.101562 -6.703125 5.484375 -7.21875 5.484375 -8.25 C 5.484375 -8.4375 5.457031 -8.648438 5.40625 -8.890625 C 5.363281 -9.140625 5.257812 -9.351562 5.09375 -9.53125 C 4.9375 -9.707031 4.6875 -9.796875 4.34375 -9.796875 C 3.570312 -9.796875 3.1875 -9.28125 3.1875 -8.25 C 3.1875 -8.0625 3.207031 -7.847656 3.25 -7.609375 C 3.300781 -7.367188 3.40625 -7.15625 3.5625 -6.96875 C 3.726562 -6.789062 3.988281 -6.703125 4.34375 -6.703125 Z M 8.375 0.015625 L 5.53125 0.015625 L 10.734375 -11.203125 L 13.59375 -11.203125 Z M 8.375 0.015625 "/></g></g></g><g fill="#ffffff" fill-opacity="1"><g transform="translate(116.457677, 93.964535)"><g/></g></g><g fill="#ffffff" fill-opacity="1"><g transform="translate(120.425458, 93.964535)"><g><path d="M 8.484375 0.25 C 5.710938 0.25 3.671875 -0.320312 2.359375 -1.46875 C 1.203125 -2.476562 0.625 -3.859375 0.625 -5.609375 C 0.625 -7.347656 1.203125 -8.722656 2.359375 -9.734375 C 3.671875 -10.867188 5.710938 -11.4375 8.484375 -11.4375 C 11.253906 -11.4375 13.289062 -10.867188 14.59375 -9.734375 C 15.75 -8.722656 16.328125 -7.347656 16.328125 -5.609375 C 16.328125 -3.859375 15.75 -2.476562 14.59375 -1.46875 C 13.289062 -0.320312 11.253906 0.25 8.484375 0.25 Z M 8.484375 -2.765625 C 9.617188 -2.765625 10.453125 -3.09375 10.984375 -3.75 C 11.410156 -4.269531 11.625 -4.890625 11.625 -5.609375 C 11.625 -6.316406 11.410156 -6.929688 10.984375 -7.453125 C 10.453125 -8.109375 9.617188 -8.4375 8.484375 -8.4375 C 7.347656 -8.4375 6.507812 -8.109375 5.96875 -7.453125 C 5.539062 -6.929688 5.328125 -6.316406 5.328125 -5.609375 C 5.328125 -4.890625 5.539062 -4.269531 5.96875 -3.75 C 6.507812 -3.09375 7.347656 -2.765625 8.484375 -2.765625 Z M 8.484375 -2.765625 "/></g></g></g><g fill="#ffffff" fill-opacity="1"><g transform="translate(137.374443, 93.964535)"><g><path d="M 5.953125 0 L 1.25 0 L 1.25 -11.21875 L 14.140625 -11.21875 L 14.140625 -8.4375 L 5.953125 -8.4375 L 5.953125 -6.6875 L 12.875 -6.6875 L 12.875 -4.53125 L 5.953125 -4.53125 Z M 5.953125 0 "/></g></g></g><g fill="#ffffff" fill-opacity="1"><g transform="translate(152.128657, 93.964535)"><g><path d="M 5.953125 0 L 1.25 0 L 1.25 -11.21875 L 14.140625 -11.21875 L 14.140625 -8.4375 L 5.953125 -8.4375 L 5.953125 -6.6875 L 12.875 -6.6875 L 12.875 -4.53125 L 5.953125 -4.53125 Z M 5.953125 0 "/></g></g></g></svg>