<svg xmlns="http://www.w3.org/2000/svg" xmlns:xlink="http://www.w3.org/1999/xlink" width="500" zoomAndPan="magnify" viewBox="0 0 375 374.999991" height="500" preserveAspectRatio="xMidYMid meet" version="1.0"><defs><clipPath id="4a7d44af05"><path d="M 276 205 L 320.828125 205 L 320.828125 252 L 276 252 Z M 276 205 " clip-rule="nonzero"/></clipPath><clipPath id="261f02a9ba"><path d="M 173.078125 205 L 218 205 L 218 252 L 173.078125 252 Z M 173.078125 205 " clip-rule="nonzero"/></clipPath><clipPath id="dc94cec256"><path d="M 116 117 L 198 117 L 198 202 L 116 202 Z M 116 117 " clip-rule="nonzero"/></clipPath><clipPath id="35c97d6e95"><path d="M 111.136719 127.503906 L 192.675781 110.71875 L 208.554688 187.851562 L 127.015625 204.636719 Z M 111.136719 127.503906 " clip-rule="nonzero"/></clipPath><clipPath id="64aeecad36"><path d="M 111.136719 127.503906 L 192.675781 110.71875 L 208.554688 187.851562 L 127.015625 204.636719 Z M 111.136719 127.503906 " clip-rule="nonzero"/></clipPath><clipPath id="5eaa39c4c3"><path d="M 116.542969 152.847656 L 131.296875 163.761719 L 132.957031 163.421875 L 135.359375 159.582031 L 143.628906 199.746094 L 144.425781 201.035156 L 190.730469 191.355469 L 191.933594 190.09375 L 183.3125 150.148438 L 187.445312 152.785156 L 188.792969 152.21875 L 197.839844 136.691406 L 197.4375 134.742188 L 178.546875 121.183594 L 160.972656 117.246094 C 160.972656 117.246094 156.507812 125.285156 143.542969 121.125 L 129.429688 130.132812 Z M 116.542969 152.847656 " clip-rule="nonzero"/></clipPath><radialGradient gradientTransform="matrix(0.236873, 1.150698, -0.808232, 0.166356, 466.864403, -116.243347)" gradientUnits="userSpaceOnUse" r="66.008514" cx="175.679779" id="934928ebf5" cy="431.352109" fx="175.679779" fy="431.352109"><stop stop-opacity="1" stop-color="rgb(49.398804%, 85.099792%, 34.098816%)" offset="0"/><stop stop-opacity="1" stop-color="rgb(49.398804%, 85.099792%, 34.098816%)" offset="1"/></radialGradient><clipPath id="9ceba58956"><path d="M 129 131 L 136 131 L 136 157 L 129 157 Z M 129 131 " clip-rule="nonzero"/></clipPath><clipPath id="789dcd549d"><path d="M 111.136719 127.503906 L 192.675781 110.71875 L 208.554688 187.851562 L 127.015625 204.636719 Z M 111.136719 127.503906 " clip-rule="nonzero"/></clipPath><clipPath id="e2fdf7ad6d"><path d="M 111.136719 127.503906 L 192.675781 110.71875 L 208.554688 187.851562 L 127.015625 204.636719 Z M 111.136719 127.503906 " clip-rule="nonzero"/></clipPath><clipPath id="9d6adcc31a"><path d="M 140 118 L 166 118 L 166 133 L 140 133 Z M 140 118 " clip-rule="nonzero"/></clipPath><clipPath id="c7f4ee362b"><path d="M 111.136719 127.503906 L 192.675781 110.71875 L 208.554688 187.851562 L 127.015625 204.636719 Z M 111.136719 127.503906 " clip-rule="nonzero"/></clipPath><clipPath id="7e779d0fa3"><path d="M 111.136719 127.503906 L 192.675781 110.71875 L 208.554688 187.851562 L 127.015625 204.636719 Z M 111.136719 127.503906 " clip-rule="nonzero"/></clipPath><clipPath id="b9bcc361cf"><path d="M 143 119 L 163 119 L 163 129 L 143 129 Z M 143 119 " clip-rule="nonzero"/></clipPath><clipPath id="25bc836fb2"><path d="M 111.136719 127.503906 L 192.675781 110.71875 L 208.554688 187.851562 L 127.015625 204.636719 Z M 111.136719 127.503906 " clip-rule="nonzero"/></clipPath><clipPath id="8d4ece89fa"><path d="M 111.136719 127.503906 L 192.675781 110.71875 L 208.554688 187.851562 L 127.015625 204.636719 Z M 111.136719 127.503906 " clip-rule="nonzero"/></clipPath><clipPath id="b4b88a4c1e"><path d="M 144 187 L 192 187 L 192 199 L 144 199 Z M 144 187 " clip-rule="nonzero"/></clipPath><clipPath id="142176dd09"><path d="M 111.136719 127.503906 L 192.675781 110.71875 L 208.554688 187.851562 L 127.015625 204.636719 Z M 111.136719 127.503906 " clip-rule="nonzero"/></clipPath><clipPath id="09f1463fb5"><path d="M 111.136719 127.503906 L 192.675781 110.71875 L 208.554688 187.851562 L 127.015625 204.636719 Z M 111.136719 127.503906 " clip-rule="nonzero"/></clipPath><clipPath id="c8ff04a96c"><path d="M 186 134 L 197 134 L 197 151 L 186 151 Z M 186 134 " clip-rule="nonzero"/></clipPath><clipPath id="8139ffd70d"><path d="M 111.136719 127.503906 L 192.675781 110.71875 L 208.554688 187.851562 L 127.015625 204.636719 Z M 111.136719 127.503906 " clip-rule="nonzero"/></clipPath><clipPath id="3cd03c1cfc"><path d="M 111.136719 127.503906 L 192.675781 110.71875 L 208.554688 187.851562 L 127.015625 204.636719 Z M 111.136719 127.503906 " clip-rule="nonzero"/></clipPath><clipPath id="ad94c426a8"><path d="M 118 150 L 133 150 L 133 162 L 118 162 Z M 118 150 " clip-rule="nonzero"/></clipPath><clipPath id="2332c155aa"><path d="M 111.136719 127.503906 L 192.675781 110.71875 L 208.554688 187.851562 L 127.015625 204.636719 Z M 111.136719 127.503906 " clip-rule="nonzero"/></clipPath><clipPath id="7b5e84f91a"><path d="M 111.136719 127.503906 L 192.675781 110.71875 L 208.554688 187.851562 L 127.015625 204.636719 Z M 111.136719 127.503906 " clip-rule="nonzero"/></clipPath><clipPath id="b8374e5035"><path d="M 176 122 L 183 122 L 183 148 L 176 148 Z M 176 122 " clip-rule="nonzero"/></clipPath><clipPath id="5c070e8aae"><path d="M 111.136719 127.503906 L 192.675781 110.71875 L 208.554688 187.851562 L 127.015625 204.636719 Z M 111.136719 127.503906 " clip-rule="nonzero"/></clipPath><clipPath id="0f36ed9477"><path d="M 111.136719 127.503906 L 192.675781 110.71875 L 208.554688 187.851562 L 127.015625 204.636719 Z M 111.136719 127.503906 " clip-rule="nonzero"/></clipPath><clipPath id="db7b6cbbc7"><path d="M 76 67.113281 L 116 67.113281 L 116 107 L 76 107 Z M 76 67.113281 " clip-rule="nonzero"/></clipPath><clipPath id="82aca839b4"><path d="M 38 113 L 142 113 L 142 252.363281 L 38 252.363281 Z M 38 113 " clip-rule="nonzero"/></clipPath></defs><path fill="#ffffff" d="M 264.277344 211.914062 L 263.730469 217.390625 L 230.425781 217.390625 L 229.878906 211.914062 C 229.808594 211.25 230.117188 210.800781 230.308594 210.589844 C 230.5 210.378906 230.925781 210.023438 231.585938 210.023438 L 262.566406 210.023438 C 263.230469 210.023438 263.652344 210.378906 263.84375 210.589844 C 264.035156 210.800781 264.34375 211.25 264.277344 211.914062 Z M 259.226562 246.851562 L 234.929688 246.851562 C 234.046875 246.851562 233.304688 246.191406 233.21875 245.300781 L 230.914062 222.300781 L 263.238281 222.300781 L 260.933594 245.300781 C 260.847656 246.191406 260.109375 246.851562 259.226562 246.851562 Z M 231.585938 205.113281 C 229.714844 205.113281 227.929688 205.910156 226.671875 207.300781 C 225.410156 208.679688 224.796875 210.542969 224.988281 212.402344 L 228.320312 245.796875 C 228.667969 249.195312 231.511719 251.765625 234.929688 251.765625 L 259.226562 251.765625 C 262.644531 251.765625 265.484375 249.195312 265.832031 245.796875 L 269.164062 212.402344 C 269.355469 210.542969 268.742188 208.679688 267.484375 207.300781 C 266.226562 205.910156 264.4375 205.113281 262.566406 205.113281 L 231.585938 205.113281 " fill-opacity="1" fill-rule="nonzero"/><g clip-path="url(#4a7d44af05)"><path fill="#ffffff" d="M 281.9375 210.589844 C 282.128906 210.378906 282.550781 210.023438 283.214844 210.023438 L 314.191406 210.023438 C 314.855469 210.023438 315.277344 210.378906 315.46875 210.589844 C 315.664062 210.800781 315.96875 211.25 315.902344 211.914062 L 315.355469 217.390625 L 282.050781 217.390625 L 281.503906 211.914062 C 281.4375 211.25 281.742188 210.800781 281.9375 210.589844 Z M 310.851562 246.851562 L 286.554688 246.851562 C 285.671875 246.851562 284.933594 246.191406 284.847656 245.300781 L 282.542969 222.300781 L 314.867188 222.300781 L 312.5625 245.300781 C 312.472656 246.191406 311.734375 246.851562 310.851562 246.851562 Z M 286.554688 251.765625 L 310.851562 251.765625 C 314.269531 251.765625 317.113281 249.195312 317.457031 245.796875 L 320.789062 212.402344 C 320.984375 210.542969 320.367188 208.679688 319.109375 207.300781 C 317.851562 205.910156 316.066406 205.113281 314.191406 205.113281 L 283.214844 205.113281 C 281.339844 205.113281 279.554688 205.910156 278.296875 207.300781 C 277.039062 208.679688 276.425781 210.542969 276.617188 212.402344 L 279.949219 245.796875 C 280.292969 249.195312 283.136719 251.765625 286.554688 251.765625 " fill-opacity="1" fill-rule="nonzero"/></g><g clip-path="url(#261f02a9ba)"><path fill="#ffffff" d="M 212.21875 210.589844 C 212.410156 210.800781 212.714844 211.25 212.648438 211.914062 L 212.101562 217.390625 L 178.796875 217.390625 L 178.25 211.914062 C 178.183594 211.25 178.5 210.800781 178.683594 210.589844 C 178.875 210.378906 179.296875 210.023438 179.960938 210.023438 L 210.941406 210.023438 C 211.601562 210.023438 212.023438 210.378906 212.21875 210.589844 Z M 207.597656 246.851562 L 183.3125 246.851562 C 182.417969 246.851562 181.679688 246.191406 181.59375 245.300781 L 179.289062 222.300781 L 211.613281 222.300781 L 209.308594 245.300781 C 209.222656 246.191406 208.480469 246.851562 207.597656 246.851562 Z M 175.042969 207.300781 C 173.785156 208.679688 173.171875 210.542969 173.363281 212.402344 L 176.703125 245.796875 C 177.042969 249.195312 179.882812 251.765625 183.3125 251.765625 L 207.597656 251.765625 C 211.015625 251.765625 213.859375 249.195312 214.207031 245.796875 L 217.539062 212.402344 C 217.730469 210.542969 217.113281 208.679688 215.855469 207.300781 C 214.597656 205.910156 212.8125 205.113281 210.941406 205.113281 L 179.960938 205.113281 C 178.085938 205.113281 176.292969 205.910156 175.042969 207.300781 " fill-opacity="1" fill-rule="nonzero"/></g><path fill="#ffffff" d="M 296.246094 197.746094 C 296.246094 199.101562 297.347656 200.203125 298.703125 200.203125 C 300.058594 200.203125 301.160156 199.101562 301.160156 197.746094 L 301.160156 192.835938 C 301.160156 190.132812 298.953125 187.925781 296.246094 187.925781 L 249.535156 187.925781 L 249.535156 183.015625 C 249.535156 181.664062 248.429688 180.5625 247.078125 180.5625 C 245.722656 180.5625 244.617188 181.664062 244.617188 183.015625 L 244.617188 187.925781 L 197.910156 187.925781 C 195.199219 187.925781 192.992188 190.132812 192.992188 192.835938 L 192.992188 197.746094 C 192.992188 199.101562 194.097656 200.203125 195.449219 200.203125 C 196.804688 200.203125 197.910156 199.101562 197.910156 197.746094 L 197.910156 192.835938 L 244.617188 192.835938 L 244.617188 197.746094 C 244.617188 199.101562 245.722656 200.203125 247.078125 200.203125 C 248.429688 200.203125 249.535156 199.101562 249.535156 197.746094 L 249.535156 192.835938 L 296.246094 192.835938 L 296.246094 197.746094 " fill-opacity="1" fill-rule="nonzero"/><path fill="#ffffff" d="M 213.628906 154.117188 C 213.628906 154.117188 219.265625 145.707031 219.277344 145.6875 C 220.015625 144.574219 219.699219 143.023438 218.59375 142.285156 L 216.367188 140.875 L 226.746094 138.859375 L 228.90625 149.199219 C 228.90625 149.199219 226.765625 147.769531 226.757812 147.757812 C 225.640625 147.011719 224.097656 147.328125 223.347656 148.441406 L 215.117188 160.746094 C 214.050781 160.417969 212.667969 159.566406 212.667969 157.300781 C 212.667969 156.152344 212.996094 155.058594 213.628906 154.117188 Z M 234.792969 170.757812 L 220.042969 170.757812 C 216.578125 170.757812 213.6875 168.351562 212.898438 165.136719 C 213.984375 165.589844 215.15625 165.847656 216.296875 165.847656 L 234.792969 165.847656 Z M 220.042969 175.667969 L 234.792969 175.667969 C 237.503906 175.667969 239.710938 173.464844 239.710938 170.757812 L 239.710938 165.847656 C 239.710938 163.144531 237.503906 160.9375 234.792969 160.9375 L 220.898438 160.9375 L 226.074219 153.207031 C 226.074219 153.207031 226.191406 153.292969 226.21875 153.3125 C 227.890625 154.386719 230.023438 154.367188 231.671875 153.234375 C 233.304688 152.125 234.101562 150.148438 233.699219 148.230469 L 231.566406 137.871094 C 231.296875 136.585938 230.558594 135.492188 229.484375 134.773438 C 228.398438 134.054688 227.09375 133.804688 225.835938 134.054688 C 225.835938 134.054688 215.453125 136.050781 215.445312 136.050781 C 211.257812 136.855469 210.039062 142.5625 213.65625 144.890625 L 213.820312 145.007812 L 209.539062 151.386719 C 208.367188 153.140625 207.75 155.171875 207.75 157.300781 L 207.75 163.394531 C 207.75 170.164062 213.265625 175.667969 220.042969 175.667969 " fill-opacity="1" fill-rule="nonzero"/><path fill="#ffffff" d="M 236.195312 114.046875 C 238.183594 110.488281 241.140625 108.898438 244.347656 109.53125 C 243.515625 110.316406 242.851562 111.238281 242.378906 112.246094 L 242.371094 112.234375 L 234.082031 128.15625 L 229.878906 125.757812 Z M 259.792969 123.457031 C 260.519531 124.589844 262.078125 124.921875 263.199219 124.183594 C 263.199219 124.183594 265.390625 122.699219 265.390625 122.738281 L 263.085938 133.007812 L 252.714844 130.878906 L 254.902344 129.480469 C 256.035156 128.761719 256.371094 127.207031 255.644531 126.085938 L 247.460938 113.335938 C 248.179688 112.503906 249.507812 111.574219 251.582031 112.464844 C 252.636719 112.933594 253.53125 113.691406 254.136719 114.640625 C 254.136719 114.640625 259.78125 123.4375 259.792969 123.457031 Z M 227.449219 130.027344 C 227.449219 130.027344 231.652344 132.414062 231.652344 132.421875 C 234.046875 133.777344 237.183594 132.847656 238.453125 130.417969 L 244.78125 118.257812 L 250.179688 126.667969 C 250.179688 126.667969 250.054688 126.753906 250.054688 126.753906 C 246.460938 129.058594 247.527344 134.765625 251.695312 135.636719 C 251.695312 135.636719 262.039062 137.8125 262.046875 137.8125 C 264.601562 138.351562 267.261719 136.757812 267.847656 134.113281 C 267.847656 134.113281 270.183594 123.820312 270.191406 123.78125 C 271.105469 119.609375 266.371094 116.292969 262.769531 118.621094 L 262.605469 118.726562 L 258.273438 111.984375 C 257.140625 110.230469 255.519531 108.847656 253.570312 107.976562 L 247.980469 105.539062 C 241.777344 102.835938 235.476562 105.242188 231.882812 111.699219 L 225.546875 123.425781 C 224.269531 125.796875 225.09375 128.691406 227.449219 130.027344 " fill-opacity="1" fill-rule="nonzero"/><path fill="#ffffff" d="M 280.253906 156.179688 C 282.175781 159.066406 281.773438 162.808594 279.535156 165.253906 C 279.304688 164.09375 278.871094 162.988281 278.230469 162.03125 L 267.964844 146.675781 L 272.054688 143.933594 Z M 259.378906 170.769531 C 258.015625 170.769531 256.921875 171.871094 256.921875 173.222656 L 256.949219 175.648438 L 249.535156 168.371094 L 256.921875 160.910156 L 256.921875 163.402344 C 256.921875 164.753906 258.015625 165.859375 259.378906 165.859375 L 274.648438 165.859375 C 274.964844 166.914062 275.03125 168.523438 273.167969 169.789062 L 273.148438 169.800781 C 272.179688 170.433594 271.085938 170.769531 269.96875 170.769531 Z M 265.253906 142.582031 C 263.027344 144.058594 262.382812 147.15625 263.890625 149.378906 L 271.59375 160.945312 C 271.59375 160.945312 261.835938 160.945312 261.835938 160.878906 C 261.808594 158.894531 260.597656 157.128906 258.753906 156.390625 C 256.921875 155.652344 254.835938 156.085938 253.453125 157.484375 L 246.058594 164.910156 C 244.128906 166.835938 244.117188 169.855469 246.070312 171.804688 C 246.070312 171.804688 253.472656 179.121094 253.472656 179.132812 C 256.496094 182.125 261.886719 179.984375 261.835938 175.679688 L 269.96875 175.679688 C 272.042969 175.679688 274.082031 175.066406 275.886719 173.886719 L 280.945312 170.5 C 286.574219 166.738281 288.101562 159.105469 284.355469 153.464844 C 284.355469 153.464844 276.175781 141.246094 276.164062 141.226562 C 274.667969 138.992188 271.582031 138.359375 269.347656 139.855469 C 269.347656 139.855469 265.265625 142.570312 265.253906 142.582031 " fill-opacity="1" fill-rule="nonzero"/><g clip-path="url(#dc94cec256)"><g clip-path="url(#35c97d6e95)"><g clip-path="url(#64aeecad36)"><g clip-path="url(#5eaa39c4c3)"><path fill="url(#934928ebf5)" d="M 194.535156 101.191406 L 99.996094 120.652344 L 119.847656 217.085938 L 214.386719 197.628906 Z M 194.535156 101.191406 " fill-rule="nonzero"/></g></g></g></g><g clip-path="url(#9ceba58956)"><g clip-path="url(#789dcd549d)"><g clip-path="url(#e2fdf7ad6d)"><path fill="#77b255" d="M 129.984375 131.21875 C 129.898438 131.257812 129.832031 131.324219 129.792969 131.414062 C 129.753906 131.507812 129.75 131.601562 129.78125 131.699219 C 129.78125 131.699219 131.335938 137.152344 132.753906 142.917969 C 133.464844 145.800781 134.132812 148.757812 134.5625 151.140625 C 134.777344 152.335938 134.929688 153.386719 134.996094 154.199219 C 135.058594 155.015625 135.011719 155.617188 134.945312 155.773438 C 134.902344 155.871094 134.898438 155.96875 134.933594 156.074219 C 134.96875 156.175781 135.03125 156.25 135.125 156.300781 C 135.214844 156.347656 135.308594 156.355469 135.40625 156.320312 C 135.5 156.285156 135.570312 156.21875 135.613281 156.121094 C 135.816406 155.652344 135.800781 155.023438 135.730469 154.160156 C 135.664062 153.300781 135.5 152.226562 135.28125 151.019531 C 134.847656 148.601562 134.171875 145.628906 133.460938 142.734375 C 132.039062 136.949219 130.480469 131.480469 130.480469 131.480469 C 130.449219 131.367188 130.382812 131.285156 130.285156 131.234375 C 130.183594 131.179688 130.085938 131.175781 129.984375 131.21875 Z M 129.984375 131.21875 " fill-opacity="1" fill-rule="nonzero"/></g></g></g><g clip-path="url(#9d6adcc31a)"><g clip-path="url(#c7f4ee362b)"><g clip-path="url(#7e779d0fa3)"><path fill="#77b255" d="M 140.769531 123.429688 C 140.675781 123.464844 140.609375 123.53125 140.566406 123.625 C 140.523438 123.722656 140.523438 123.820312 140.554688 123.921875 C 140.554688 123.921875 141.523438 126.828125 143.789062 129.328125 C 146.050781 131.832031 149.691406 133.941406 154.804688 132.335938 C 160.105469 130.664062 162.613281 128.355469 163.804688 125.945312 C 164.992188 123.539062 164.867188 121.097656 165.066406 119.253906 C 165.078125 119.144531 165.050781 119.046875 164.988281 118.960938 C 164.925781 118.875 164.84375 118.824219 164.742188 118.808594 C 164.640625 118.792969 164.550781 118.816406 164.472656 118.882812 C 164.390625 118.949219 164.347656 119.035156 164.335938 119.140625 C 164.121094 121.09375 164.230469 123.371094 163.144531 125.570312 C 162.054688 127.769531 159.769531 129.945312 154.578125 131.582031 C 149.710938 133.113281 146.441406 131.15625 144.308594 128.796875 C 142.171875 126.4375 141.238281 123.683594 141.238281 123.683594 C 141.207031 123.578125 141.144531 123.5 141.050781 123.453125 C 140.957031 123.402344 140.863281 123.394531 140.769531 123.429688 Z M 140.769531 123.429688 " fill-opacity="1" fill-rule="nonzero"/></g></g></g><g clip-path="url(#b9bcc361cf)"><g clip-path="url(#25bc836fb2)"><g clip-path="url(#8d4ece89fa)"><path fill="#77b255" d="M 143.566406 122.550781 L 143.105469 123.132812 C 143.125 123.15625 143.144531 123.164062 143.160156 123.183594 C 146.050781 126.453125 148.742188 127.925781 151.160156 128.222656 C 153.597656 128.519531 155.710938 127.621094 157.429688 126.332031 C 160.871094 123.75 162.796875 119.542969 162.796875 119.542969 L 162.242188 119.058594 C 156.753906 123.71875 152.074219 124.558594 148.773438 124.265625 C 145.472656 123.972656 143.566406 122.550781 143.566406 122.550781 Z M 161.175781 120.875 C 160.347656 122.277344 159.082031 124.136719 157.007812 125.695312 C 155.386719 126.910156 153.445312 127.71875 151.222656 127.445312 C 149.429688 127.226562 147.414062 126.238281 145.222656 124.195312 C 146.140625 124.554688 147.285156 124.90625 148.734375 125.035156 C 151.886719 125.316406 156.214844 124.566406 161.175781 120.875 Z M 161.175781 120.875 " fill-opacity="1" fill-rule="nonzero"/></g></g></g><g clip-path="url(#b4b88a4c1e)"><g clip-path="url(#142176dd09)"><g clip-path="url(#09f1463fb5)"><path fill="#77b255" d="M 144.300781 197.375 C 144.203125 197.398438 144.128906 197.457031 144.078125 197.550781 C 144.027344 197.644531 144.015625 197.742188 144.042969 197.847656 C 144.070312 197.953125 144.125 198.03125 144.214844 198.089844 C 144.300781 198.144531 144.394531 198.160156 144.492188 198.136719 L 190.726562 188.769531 C 190.828125 188.75 190.90625 188.695312 190.960938 188.605469 C 191.015625 188.515625 191.03125 188.417969 191.011719 188.308594 C 190.988281 188.203125 190.933594 188.117188 190.847656 188.058594 C 190.761719 188 190.667969 187.980469 190.570312 188 L 144.335938 197.367188 C 144.324219 197.371094 144.3125 197.371094 144.300781 197.375 Z M 144.300781 197.375 " fill-opacity="1" fill-rule="nonzero"/></g></g></g><g clip-path="url(#c8ff04a96c)"><g clip-path="url(#8139ffd70d)"><g clip-path="url(#3cd03c1cfc)"><path fill="#77b255" d="M 196.070312 134.746094 C 195.988281 134.773438 195.925781 134.828125 195.882812 134.90625 L 186.496094 150.121094 C 186.445312 150.210938 186.429688 150.308594 186.453125 150.414062 C 186.472656 150.519531 186.527344 150.605469 186.613281 150.664062 C 186.703125 150.722656 186.792969 150.742188 186.894531 150.722656 C 186.992188 150.699219 187.066406 150.644531 187.121094 150.554688 L 196.496094 135.34375 C 196.59375 135.191406 196.589844 135.039062 196.480469 134.886719 C 196.371094 134.734375 196.234375 134.6875 196.070312 134.746094 Z M 196.070312 134.746094 " fill-opacity="1" fill-rule="nonzero"/></g></g></g><g clip-path="url(#ad94c426a8)"><g clip-path="url(#2332c155aa)"><g clip-path="url(#7b5e84f91a)"><path fill="#77b255" d="M 118.335938 150.746094 C 118.1875 150.792969 118.101562 150.898438 118.085938 151.066406 C 118.066406 151.230469 118.125 151.359375 118.257812 151.449219 L 132.125 161.300781 C 132.210938 161.375 132.308594 161.40625 132.414062 161.390625 C 132.523438 161.375 132.605469 161.316406 132.664062 161.222656 C 132.722656 161.125 132.738281 161.019531 132.707031 160.90625 C 132.679688 160.796875 132.617188 160.710938 132.519531 160.65625 L 118.648438 150.804688 C 118.550781 150.730469 118.449219 150.710938 118.335938 150.746094 Z M 118.335938 150.746094 " fill-opacity="1" fill-rule="nonzero"/></g></g></g><g clip-path="url(#b8374e5035)"><g clip-path="url(#5c070e8aae)"><g clip-path="url(#0f36ed9477)"><path fill="#77b255" d="M 176.992188 122.253906 C 176.828125 122.316406 176.75 122.441406 176.753906 122.628906 C 176.753906 122.628906 176.929688 127.542969 177.6875 133.105469 C 178.070312 135.886719 178.589844 138.835938 179.320312 141.425781 C 180.050781 144.019531 180.972656 146.253906 182.21875 147.640625 C 182.285156 147.730469 182.375 147.777344 182.480469 147.785156 C 182.585938 147.792969 182.679688 147.757812 182.753906 147.679688 C 182.832031 147.605469 182.867188 147.507812 182.863281 147.394531 C 182.859375 147.28125 182.816406 147.183594 182.738281 147.109375 C 181.652344 145.902344 180.734375 143.753906 180.023438 141.21875 C 179.3125 138.6875 178.789062 135.761719 178.414062 133.007812 C 177.660156 127.492188 177.488281 122.628906 177.488281 122.628906 C 177.484375 122.492188 177.433594 122.386719 177.328125 122.304688 C 177.222656 122.226562 177.109375 122.210938 176.992188 122.253906 Z M 176.992188 122.253906 " fill-opacity="1" fill-rule="nonzero"/></g></g></g><g clip-path="url(#db7b6cbbc7)"><path fill="#ffffff" d="M 115.480469 86.910156 C 115.59375 76.195312 107.003906 67.421875 96.285156 67.296875 C 85.5625 67.183594 76.773438 75.769531 76.660156 86.484375 C 76.542969 97.195312 85.136719 105.976562 95.859375 106.09375 C 106.574219 106.214844 115.363281 97.621094 115.480469 86.910156 " fill-opacity="1" fill-rule="nonzero"/></g><g clip-path="url(#82aca839b4)"><path fill="#ffffff" d="M 45.222656 224.28125 L 62.796875 213.496094 L 66.332031 195.652344 C 62.292969 192.496094 59.804688 187.722656 59.597656 182.558594 C 59.539062 181.171875 59.648438 179.777344 59.921875 178.421875 L 70.011719 127.730469 C 71.859375 118.335938 80.972656 112.222656 90.367188 114.074219 C 91.964844 114.382812 93.417969 114.992188 94.839844 115.597656 C 97.355469 116.679688 99.160156 118.796875 100.460938 121.09375 L 100.503906 121.164062 C 104.335938 127.996094 112.160156 137.957031 117.894531 143.292969 L 118.082031 143.464844 L 134.375 141.871094 C 137.917969 141.515625 141.066406 144.117188 141.394531 147.664062 C 141.71875 151.195312 139.125 154.3125 135.589844 154.640625 L 118.425781 156.214844 C 116.203125 156.421875 113.96875 155.84375 112.125 154.582031 L 100.503906 146.644531 L 91.113281 179.402344 C 90.316406 182.246094 91.445312 185.289062 93.914062 186.925781 L 112.003906 198.964844 C 114.179688 200.484375 115.523438 202.9375 115.628906 205.589844 L 117.140625 242.710938 C 117.351562 247.730469 113.441406 251.96875 108.417969 252.171875 C 103.394531 252.371094 99.160156 248.472656 98.953125 243.453125 L 97.824219 215.75 L 82.664062 206.125 L 80.617188 221.996094 C 80.0625 224.386719 78.234375 226.273438 75.871094 226.921875 L 49.582031 240.839844 C 44.992188 242.101562 40.257812 239.378906 39.039062 234.78125 C 37.808594 230.164062 40.972656 226.828125 45.222656 224.28125 " fill-opacity="1" fill-rule="nonzero"/></g></svg>