<svg xmlns="http://www.w3.org/2000/svg" xmlns:xlink="http://www.w3.org/1999/xlink" width="500" zoomAndPan="magnify" viewBox="0 0 375 374.999991" height="500" preserveAspectRatio="xMidYMid meet" version="1.0"><defs><clipPath id="7ae9740d27"><path d="M 224 209 L 270 209 L 270 256.882812 L 224 256.882812 Z M 224 209 " clip-rule="nonzero"/></clipPath><clipPath id="f086cd0f76"><path d="M 276 209 L 320.828125 209 L 320.828125 256.882812 L 276 256.882812 Z M 276 209 " clip-rule="nonzero"/></clipPath><clipPath id="bb7921d5f6"><path d="M 173.078125 209 L 218 209 L 218 256.882812 L 173.078125 256.882812 Z M 173.078125 209 " clip-rule="nonzero"/></clipPath><clipPath id="61f42483fe"><path d="M 116 121 L 198 121 L 198 206 L 116 206 Z M 116 121 " clip-rule="nonzero"/></clipPath><clipPath id="988996f057"><path d="M 111.136719 132.140625 L 192.675781 115.355469 L 208.554688 192.488281 L 127.015625 209.273438 Z M 111.136719 132.140625 " clip-rule="nonzero"/></clipPath><clipPath id="3083eeff54"><path d="M 111.136719 132.140625 L 192.675781 115.355469 L 208.554688 192.488281 L 127.015625 209.273438 Z M 111.136719 132.140625 " clip-rule="nonzero"/></clipPath><clipPath id="95a7201ce9"><path d="M 116.542969 157.484375 L 131.296875 168.398438 L 132.957031 168.058594 L 135.359375 164.222656 L 143.628906 204.382812 L 144.425781 205.671875 L 190.730469 195.992188 L 191.933594 194.730469 L 183.3125 154.785156 L 187.445312 157.421875 L 188.792969 156.855469 L 197.839844 141.328125 L 197.4375 139.378906 L 178.546875 125.820312 L 160.972656 121.882812 C 160.972656 121.882812 156.507812 129.921875 143.542969 125.761719 L 129.429688 134.769531 Z M 116.542969 157.484375 " clip-rule="nonzero"/></clipPath><radialGradient gradientTransform="matrix(0.236873, 1.150698, -0.808232, 0.166356, 466.864403, -111.606597)" gradientUnits="userSpaceOnUse" r="66.008514" cx="175.679779" id="b72188f5da" cy="431.352109" fx="175.679779" fy="431.352109"><stop stop-opacity="1" stop-color="rgb(49.398804%, 85.099792%, 34.098816%)" offset="0"/><stop stop-opacity="1" stop-color="rgb(49.398804%, 85.099792%, 34.098816%)" offset="1"/></radialGradient><clipPath id="bd22e01610"><path d="M 129 135 L 136 135 L 136 161 L 129 161 Z M 129 135 " clip-rule="nonzero"/></clipPath><clipPath id="894c2fc0e7"><path d="M 111.136719 132.140625 L 192.675781 115.355469 L 208.554688 192.488281 L 127.015625 209.273438 Z M 111.136719 132.140625 " clip-rule="nonzero"/></clipPath><clipPath id="f556c06240"><path d="M 111.136719 132.140625 L 192.675781 115.355469 L 208.554688 192.488281 L 127.015625 209.273438 Z M 111.136719 132.140625 " clip-rule="nonzero"/></clipPath><clipPath id="99d55547d4"><path d="M 140 123 L 166 123 L 166 138 L 140 138 Z M 140 123 " clip-rule="nonzero"/></clipPath><clipPath id="f284efe6df"><path d="M 111.136719 132.140625 L 192.675781 115.355469 L 208.554688 192.488281 L 127.015625 209.273438 Z M 111.136719 132.140625 " clip-rule="nonzero"/></clipPath><clipPath id="a98a618c8f"><path d="M 111.136719 132.140625 L 192.675781 115.355469 L 208.554688 192.488281 L 127.015625 209.273438 Z M 111.136719 132.140625 " clip-rule="nonzero"/></clipPath><clipPath id="c5eca371a2"><path d="M 143 123 L 163 123 L 163 133 L 143 133 Z M 143 123 " clip-rule="nonzero"/></clipPath><clipPath id="a73557a214"><path d="M 111.136719 132.140625 L 192.675781 115.355469 L 208.554688 192.488281 L 127.015625 209.273438 Z M 111.136719 132.140625 " clip-rule="nonzero"/></clipPath><clipPath id="9b02409d6e"><path d="M 111.136719 132.140625 L 192.675781 115.355469 L 208.554688 192.488281 L 127.015625 209.273438 Z M 111.136719 132.140625 " clip-rule="nonzero"/></clipPath><clipPath id="676451f99b"><path d="M 144 192 L 192 192 L 192 203 L 144 203 Z M 144 192 " clip-rule="nonzero"/></clipPath><clipPath id="bea08f425c"><path d="M 111.136719 132.140625 L 192.675781 115.355469 L 208.554688 192.488281 L 127.015625 209.273438 Z M 111.136719 132.140625 " clip-rule="nonzero"/></clipPath><clipPath id="e156b043d1"><path d="M 111.136719 132.140625 L 192.675781 115.355469 L 208.554688 192.488281 L 127.015625 209.273438 Z M 111.136719 132.140625 " clip-rule="nonzero"/></clipPath><clipPath id="c2ead6d0e6"><path d="M 186 139 L 197 139 L 197 156 L 186 156 Z M 186 139 " clip-rule="nonzero"/></clipPath><clipPath id="fddc1edc41"><path d="M 111.136719 132.140625 L 192.675781 115.355469 L 208.554688 192.488281 L 127.015625 209.273438 Z M 111.136719 132.140625 " clip-rule="nonzero"/></clipPath><clipPath id="b08eac31d9"><path d="M 111.136719 132.140625 L 192.675781 115.355469 L 208.554688 192.488281 L 127.015625 209.273438 Z M 111.136719 132.140625 " clip-rule="nonzero"/></clipPath><clipPath id="6bc8601e31"><path d="M 118 155 L 133 155 L 133 167 L 118 167 Z M 118 155 " clip-rule="nonzero"/></clipPath><clipPath id="c7cdb7d0f3"><path d="M 111.136719 132.140625 L 192.675781 115.355469 L 208.554688 192.488281 L 127.015625 209.273438 Z M 111.136719 132.140625 " clip-rule="nonzero"/></clipPath><clipPath id="3e1f284551"><path d="M 111.136719 132.140625 L 192.675781 115.355469 L 208.554688 192.488281 L 127.015625 209.273438 Z M 111.136719 132.140625 " clip-rule="nonzero"/></clipPath><clipPath id="fb0c6acdf1"><path d="M 176 126 L 183 126 L 183 153 L 176 153 Z M 176 126 " clip-rule="nonzero"/></clipPath><clipPath id="aeb916c3b5"><path d="M 111.136719 132.140625 L 192.675781 115.355469 L 208.554688 192.488281 L 127.015625 209.273438 Z M 111.136719 132.140625 " clip-rule="nonzero"/></clipPath><clipPath id="ac7072a35d"><path d="M 111.136719 132.140625 L 192.675781 115.355469 L 208.554688 192.488281 L 127.015625 209.273438 Z M 111.136719 132.140625 " clip-rule="nonzero"/></clipPath><clipPath id="13e97b1fbc"><path d="M 76 71.75 L 116 71.75 L 116 111 L 76 111 Z M 76 71.75 " clip-rule="nonzero"/></clipPath></defs><g clip-path="url(#7ae9740d27)"><path fill="#000000" d="M 264.277344 216.550781 L 263.730469 222.027344 L 230.425781 222.027344 L 229.878906 216.550781 C 229.808594 215.886719 230.117188 215.4375 230.308594 215.226562 C 230.5 215.015625 230.925781 214.660156 231.585938 214.660156 L 262.566406 214.660156 C 263.230469 214.660156 263.652344 215.015625 263.84375 215.226562 C 264.035156 215.4375 264.34375 215.886719 264.277344 216.550781 Z M 259.226562 251.488281 L 234.929688 251.488281 C 234.046875 251.488281 233.304688 250.828125 233.21875 249.9375 L 230.914062 226.9375 L 263.238281 226.9375 L 260.933594 249.9375 C 260.847656 250.828125 260.109375 251.488281 259.226562 251.488281 Z M 231.585938 209.75 C 229.714844 209.75 227.929688 210.546875 226.671875 211.9375 C 225.410156 213.316406 224.796875 215.179688 224.988281 217.039062 L 228.320312 250.433594 C 228.667969 253.832031 231.511719 256.402344 234.929688 256.402344 L 259.226562 256.402344 C 262.644531 256.402344 265.484375 253.832031 265.832031 250.433594 L 269.164062 217.039062 C 269.355469 215.179688 268.742188 213.316406 267.484375 211.9375 C 266.226562 210.546875 264.4375 209.75 262.566406 209.75 L 231.585938 209.75 " fill-opacity="1" fill-rule="nonzero"/></g><g clip-path="url(#f086cd0f76)"><path fill="#000000" d="M 281.9375 215.226562 C 282.128906 215.015625 282.550781 214.660156 283.214844 214.660156 L 314.191406 214.660156 C 314.855469 214.660156 315.277344 215.015625 315.46875 215.226562 C 315.664062 215.4375 315.96875 215.886719 315.902344 216.550781 L 315.355469 222.027344 L 282.050781 222.027344 L 281.503906 216.550781 C 281.4375 215.886719 281.742188 215.4375 281.9375 215.226562 Z M 310.851562 251.488281 L 286.554688 251.488281 C 285.671875 251.488281 284.933594 250.828125 284.847656 249.9375 L 282.542969 226.9375 L 314.867188 226.9375 L 312.5625 249.9375 C 312.472656 250.828125 311.734375 251.488281 310.851562 251.488281 Z M 286.554688 256.402344 L 310.851562 256.402344 C 314.269531 256.402344 317.113281 253.832031 317.457031 250.433594 L 320.789062 217.039062 C 320.984375 215.179688 320.367188 213.316406 319.109375 211.9375 C 317.851562 210.546875 316.066406 209.75 314.191406 209.75 L 283.214844 209.75 C 281.339844 209.75 279.554688 210.546875 278.296875 211.9375 C 277.039062 213.316406 276.425781 215.179688 276.617188 217.039062 L 279.949219 250.433594 C 280.292969 253.832031 283.136719 256.402344 286.554688 256.402344 " fill-opacity="1" fill-rule="nonzero"/></g><g clip-path="url(#bb7921d5f6)"><path fill="#000000" d="M 212.21875 215.226562 C 212.410156 215.4375 212.714844 215.886719 212.648438 216.550781 L 212.101562 222.027344 L 178.796875 222.027344 L 178.25 216.550781 C 178.183594 215.886719 178.5 215.4375 178.683594 215.226562 C 178.875 215.015625 179.296875 214.660156 179.960938 214.660156 L 210.941406 214.660156 C 211.601562 214.660156 212.023438 215.015625 212.21875 215.226562 Z M 207.597656 251.488281 L 183.3125 251.488281 C 182.417969 251.488281 181.679688 250.828125 181.59375 249.9375 L 179.289062 226.9375 L 211.613281 226.9375 L 209.308594 249.9375 C 209.222656 250.828125 208.480469 251.488281 207.597656 251.488281 Z M 175.042969 211.9375 C 173.785156 213.316406 173.171875 215.179688 173.363281 217.039062 L 176.703125 250.433594 C 177.042969 253.832031 179.882812 256.402344 183.3125 256.402344 L 207.597656 256.402344 C 211.015625 256.402344 213.859375 253.832031 214.207031 250.433594 L 217.539062 217.039062 C 217.730469 215.179688 217.113281 213.316406 215.855469 211.9375 C 214.597656 210.546875 212.8125 209.75 210.941406 209.75 L 179.960938 209.75 C 178.085938 209.75 176.292969 210.546875 175.042969 211.9375 " fill-opacity="1" fill-rule="nonzero"/></g><path fill="#000000" d="M 296.246094 202.382812 C 296.246094 203.738281 297.347656 204.839844 298.703125 204.839844 C 300.058594 204.839844 301.160156 203.738281 301.160156 202.382812 L 301.160156 197.472656 C 301.160156 194.769531 298.953125 192.5625 296.246094 192.5625 L 249.535156 192.5625 L 249.535156 187.652344 C 249.535156 186.300781 248.429688 185.199219 247.078125 185.199219 C 245.722656 185.199219 244.617188 186.300781 244.617188 187.652344 L 244.617188 192.5625 L 197.910156 192.5625 C 195.199219 192.5625 192.992188 194.769531 192.992188 197.472656 L 192.992188 202.382812 C 192.992188 203.738281 194.097656 204.839844 195.449219 204.839844 C 196.804688 204.839844 197.910156 203.738281 197.910156 202.382812 L 197.910156 197.472656 L 244.617188 197.472656 L 244.617188 202.382812 C 244.617188 203.738281 245.722656 204.839844 247.078125 204.839844 C 248.429688 204.839844 249.535156 203.738281 249.535156 202.382812 L 249.535156 197.472656 L 296.246094 197.472656 L 296.246094 202.382812 " fill-opacity="1" fill-rule="nonzero"/><path fill="#000000" d="M 213.628906 158.753906 C 213.628906 158.753906 219.265625 150.34375 219.277344 150.324219 C 220.015625 149.210938 219.699219 147.660156 218.59375 146.921875 L 216.367188 145.511719 L 226.746094 143.496094 L 228.90625 153.835938 C 228.90625 153.835938 226.765625 152.40625 226.757812 152.394531 C 225.640625 151.648438 224.097656 151.964844 223.347656 153.078125 L 215.117188 165.382812 C 214.050781 165.054688 212.667969 164.203125 212.667969 161.9375 C 212.667969 160.789062 212.996094 159.695312 213.628906 158.753906 Z M 234.792969 175.394531 L 220.042969 175.394531 C 216.578125 175.394531 213.6875 172.988281 212.898438 169.773438 C 213.984375 170.226562 215.15625 170.484375 216.296875 170.484375 L 234.792969 170.484375 Z M 220.042969 180.304688 L 234.792969 180.304688 C 237.503906 180.304688 239.710938 178.101562 239.710938 175.394531 L 239.710938 170.484375 C 239.710938 167.78125 237.503906 165.574219 234.792969 165.574219 L 220.898438 165.574219 L 226.074219 157.84375 C 226.074219 157.84375 226.191406 157.929688 226.21875 157.949219 C 227.890625 159.023438 230.023438 159.003906 231.671875 157.871094 C 233.304688 156.761719 234.101562 154.785156 233.699219 152.867188 L 231.566406 142.507812 C 231.296875 141.222656 230.558594 140.128906 229.484375 139.410156 C 228.398438 138.691406 227.09375 138.441406 225.835938 138.691406 C 225.835938 138.691406 215.453125 140.6875 215.445312 140.6875 C 211.257812 141.492188 210.039062 147.199219 213.65625 149.527344 L 213.820312 149.644531 L 209.539062 156.023438 C 208.367188 157.777344 207.75 159.808594 207.75 161.9375 L 207.75 168.03125 C 207.75 174.800781 213.265625 180.304688 220.042969 180.304688 " fill-opacity="1" fill-rule="nonzero"/><path fill="#000000" d="M 236.195312 118.683594 C 238.183594 115.125 241.140625 113.535156 244.347656 114.167969 C 243.515625 114.953125 242.851562 115.875 242.378906 116.882812 L 242.371094 116.871094 L 234.082031 132.792969 L 229.878906 130.394531 Z M 259.792969 128.09375 C 260.519531 129.226562 262.078125 129.558594 263.199219 128.820312 C 263.199219 128.820312 265.390625 127.335938 265.390625 127.375 L 263.085938 137.644531 L 252.714844 135.515625 L 254.902344 134.117188 C 256.035156 133.398438 256.371094 131.84375 255.644531 130.722656 L 247.460938 117.972656 C 248.179688 117.140625 249.507812 116.210938 251.582031 117.101562 C 252.636719 117.570312 253.53125 118.328125 254.136719 119.277344 C 254.136719 119.277344 259.78125 128.074219 259.792969 128.09375 Z M 227.449219 134.664062 C 227.449219 134.664062 231.652344 137.050781 231.652344 137.058594 C 234.046875 138.414062 237.183594 137.484375 238.453125 135.054688 L 244.78125 122.894531 L 250.179688 131.304688 C 250.179688 131.304688 250.054688 131.390625 250.054688 131.390625 C 246.460938 133.695312 247.527344 139.402344 251.695312 140.273438 C 251.695312 140.273438 262.039062 142.449219 262.046875 142.449219 C 264.601562 142.988281 267.261719 141.394531 267.847656 138.75 C 267.847656 138.75 270.183594 128.457031 270.191406 128.417969 C 271.105469 124.246094 266.371094 120.929688 262.769531 123.257812 L 262.605469 123.363281 L 258.273438 116.621094 C 257.140625 114.867188 255.519531 113.484375 253.570312 112.613281 L 247.980469 110.175781 C 241.777344 107.472656 235.476562 109.878906 231.882812 116.335938 L 225.546875 128.0625 C 224.269531 130.433594 225.09375 133.328125 227.449219 134.664062 " fill-opacity="1" fill-rule="nonzero"/><path fill="#000000" d="M 280.253906 160.816406 C 282.175781 163.703125 281.773438 167.445312 279.535156 169.890625 C 279.304688 168.730469 278.871094 167.625 278.230469 166.667969 L 267.964844 151.3125 L 272.054688 148.570312 Z M 259.378906 175.40625 C 258.015625 175.40625 256.921875 176.507812 256.921875 177.859375 L 256.949219 180.285156 L 249.535156 173.007812 L 256.921875 165.546875 L 256.921875 168.039062 C 256.921875 169.390625 258.015625 170.496094 259.378906 170.496094 L 274.648438 170.496094 C 274.964844 171.550781 275.03125 173.160156 273.167969 174.425781 L 273.148438 174.4375 C 272.179688 175.070312 271.085938 175.40625 269.96875 175.40625 Z M 265.253906 147.21875 C 263.027344 148.695312 262.382812 151.792969 263.890625 154.015625 L 271.59375 165.582031 C 271.59375 165.582031 261.835938 165.582031 261.835938 165.515625 C 261.808594 163.53125 260.597656 161.765625 258.753906 161.027344 C 256.921875 160.289062 254.835938 160.722656 253.453125 162.121094 L 246.058594 169.546875 C 244.128906 171.472656 244.117188 174.492188 246.070312 176.441406 C 246.070312 176.441406 253.472656 183.757812 253.472656 183.769531 C 256.496094 186.761719 261.886719 184.621094 261.835938 180.316406 L 269.96875 180.316406 C 272.042969 180.316406 274.082031 179.703125 275.886719 178.523438 L 280.945312 175.136719 C 286.574219 171.375 288.101562 163.742188 284.355469 158.101562 C 284.355469 158.101562 276.175781 145.882812 276.164062 145.863281 C 274.667969 143.628906 271.582031 142.996094 269.347656 144.492188 C 269.347656 144.492188 265.265625 147.207031 265.253906 147.21875 " fill-opacity="1" fill-rule="nonzero"/><g clip-path="url(#61f42483fe)"><g clip-path="url(#988996f057)"><g clip-path="url(#3083eeff54)"><g clip-path="url(#95a7201ce9)"><path fill="url(#b72188f5da)" d="M 194.535156 105.828125 L 99.996094 125.289062 L 119.847656 221.722656 L 214.386719 202.265625 Z M 194.535156 105.828125 " fill-rule="nonzero"/></g></g></g></g><g clip-path="url(#bd22e01610)"><g clip-path="url(#894c2fc0e7)"><g clip-path="url(#f556c06240)"><path fill="#77b255" d="M 129.984375 135.855469 C 129.898438 135.894531 129.832031 135.960938 129.792969 136.050781 C 129.753906 136.144531 129.75 136.238281 129.78125 136.335938 C 129.78125 136.335938 131.335938 141.789062 132.753906 147.554688 C 133.464844 150.4375 134.132812 153.394531 134.5625 155.777344 C 134.777344 156.972656 134.929688 158.023438 134.996094 158.835938 C 135.058594 159.652344 135.011719 160.253906 134.945312 160.410156 C 134.902344 160.507812 134.898438 160.605469 134.933594 160.710938 C 134.96875 160.8125 135.03125 160.886719 135.125 160.9375 C 135.214844 160.984375 135.308594 160.992188 135.40625 160.957031 C 135.5 160.921875 135.570312 160.855469 135.613281 160.761719 C 135.816406 160.289062 135.800781 159.660156 135.730469 158.796875 C 135.664062 157.9375 135.5 156.863281 135.28125 155.65625 C 134.847656 153.238281 134.171875 150.265625 133.460938 147.371094 C 132.039062 141.585938 130.480469 136.117188 130.480469 136.117188 C 130.449219 136.003906 130.382812 135.921875 130.285156 135.871094 C 130.183594 135.816406 130.085938 135.8125 129.984375 135.855469 Z M 129.984375 135.855469 " fill-opacity="1" fill-rule="nonzero"/></g></g></g><g clip-path="url(#99d55547d4)"><g clip-path="url(#f284efe6df)"><g clip-path="url(#a98a618c8f)"><path fill="#77b255" d="M 140.769531 128.066406 C 140.675781 128.101562 140.609375 128.167969 140.566406 128.261719 C 140.523438 128.359375 140.523438 128.457031 140.554688 128.558594 C 140.554688 128.558594 141.523438 131.464844 143.789062 133.964844 C 146.050781 136.46875 149.691406 138.578125 154.804688 136.972656 C 160.105469 135.300781 162.613281 132.992188 163.804688 130.582031 C 164.992188 128.175781 164.867188 125.734375 165.066406 123.890625 C 165.078125 123.78125 165.050781 123.683594 164.988281 123.597656 C 164.925781 123.511719 164.84375 123.460938 164.742188 123.445312 C 164.640625 123.429688 164.550781 123.453125 164.472656 123.519531 C 164.390625 123.585938 164.347656 123.671875 164.335938 123.777344 C 164.121094 125.730469 164.230469 128.007812 163.144531 130.207031 C 162.054688 132.40625 159.769531 134.582031 154.578125 136.21875 C 149.710938 137.75 146.441406 135.792969 144.308594 133.433594 C 142.171875 131.074219 141.238281 128.320312 141.238281 128.320312 C 141.207031 128.214844 141.144531 128.136719 141.050781 128.089844 C 140.957031 128.039062 140.863281 128.03125 140.769531 128.066406 Z M 140.769531 128.066406 " fill-opacity="1" fill-rule="nonzero"/></g></g></g><g clip-path="url(#c5eca371a2)"><g clip-path="url(#a73557a214)"><g clip-path="url(#9b02409d6e)"><path fill="#77b255" d="M 143.566406 127.1875 L 143.105469 127.769531 C 143.125 127.792969 143.144531 127.800781 143.160156 127.820312 C 146.050781 131.089844 148.742188 132.5625 151.160156 132.859375 C 153.597656 133.15625 155.710938 132.257812 157.429688 130.96875 C 160.871094 128.386719 162.796875 124.179688 162.796875 124.179688 L 162.242188 123.695312 C 156.753906 128.355469 152.074219 129.195312 148.773438 128.902344 C 145.472656 128.609375 143.566406 127.1875 143.566406 127.1875 Z M 161.175781 125.511719 C 160.347656 126.914062 159.082031 128.773438 157.007812 130.332031 C 155.386719 131.546875 153.445312 132.355469 151.222656 132.082031 C 149.429688 131.863281 147.414062 130.875 145.222656 128.832031 C 146.140625 129.191406 147.285156 129.542969 148.734375 129.671875 C 151.886719 129.953125 156.214844 129.203125 161.175781 125.511719 Z M 161.175781 125.511719 " fill-opacity="1" fill-rule="nonzero"/></g></g></g><g clip-path="url(#676451f99b)"><g clip-path="url(#bea08f425c)"><g clip-path="url(#e156b043d1)"><path fill="#77b255" d="M 144.300781 202.011719 C 144.203125 202.035156 144.128906 202.09375 144.078125 202.1875 C 144.027344 202.28125 144.015625 202.378906 144.042969 202.484375 C 144.070312 202.589844 144.125 202.667969 144.214844 202.726562 C 144.300781 202.78125 144.394531 202.796875 144.492188 202.773438 L 190.726562 193.40625 C 190.828125 193.386719 190.90625 193.332031 190.960938 193.242188 C 191.015625 193.152344 191.03125 193.054688 191.011719 192.945312 C 190.988281 192.839844 190.933594 192.753906 190.847656 192.695312 C 190.761719 192.636719 190.667969 192.617188 190.570312 192.636719 L 144.335938 202.003906 C 144.324219 202.007812 144.3125 202.007812 144.300781 202.011719 Z M 144.300781 202.011719 " fill-opacity="1" fill-rule="nonzero"/></g></g></g><g clip-path="url(#c2ead6d0e6)"><g clip-path="url(#fddc1edc41)"><g clip-path="url(#b08eac31d9)"><path fill="#77b255" d="M 196.070312 139.382812 C 195.988281 139.410156 195.925781 139.464844 195.882812 139.542969 L 186.496094 154.757812 C 186.445312 154.847656 186.429688 154.945312 186.453125 155.050781 C 186.472656 155.15625 186.527344 155.242188 186.613281 155.300781 C 186.703125 155.359375 186.792969 155.378906 186.894531 155.359375 C 186.992188 155.335938 187.066406 155.28125 187.121094 155.191406 L 196.496094 139.980469 C 196.59375 139.828125 196.589844 139.675781 196.480469 139.523438 C 196.371094 139.371094 196.234375 139.324219 196.070312 139.382812 Z M 196.070312 139.382812 " fill-opacity="1" fill-rule="nonzero"/></g></g></g><g clip-path="url(#6bc8601e31)"><g clip-path="url(#c7cdb7d0f3)"><g clip-path="url(#3e1f284551)"><path fill="#77b255" d="M 118.335938 155.382812 C 118.1875 155.429688 118.101562 155.535156 118.085938 155.703125 C 118.066406 155.867188 118.125 155.996094 118.257812 156.085938 L 132.125 165.9375 C 132.210938 166.011719 132.308594 166.042969 132.414062 166.027344 C 132.523438 166.011719 132.605469 165.953125 132.664062 165.859375 C 132.722656 165.761719 132.738281 165.65625 132.707031 165.542969 C 132.679688 165.433594 132.617188 165.347656 132.519531 165.292969 L 118.648438 155.441406 C 118.550781 155.367188 118.449219 155.347656 118.335938 155.382812 Z M 118.335938 155.382812 " fill-opacity="1" fill-rule="nonzero"/></g></g></g><g clip-path="url(#fb0c6acdf1)"><g clip-path="url(#aeb916c3b5)"><g clip-path="url(#ac7072a35d)"><path fill="#77b255" d="M 176.992188 126.890625 C 176.828125 126.953125 176.75 127.078125 176.753906 127.265625 C 176.753906 127.265625 176.929688 132.179688 177.6875 137.742188 C 178.070312 140.523438 178.589844 143.472656 179.320312 146.0625 C 180.050781 148.65625 180.972656 150.890625 182.21875 152.277344 C 182.285156 152.367188 182.375 152.414062 182.480469 152.421875 C 182.585938 152.429688 182.679688 152.394531 182.753906 152.320312 C 182.832031 152.242188 182.867188 152.144531 182.863281 152.03125 C 182.859375 151.917969 182.816406 151.820312 182.738281 151.746094 C 181.652344 150.539062 180.734375 148.390625 180.023438 145.855469 C 179.3125 143.324219 178.789062 140.398438 178.414062 137.644531 C 177.660156 132.128906 177.488281 127.265625 177.488281 127.265625 C 177.484375 127.128906 177.433594 127.023438 177.328125 126.945312 C 177.222656 126.863281 177.109375 126.847656 176.992188 126.890625 Z M 176.992188 126.890625 " fill-opacity="1" fill-rule="nonzero"/></g></g></g><g clip-path="url(#13e97b1fbc)"><path fill="#000000" d="M 115.480469 91.546875 C 115.59375 80.832031 107.003906 72.058594 96.285156 71.933594 C 85.5625 71.820312 76.773438 80.40625 76.660156 91.121094 C 76.542969 101.832031 85.136719 110.613281 95.859375 110.730469 C 106.574219 110.851562 115.363281 102.257812 115.480469 91.546875 " fill-opacity="1" fill-rule="nonzero"/></g><path fill="#000000" d="M 45.222656 228.917969 L 62.796875 218.132812 L 66.332031 200.289062 C 62.292969 197.132812 59.804688 192.359375 59.597656 187.195312 C 59.539062 185.808594 59.648438 184.414062 59.921875 183.058594 L 70.011719 132.367188 C 71.859375 122.972656 80.972656 116.859375 90.367188 118.710938 C 91.964844 119.019531 93.417969 119.628906 94.839844 120.234375 C 97.355469 121.316406 99.160156 123.433594 100.460938 125.730469 L 100.503906 125.800781 C 104.335938 132.632812 112.160156 142.59375 117.894531 147.929688 L 118.082031 148.101562 L 134.375 146.507812 C 137.917969 146.152344 141.066406 148.753906 141.394531 152.300781 C 141.71875 155.832031 139.125 158.949219 135.589844 159.277344 L 118.425781 160.851562 C 116.203125 161.058594 113.96875 160.480469 112.125 159.21875 L 100.503906 151.28125 L 91.113281 184.039062 C 90.316406 186.882812 91.445312 189.925781 93.914062 191.566406 L 112.003906 203.601562 C 114.179688 205.121094 115.523438 207.574219 115.628906 210.226562 L 117.140625 247.347656 C 117.351562 252.367188 113.441406 256.605469 108.417969 256.808594 C 103.394531 257.007812 99.160156 253.109375 98.953125 248.089844 L 97.824219 220.386719 L 82.664062 210.761719 L 80.617188 226.632812 C 80.0625 229.023438 78.234375 230.910156 75.871094 231.558594 L 49.582031 245.476562 C 44.992188 246.738281 40.257812 244.015625 39.039062 239.417969 C 37.808594 234.800781 40.972656 231.464844 45.222656 228.917969 " fill-opacity="1" fill-rule="nonzero"/></svg>