<svg xmlns="http://www.w3.org/2000/svg" xmlns:xlink="http://www.w3.org/1999/xlink" width="500" zoomAndPan="magnify" viewBox="0 0 375 374.999991" height="500" preserveAspectRatio="xMidYMid meet" version="1.0"><defs><clipPath id="fe070c5a76"><path d="M 84.761719 141.660156 L 177.761719 141.660156 L 177.761719 249.660156 L 84.761719 249.660156 Z M 84.761719 141.660156 " clip-rule="nonzero"/></clipPath><clipPath id="8f7bc40db5"><path d="M 119 80 L 201 80 L 201 165 L 119 165 Z M 119 80 " clip-rule="nonzero"/></clipPath><clipPath id="ad383cb2e2"><path d="M 114.019531 90.566406 L 195.558594 73.78125 L 211.4375 150.914062 L 129.894531 167.699219 Z M 114.019531 90.566406 " clip-rule="nonzero"/></clipPath><clipPath id="fdb781ea65"><path d="M 114.019531 90.566406 L 195.558594 73.78125 L 211.4375 150.914062 L 129.894531 167.699219 Z M 114.019531 90.566406 " clip-rule="nonzero"/></clipPath><clipPath id="2a0648903d"><path d="M 119.425781 115.90625 L 134.179688 126.824219 L 135.839844 126.484375 L 138.242188 122.644531 L 146.507812 162.804688 L 147.304688 164.097656 L 193.609375 154.417969 L 194.8125 153.152344 L 186.191406 113.210938 L 190.328125 115.847656 L 191.675781 115.28125 L 200.71875 99.753906 L 200.316406 97.800781 L 181.429688 84.246094 L 163.851562 80.304688 C 163.851562 80.304688 159.386719 88.347656 146.421875 84.183594 L 132.3125 93.195312 L 119.421875 115.90625 Z M 119.425781 115.90625 " clip-rule="nonzero"/></clipPath><radialGradient gradientTransform="matrix(0.236873, 1.150698, -0.808232, 0.166356, 469.745693, -153.181756)" gradientUnits="userSpaceOnUse" r="66.008514" cx="175.679779" id="cde9bb4422" cy="431.352109" fx="175.679779" fy="431.352109"><stop stop-opacity="1" stop-color="rgb(100%, 35.975647%, 35.975647%)" offset="0"/><stop stop-opacity="1" stop-color="rgb(100%, 35.743713%, 35.743713%)" offset="0.03125"/><stop stop-opacity="1" stop-color="rgb(100%, 35.527039%, 35.527039%)" offset="0.0585938"/><stop stop-opacity="1" stop-color="rgb(100%, 35.31189%, 35.31189%)" offset="0.0859375"/><stop stop-opacity="1" stop-color="rgb(100%, 35.095215%, 35.095215%)" offset="0.113281"/><stop stop-opacity="1" stop-color="rgb(100%, 34.893799%, 34.893799%)" offset="0.140625"/><stop stop-opacity="1" stop-color="rgb(100%, 34.709167%, 34.709167%)" offset="0.164062"/><stop stop-opacity="1" stop-color="rgb(100%, 34.524536%, 34.524536%)" offset="0.1875"/><stop stop-opacity="1" stop-color="rgb(100%, 34.338379%, 34.338379%)" offset="0.210938"/><stop stop-opacity="1" stop-color="rgb(99.967957%, 34.106445%, 34.106445%)" offset="0.234375"/><stop stop-opacity="1" stop-color="rgb(99.884033%, 33.860779%, 33.860779%)" offset="0.257812"/><stop stop-opacity="1" stop-color="rgb(99.781799%, 33.647156%, 33.647156%)" offset="0.265625"/><stop stop-opacity="1" stop-color="rgb(99.679565%, 33.433533%, 33.433533%)" offset="0.273438"/><stop stop-opacity="1" stop-color="rgb(99.577332%, 33.221436%, 33.221436%)" offset="0.28125"/><stop stop-opacity="1" stop-color="rgb(99.473572%, 33.007812%, 33.007812%)" offset="0.289062"/><stop stop-opacity="1" stop-color="rgb(99.371338%, 32.794189%, 32.794189%)" offset="0.296875"/><stop stop-opacity="1" stop-color="rgb(99.269104%, 32.580566%, 32.580566%)" offset="0.304688"/><stop stop-opacity="1" stop-color="rgb(99.16687%, 32.366943%, 32.366943%)" offset="0.3125"/><stop stop-opacity="1" stop-color="rgb(99.064636%, 32.154846%, 32.154846%)" offset="0.320312"/><stop stop-opacity="1" stop-color="rgb(98.962402%, 31.941223%, 31.941223%)" offset="0.328125"/><stop stop-opacity="1" stop-color="rgb(98.858643%, 31.7276%, 31.7276%)" offset="0.335938"/><stop stop-opacity="1" stop-color="rgb(98.756409%, 31.513977%, 31.513977%)" offset="0.34375"/><stop stop-opacity="1" stop-color="rgb(98.654175%, 31.300354%, 31.300354%)" offset="0.351562"/><stop stop-opacity="1" stop-color="rgb(98.551941%, 31.086731%, 31.086731%)" offset="0.359375"/><stop stop-opacity="1" stop-color="rgb(98.449707%, 30.874634%, 30.874634%)" offset="0.367188"/><stop stop-opacity="1" stop-color="rgb(98.347473%, 30.661011%, 30.661011%)" offset="0.375"/><stop stop-opacity="1" stop-color="rgb(98.243713%, 30.447388%, 30.447388%)" offset="0.382812"/><stop stop-opacity="1" stop-color="rgb(98.141479%, 30.233765%, 30.233765%)" offset="0.390625"/><stop stop-opacity="1" stop-color="rgb(98.039246%, 30.020142%, 30.020142%)" offset="0.398438"/><stop stop-opacity="1" stop-color="rgb(97.937012%, 29.808044%, 29.808044%)" offset="0.40625"/><stop stop-opacity="1" stop-color="rgb(97.834778%, 29.594421%, 29.594421%)" offset="0.414062"/><stop stop-opacity="1" stop-color="rgb(97.732544%, 29.380798%, 29.380798%)" offset="0.421875"/><stop stop-opacity="1" stop-color="rgb(97.628784%, 29.167175%, 29.167175%)" offset="0.429688"/><stop stop-opacity="1" stop-color="rgb(97.52655%, 28.953552%, 28.953552%)" offset="0.4375"/><stop stop-opacity="1" stop-color="rgb(97.424316%, 28.739929%, 28.739929%)" offset="0.445312"/><stop stop-opacity="1" stop-color="rgb(97.322083%, 28.527832%, 28.527832%)" offset="0.453125"/><stop stop-opacity="1" stop-color="rgb(97.219849%, 28.314209%, 28.314209%)" offset="0.460938"/><stop stop-opacity="1" stop-color="rgb(97.117615%, 28.100586%, 28.100586%)" offset="0.46875"/><stop stop-opacity="1" stop-color="rgb(97.013855%, 27.886963%, 27.886963%)" offset="0.476562"/><stop stop-opacity="1" stop-color="rgb(96.911621%, 27.67334%, 27.67334%)" offset="0.484375"/><stop stop-opacity="1" stop-color="rgb(96.809387%, 27.459717%, 27.459717%)" offset="0.492188"/><stop stop-opacity="1" stop-color="rgb(96.707153%, 27.24762%, 27.24762%)" offset="0.5"/><stop stop-opacity="1" stop-color="rgb(96.578979%, 26.980591%, 26.980591%)" offset="0.507812"/><stop stop-opacity="1" stop-color="rgb(96.424866%, 26.660156%, 26.660156%)" offset="0.519531"/><stop stop-opacity="1" stop-color="rgb(96.270752%, 26.339722%, 26.339722%)" offset="0.53125"/><stop stop-opacity="1" stop-color="rgb(96.118164%, 26.020813%, 26.020813%)" offset="0.542969"/><stop stop-opacity="1" stop-color="rgb(95.96405%, 25.700378%, 25.700378%)" offset="0.554688"/><stop stop-opacity="1" stop-color="rgb(95.809937%, 25.379944%, 25.379944%)" offset="0.566406"/><stop stop-opacity="1" stop-color="rgb(95.655823%, 25.059509%, 25.059509%)" offset="0.578125"/><stop stop-opacity="1" stop-color="rgb(95.503235%, 24.740601%, 24.740601%)" offset="0.589844"/><stop stop-opacity="1" stop-color="rgb(95.349121%, 24.420166%, 24.420166%)" offset="0.601562"/><stop stop-opacity="1" stop-color="rgb(95.195007%, 24.099731%, 24.099731%)" offset="0.613281"/><stop stop-opacity="1" stop-color="rgb(95.040894%, 23.779297%, 23.779297%)" offset="0.625"/><stop stop-opacity="1" stop-color="rgb(94.91272%, 23.513794%, 23.513794%)" offset="0.636719"/><stop stop-opacity="1" stop-color="rgb(94.810486%, 23.300171%, 23.300171%)" offset="0.644531"/><stop stop-opacity="1" stop-color="rgb(94.708252%, 23.086548%, 23.086548%)" offset="0.652344"/><stop stop-opacity="1" stop-color="rgb(94.606018%, 22.872925%, 22.872925%)" offset="0.660156"/><stop stop-opacity="1" stop-color="rgb(94.503784%, 22.659302%, 22.659302%)" offset="0.667969"/><stop stop-opacity="1" stop-color="rgb(94.40155%, 22.447205%, 22.447205%)" offset="0.675781"/><stop stop-opacity="1" stop-color="rgb(94.297791%, 22.233582%, 22.233582%)" offset="0.683594"/><stop stop-opacity="1" stop-color="rgb(94.195557%, 22.019958%, 22.019958%)" offset="0.691406"/><stop stop-opacity="1" stop-color="rgb(94.093323%, 21.806335%, 21.806335%)" offset="0.699219"/><stop stop-opacity="1" stop-color="rgb(93.991089%, 21.592712%, 21.592712%)" offset="0.707031"/><stop stop-opacity="1" stop-color="rgb(93.888855%, 21.379089%, 21.379089%)" offset="0.714844"/><stop stop-opacity="1" stop-color="rgb(93.786621%, 21.166992%, 21.166992%)" offset="0.722656"/><stop stop-opacity="1" stop-color="rgb(93.682861%, 20.953369%, 20.953369%)" offset="0.730469"/><stop stop-opacity="1" stop-color="rgb(93.580627%, 20.739746%, 20.739746%)" offset="0.738281"/><stop stop-opacity="1" stop-color="rgb(93.478394%, 20.526123%, 20.526123%)" offset="0.746094"/><stop stop-opacity="1" stop-color="rgb(93.35022%, 20.259094%, 20.259094%)" offset="0.753906"/><stop stop-opacity="1" stop-color="rgb(93.196106%, 19.940186%, 19.940186%)" offset="0.765625"/><stop stop-opacity="1" stop-color="rgb(93.043518%, 19.619751%, 19.619751%)" offset="0.777344"/><stop stop-opacity="1" stop-color="rgb(92.889404%, 19.299316%, 19.299316%)" offset="0.789062"/><stop stop-opacity="1" stop-color="rgb(92.735291%, 18.978882%, 18.978882%)" offset="0.800781"/><stop stop-opacity="1" stop-color="rgb(92.581177%, 18.659973%, 18.659973%)" offset="0.8125"/><stop stop-opacity="1" stop-color="rgb(92.453003%, 18.392944%, 18.392944%)" offset="0.824219"/><stop stop-opacity="1" stop-color="rgb(92.350769%, 18.179321%, 18.179321%)" offset="0.832031"/><stop stop-opacity="1" stop-color="rgb(92.248535%, 17.965698%, 17.965698%)" offset="0.839844"/><stop stop-opacity="1" stop-color="rgb(92.146301%, 17.752075%, 17.752075%)" offset="0.847656"/><stop stop-opacity="1" stop-color="rgb(92.044067%, 17.539978%, 17.539978%)" offset="0.855469"/><stop stop-opacity="1" stop-color="rgb(91.940308%, 17.326355%, 17.326355%)" offset="0.863281"/><stop stop-opacity="1" stop-color="rgb(91.838074%, 17.112732%, 17.112732%)" offset="0.871094"/><stop stop-opacity="1" stop-color="rgb(91.7099%, 16.845703%, 16.845703%)" offset="0.878906"/><stop stop-opacity="1" stop-color="rgb(91.557312%, 16.525269%, 16.525269%)" offset="0.890625"/><stop stop-opacity="1" stop-color="rgb(91.403198%, 16.20636%, 16.20636%)" offset="0.902344"/><stop stop-opacity="1" stop-color="rgb(91.275024%, 15.939331%, 15.939331%)" offset="0.914062"/><stop stop-opacity="1" stop-color="rgb(91.172791%, 15.725708%, 15.725708%)" offset="0.921875"/><stop stop-opacity="1" stop-color="rgb(91.070557%, 15.512085%, 15.512085%)" offset="0.929688"/><stop stop-opacity="1" stop-color="rgb(90.966797%, 15.299988%, 15.299988%)" offset="0.9375"/><stop stop-opacity="1" stop-color="rgb(90.838623%, 15.032959%, 15.032959%)" offset="0.945312"/><stop stop-opacity="1" stop-color="rgb(90.710449%, 14.76593%, 14.76593%)" offset="0.957031"/><stop stop-opacity="1" stop-color="rgb(90.608215%, 14.552307%, 14.552307%)" offset="0.964844"/><stop stop-opacity="1" stop-color="rgb(90.480042%, 14.285278%, 14.285278%)" offset="0.972656"/><stop stop-opacity="1" stop-color="rgb(90.351868%, 14.019775%, 14.019775%)" offset="0.984375"/><stop stop-opacity="1" stop-color="rgb(90.249634%, 13.806152%, 13.806152%)" offset="0.992188"/><stop stop-opacity="1" stop-color="rgb(90.19928%, 13.699341%, 13.699341%)" offset="1"/></radialGradient><clipPath id="6207c4f213"><path d="M 132 94 L 139 94 L 139 120 L 132 120 Z M 132 94 " clip-rule="nonzero"/></clipPath><clipPath id="b22b51af2d"><path d="M 114.019531 90.566406 L 195.558594 73.78125 L 211.4375 150.914062 L 129.894531 167.699219 Z M 114.019531 90.566406 " clip-rule="nonzero"/></clipPath><clipPath id="4028db7bef"><path d="M 114.019531 90.566406 L 195.558594 73.78125 L 211.4375 150.914062 L 129.894531 167.699219 Z M 114.019531 90.566406 " clip-rule="nonzero"/></clipPath><clipPath id="1ae5283e78"><path d="M 143 81 L 168 81 L 168 96 L 143 96 Z M 143 81 " clip-rule="nonzero"/></clipPath><clipPath id="2fce13a4be"><path d="M 114.019531 90.566406 L 195.558594 73.78125 L 211.4375 150.914062 L 129.894531 167.699219 Z M 114.019531 90.566406 " clip-rule="nonzero"/></clipPath><clipPath id="f654125778"><path d="M 114.019531 90.566406 L 195.558594 73.78125 L 211.4375 150.914062 L 129.894531 167.699219 Z M 114.019531 90.566406 " clip-rule="nonzero"/></clipPath><clipPath id="88ad95ec34"><path d="M 145 82 L 166 82 L 166 92 L 145 92 Z M 145 82 " clip-rule="nonzero"/></clipPath><clipPath id="310703821b"><path d="M 114.019531 90.566406 L 195.558594 73.78125 L 211.4375 150.914062 L 129.894531 167.699219 Z M 114.019531 90.566406 " clip-rule="nonzero"/></clipPath><clipPath id="7fe37158f9"><path d="M 114.019531 90.566406 L 195.558594 73.78125 L 211.4375 150.914062 L 129.894531 167.699219 Z M 114.019531 90.566406 " clip-rule="nonzero"/></clipPath><clipPath id="8959f6c165"><path d="M 146 151 L 194 151 L 194 162 L 146 162 Z M 146 151 " clip-rule="nonzero"/></clipPath><clipPath id="74ed89797b"><path d="M 114.019531 90.566406 L 195.558594 73.78125 L 211.4375 150.914062 L 129.894531 167.699219 Z M 114.019531 90.566406 " clip-rule="nonzero"/></clipPath><clipPath id="82272c9443"><path d="M 114.019531 90.566406 L 195.558594 73.78125 L 211.4375 150.914062 L 129.894531 167.699219 Z M 114.019531 90.566406 " clip-rule="nonzero"/></clipPath><clipPath id="460f95495b"><path d="M 189 97 L 200 97 L 200 114 L 189 114 Z M 189 97 " clip-rule="nonzero"/></clipPath><clipPath id="01509a8eec"><path d="M 114.019531 90.566406 L 195.558594 73.78125 L 211.4375 150.914062 L 129.894531 167.699219 Z M 114.019531 90.566406 " clip-rule="nonzero"/></clipPath><clipPath id="3b76017f83"><path d="M 114.019531 90.566406 L 195.558594 73.78125 L 211.4375 150.914062 L 129.894531 167.699219 Z M 114.019531 90.566406 " clip-rule="nonzero"/></clipPath><clipPath id="9e4b1792cc"><path d="M 120 113 L 136 113 L 136 125 L 120 125 Z M 120 113 " clip-rule="nonzero"/></clipPath><clipPath id="bee7995e30"><path d="M 114.019531 90.566406 L 195.558594 73.78125 L 211.4375 150.914062 L 129.894531 167.699219 Z M 114.019531 90.566406 " clip-rule="nonzero"/></clipPath><clipPath id="2cd5a88491"><path d="M 114.019531 90.566406 L 195.558594 73.78125 L 211.4375 150.914062 L 129.894531 167.699219 Z M 114.019531 90.566406 " clip-rule="nonzero"/></clipPath><clipPath id="f912233a39"><path d="M 179 85 L 186 85 L 186 111 L 179 111 Z M 179 85 " clip-rule="nonzero"/></clipPath><clipPath id="253e3d8182"><path d="M 114.019531 90.566406 L 195.558594 73.78125 L 211.4375 150.914062 L 129.894531 167.699219 Z M 114.019531 90.566406 " clip-rule="nonzero"/></clipPath><clipPath id="ee263afaf8"><path d="M 114.019531 90.566406 L 195.558594 73.78125 L 211.4375 150.914062 L 129.894531 167.699219 Z M 114.019531 90.566406 " clip-rule="nonzero"/></clipPath><clipPath id="541011df3f"><path d="M 206 51.339844 L 249 51.339844 L 249 94 L 206 94 Z M 206 51.339844 " clip-rule="nonzero"/></clipPath><clipPath id="b16e6abfe4"><path d="M 179 101 L 289 101 L 289 249.339844 L 179 249.339844 Z M 179 101 " clip-rule="nonzero"/></clipPath></defs><g clip-path="url(#fe070c5a76)"><path fill="#ffffff" d="M 177.785156 148.640625 L 138.523438 148.640625 L 138.523438 141.660156 L 124.019531 141.660156 L 124.019531 148.640625 L 84.761719 148.640625 L 84.761719 161.601562 L 90.09375 161.601562 L 96.132812 249.660156 L 166.425781 249.660156 L 172.457031 161.585938 L 177.785156 161.585938 Z M 128.859375 146.519531 L 133.695312 146.519531 L 133.695312 148.640625 L 128.859375 148.640625 Z M 161.90625 244.800781 L 100.660156 244.800781 L 94.9375 161.585938 L 167.613281 161.585938 Z M 172.953125 156.726562 L 89.597656 156.726562 L 89.597656 153.484375 L 172.953125 153.484375 Z M 172.953125 156.726562 " fill-opacity="1" fill-rule="nonzero"/></g><path fill="#ffffff" d="M 128.859375 166.445312 L 133.695312 166.445312 L 133.695312 236.695312 L 128.859375 236.695312 Z M 128.859375 166.445312 " fill-opacity="1" fill-rule="nonzero"/><path fill="#ffffff" d="M 145.707031 236.554688 L 149.734375 166.304688 L 154.5625 166.585938 L 150.535156 236.835938 Z M 145.707031 236.554688 " fill-opacity="1" fill-rule="nonzero"/><path fill="#ffffff" d="M 107.65625 166.585938 L 112.480469 166.304688 L 116.511719 236.554688 L 111.683594 236.835938 Z M 107.65625 166.585938 " fill-opacity="1" fill-rule="nonzero"/><g clip-path="url(#8f7bc40db5)"><g clip-path="url(#ad383cb2e2)"><g clip-path="url(#fdb781ea65)"><g clip-path="url(#2a0648903d)"><path fill="url(#cde9bb4422)" d="M 197.414062 64.253906 L 102.875 83.710938 L 122.726562 180.148438 L 217.265625 160.691406 Z M 197.414062 64.253906 " fill-rule="nonzero"/></g></g></g></g><g clip-path="url(#6207c4f213)"><g clip-path="url(#b22b51af2d)"><g clip-path="url(#4028db7bef)"><path fill="#ff3131" d="M 132.867188 94.28125 C 132.777344 94.320312 132.714844 94.382812 132.675781 94.476562 C 132.636719 94.570312 132.632812 94.664062 132.664062 94.761719 C 132.664062 94.761719 134.214844 100.214844 135.636719 105.980469 C 136.34375 108.863281 137.015625 111.820312 137.445312 114.203125 C 137.660156 115.394531 137.8125 116.449219 137.875 117.261719 C 137.941406 118.078125 137.894531 118.679688 137.828125 118.835938 C 137.785156 118.929688 137.78125 119.03125 137.8125 119.132812 C 137.847656 119.238281 137.914062 119.3125 138.003906 119.363281 C 138.097656 119.410156 138.191406 119.417969 138.285156 119.382812 C 138.382812 119.347656 138.449219 119.28125 138.492188 119.183594 C 138.695312 118.714844 138.683594 118.082031 138.613281 117.222656 C 138.542969 116.363281 138.382812 115.289062 138.164062 114.082031 C 137.730469 111.664062 137.054688 108.691406 136.34375 105.796875 C 134.917969 100.011719 133.363281 94.542969 133.363281 94.542969 C 133.332031 94.429688 133.265625 94.347656 133.164062 94.296875 C 133.066406 94.242188 132.96875 94.238281 132.867188 94.28125 Z M 132.867188 94.28125 " fill-opacity="1" fill-rule="nonzero"/></g></g></g><g clip-path="url(#1ae5283e78)"><g clip-path="url(#2fce13a4be)"><g clip-path="url(#f654125778)"><path fill="#ff3131" d="M 143.648438 86.492188 C 143.554688 86.527344 143.488281 86.59375 143.449219 86.6875 C 143.40625 86.785156 143.402344 86.882812 143.4375 86.984375 C 143.4375 86.984375 144.40625 89.886719 146.667969 92.390625 C 148.933594 94.894531 152.570312 97.003906 157.683594 95.394531 C 162.988281 93.726562 165.492188 91.417969 166.683594 89.007812 C 167.875 86.597656 167.746094 84.160156 167.949219 82.3125 C 167.960938 82.207031 167.933594 82.109375 167.871094 82.023438 C 167.808594 81.9375 167.726562 81.886719 167.625 81.871094 C 167.523438 81.855469 167.433594 81.878906 167.351562 81.945312 C 167.273438 82.007812 167.226562 82.09375 167.214844 82.203125 C 167.003906 84.15625 167.113281 86.429688 166.023438 88.632812 C 164.9375 90.832031 162.652344 93.007812 157.460938 94.640625 C 152.59375 96.171875 149.324219 94.21875 147.1875 91.859375 C 145.054688 89.5 144.121094 86.742188 144.121094 86.742188 C 144.085938 86.640625 144.023438 86.5625 143.933594 86.511719 C 143.839844 86.464844 143.746094 86.457031 143.648438 86.492188 Z M 143.648438 86.492188 " fill-opacity="1" fill-rule="nonzero"/></g></g></g><g clip-path="url(#88ad95ec34)"><g clip-path="url(#310703821b)"><g clip-path="url(#7fe37158f9)"><path fill="#ff3131" d="M 146.449219 85.613281 L 145.984375 86.195312 C 146.003906 86.214844 146.023438 86.226562 146.042969 86.246094 C 148.933594 89.515625 151.621094 90.988281 154.042969 91.285156 C 156.476562 91.578125 158.59375 90.683594 160.3125 89.394531 C 163.753906 86.8125 165.679688 82.605469 165.679688 82.605469 L 165.125 82.117188 C 159.636719 86.777344 154.957031 87.621094 151.65625 87.328125 C 148.355469 87.03125 146.449219 85.613281 146.449219 85.613281 Z M 164.054688 83.9375 C 163.226562 85.339844 161.964844 87.199219 159.890625 88.753906 C 158.269531 89.972656 156.328125 90.777344 154.105469 90.507812 C 152.308594 90.289062 150.296875 89.296875 148.101562 87.257812 C 149.019531 87.617188 150.164062 87.96875 151.617188 88.097656 C 154.769531 88.378906 159.09375 87.628906 164.054688 83.9375 Z M 164.054688 83.9375 " fill-opacity="1" fill-rule="nonzero"/></g></g></g><g clip-path="url(#8959f6c165)"><g clip-path="url(#74ed89797b)"><g clip-path="url(#82272c9443)"><path fill="#ff3131" d="M 147.183594 160.4375 C 147.085938 160.460938 147.011719 160.519531 146.960938 160.613281 C 146.910156 160.703125 146.898438 160.804688 146.921875 160.910156 C 146.949219 161.015625 147.007812 161.09375 147.09375 161.152344 C 147.183594 161.207031 147.277344 161.222656 147.375 161.195312 L 193.609375 151.828125 C 193.707031 151.808594 193.785156 151.757812 193.839844 151.667969 C 193.898438 151.578125 193.914062 151.476562 193.890625 151.371094 C 193.871094 151.265625 193.816406 151.179688 193.730469 151.121094 C 193.640625 151.058594 193.550781 151.039062 193.449219 151.0625 L 147.214844 160.429688 C 147.203125 160.429688 147.191406 160.433594 147.183594 160.4375 Z M 147.183594 160.4375 " fill-opacity="1" fill-rule="nonzero"/></g></g></g><g clip-path="url(#460f95495b)"><g clip-path="url(#01509a8eec)"><g clip-path="url(#3b76017f83)"><path fill="#ff3131" d="M 198.949219 97.804688 C 198.867188 97.835938 198.804688 97.890625 198.761719 97.96875 L 189.378906 113.179688 C 189.324219 113.273438 189.308594 113.371094 189.332031 113.476562 C 189.355469 113.582031 189.410156 113.664062 189.496094 113.726562 C 189.582031 113.785156 189.675781 113.804688 189.773438 113.785156 C 189.875 113.761719 189.949219 113.707031 190.003906 113.613281 L 199.375 98.40625 C 199.476562 98.253906 199.472656 98.097656 199.363281 97.945312 C 199.253906 97.792969 199.117188 97.746094 198.949219 97.804688 Z M 198.949219 97.804688 " fill-opacity="1" fill-rule="nonzero"/></g></g></g><g clip-path="url(#9e4b1792cc)"><g clip-path="url(#bee7995e30)"><g clip-path="url(#2cd5a88491)"><path fill="#ff3131" d="M 121.214844 113.808594 C 121.066406 113.855469 120.984375 113.960938 120.964844 114.125 C 120.949219 114.292969 121.003906 114.421875 121.140625 114.511719 L 135.007812 124.363281 C 135.09375 124.4375 135.1875 124.464844 135.296875 124.449219 C 135.402344 124.433594 135.488281 124.378906 135.546875 124.28125 C 135.605469 124.1875 135.617188 124.082031 135.589844 123.96875 C 135.558594 123.855469 135.496094 123.773438 135.398438 123.71875 L 121.53125 113.867188 C 121.433594 113.792969 121.328125 113.773438 121.214844 113.808594 Z M 121.214844 113.808594 " fill-opacity="1" fill-rule="nonzero"/></g></g></g><g clip-path="url(#f912233a39)"><g clip-path="url(#253e3d8182)"><g clip-path="url(#ee263afaf8)"><path fill="#ff3131" d="M 179.875 85.316406 C 179.707031 85.378906 179.628906 85.503906 179.636719 85.691406 C 179.636719 85.691406 179.808594 90.605469 180.570312 96.167969 C 180.949219 98.949219 181.472656 101.898438 182.203125 104.488281 C 182.929688 107.082031 183.855469 109.316406 185.097656 110.703125 C 185.167969 110.789062 185.253906 110.839844 185.363281 110.847656 C 185.46875 110.855469 185.558594 110.820312 185.636719 110.742188 C 185.710938 110.664062 185.75 110.570312 185.746094 110.457031 C 185.742188 110.34375 185.699219 110.246094 185.617188 110.167969 C 184.535156 108.964844 183.617188 106.816406 182.90625 104.28125 C 182.191406 101.75 181.671875 98.824219 181.296875 96.066406 C 180.542969 90.554688 180.371094 85.6875 180.371094 85.6875 C 180.367188 85.554688 180.3125 85.445312 180.207031 85.367188 C 180.105469 85.289062 179.992188 85.273438 179.875 85.316406 Z M 179.875 85.316406 " fill-opacity="1" fill-rule="nonzero"/></g></g></g><g clip-path="url(#541011df3f)"><path fill="#ffffff" d="M 206.761719 72.503906 C 206.636719 61.046875 215.824219 51.667969 227.285156 51.539062 C 238.753906 51.414062 248.152344 60.59375 248.273438 72.046875 C 248.398438 83.496094 239.210938 92.882812 227.742188 93.003906 C 216.28125 93.136719 206.882812 83.949219 206.761719 72.503906 " fill-opacity="1" fill-rule="nonzero"/></g><g clip-path="url(#b16e6abfe4)"><path fill="#ffffff" d="M 281.890625 219.324219 L 263.097656 207.800781 L 259.316406 188.726562 C 263.636719 185.355469 266.296875 180.25 266.519531 174.734375 C 266.582031 173.25 266.464844 171.761719 266.171875 170.308594 L 255.382812 116.128906 C 253.40625 106.089844 243.660156 99.558594 233.613281 101.535156 C 231.90625 101.867188 230.351562 102.515625 228.832031 103.164062 C 226.140625 104.320312 224.210938 106.582031 222.820312 109.035156 L 222.773438 109.113281 C 218.675781 116.417969 210.308594 127.0625 204.179688 132.765625 L 203.976562 132.949219 L 186.550781 131.246094 C 182.765625 130.867188 179.394531 133.644531 179.046875 137.433594 C 178.699219 141.210938 181.476562 144.542969 185.253906 144.890625 L 203.605469 146.574219 C 205.988281 146.796875 208.375 146.179688 210.347656 144.828125 L 222.773438 136.347656 L 232.820312 171.359375 C 233.667969 174.402344 232.464844 177.652344 229.820312 179.402344 L 210.476562 192.269531 C 208.152344 193.890625 206.714844 196.515625 206.597656 199.347656 L 204.984375 239.023438 C 204.757812 244.386719 208.941406 248.917969 214.308594 249.136719 C 219.679688 249.351562 224.210938 245.183594 224.433594 239.820312 L 225.640625 210.210938 L 241.851562 199.917969 L 244.039062 216.886719 C 244.632812 219.441406 246.589844 221.457031 249.117188 222.148438 L 277.230469 237.023438 C 282.136719 238.375 287.199219 235.464844 288.503906 230.546875 C 289.820312 225.617188 286.433594 222.050781 281.890625 219.324219 " fill-opacity="1" fill-rule="nonzero"/></g></svg>