<svg xmlns="http://www.w3.org/2000/svg" xmlns:xlink="http://www.w3.org/1999/xlink" width="500" zoomAndPan="magnify" viewBox="0 0 375 374.999991" height="500" preserveAspectRatio="xMidYMid meet" version="1.0"><defs><clipPath id="3eeff50b22"><path d="M 164 47.179688 L 211 47.179688 L 211 93 L 164 93 Z M 164 47.179688 " clip-rule="nonzero"/></clipPath><clipPath id="bd1a5346c7"><path d="M 149.417969 96 L 225.167969 96 L 225.167969 293.929688 L 149.417969 293.929688 Z M 149.417969 96 " clip-rule="nonzero"/></clipPath><clipPath id="b0aa155fa7"><path d="M 231.050781 106.617188 L 268 106.617188 L 268 194.367188 L 231.050781 194.367188 Z M 231.050781 106.617188 " clip-rule="nonzero"/></clipPath><clipPath id="d0395eb8b9"><path d="M 107 120.945312 L 144.90625 120.945312 L 144.90625 189.945312 L 107 189.945312 Z M 107 120.945312 " clip-rule="nonzero"/></clipPath><clipPath id="b963982bc8"><path d="M 118.109375 90.601562 L 254.609375 90.601562 L 254.609375 220.351562 L 118.109375 220.351562 Z M 118.109375 90.601562 " clip-rule="nonzero"/></clipPath><clipPath id="eefdc78ed4"><path d="M 118.410156 133.292969 L 138.496094 155.8125 L 141.273438 155.8125 L 146.402344 150.417969 L 146.402344 217.976562 L 147.257812 220.320312 L 224.824219 220.085938 L 227.175781 218.445312 L 226.535156 151.121094 L 232.304688 156.75 L 234.652344 156.28125 L 254.3125 134.230469 L 254.3125 130.945312 L 228.457031 102.796875 L 201.53125 90.597656 C 201.53125 90.597656 191.703125 102.09375 172.257812 91.070312 L 146.613281 100.921875 L 118.40625 133.292969 Z M 118.410156 133.292969 " clip-rule="nonzero"/></clipPath><radialGradient gradientTransform="matrix(0, 1.177154, -0.822846, -0.0000188104, 770.002486, -184.582266)" gradientUnits="userSpaceOnUse" r="108.541736" cx="288.88074" id="82c1e192da" cy="709.298003" fx="288.88074" fy="709.298003"><stop stop-opacity="1" stop-color="rgb(49.398804%, 85.099792%, 34.098816%)" offset="0"/><stop stop-opacity="1" stop-color="rgb(49.398804%, 85.099792%, 34.098816%)" offset="1"/></radialGradient></defs><g clip-path="url(#3eeff50b22)"><path fill="#ffffff" d="M 210.21875 69.894531 C 210.21875 70.636719 210.183594 71.378906 210.109375 72.117188 C 210.035156 72.855469 209.929688 73.589844 209.78125 74.320312 C 209.636719 75.046875 209.457031 75.765625 209.242188 76.476562 C 209.023438 77.1875 208.773438 77.886719 208.492188 78.574219 C 208.207031 79.257812 207.886719 79.929688 207.539062 80.585938 C 207.1875 81.238281 206.804688 81.875 206.390625 82.492188 C 205.976562 83.109375 205.535156 83.707031 205.0625 84.28125 C 204.59375 84.855469 204.09375 85.402344 203.566406 85.929688 C 203.042969 86.453125 202.492188 86.953125 201.914062 87.421875 C 201.339844 87.894531 200.746094 88.335938 200.125 88.75 C 199.507812 89.160156 198.871094 89.542969 198.214844 89.894531 C 197.558594 90.242188 196.886719 90.558594 196.199219 90.84375 C 195.511719 91.128906 194.8125 91.378906 194.101562 91.59375 C 193.390625 91.808594 192.667969 91.988281 191.9375 92.132812 C 191.210938 92.277344 190.472656 92.386719 189.734375 92.460938 C 188.992188 92.535156 188.25 92.570312 187.507812 92.570312 C 186.765625 92.570312 186.023438 92.535156 185.28125 92.460938 C 184.542969 92.386719 183.808594 92.277344 183.078125 92.132812 C 182.347656 91.988281 181.628906 91.808594 180.914062 91.59375 C 180.203125 91.378906 179.503906 91.128906 178.816406 90.84375 C 178.128906 90.558594 177.457031 90.242188 176.800781 89.894531 C 176.144531 89.542969 175.507812 89.160156 174.890625 88.75 C 174.273438 88.335938 173.675781 87.894531 173.101562 87.421875 C 172.523438 86.953125 171.976562 86.453125 171.449219 85.929688 C 170.921875 85.402344 170.425781 84.855469 169.953125 84.28125 C 169.480469 83.707031 169.039062 83.109375 168.625 82.492188 C 168.210938 81.875 167.828125 81.238281 167.480469 80.585938 C 167.128906 79.929688 166.808594 79.257812 166.527344 78.574219 C 166.242188 77.886719 165.992188 77.1875 165.773438 76.476562 C 165.558594 75.765625 165.378906 75.046875 165.234375 74.320312 C 165.089844 73.589844 164.980469 72.855469 164.90625 72.117188 C 164.832031 71.378906 164.796875 70.636719 164.796875 69.894531 C 164.796875 69.152344 164.832031 68.410156 164.90625 67.671875 C 164.980469 66.933594 165.089844 66.199219 165.234375 65.472656 C 165.378906 64.742188 165.558594 64.023438 165.773438 63.3125 C 165.992188 62.601562 166.242188 61.90625 166.527344 61.21875 C 166.808594 60.53125 167.128906 59.863281 167.480469 59.207031 C 167.828125 58.550781 168.210938 57.914062 168.625 57.296875 C 169.039062 56.679688 169.480469 56.085938 169.953125 55.511719 C 170.425781 54.9375 170.921875 54.386719 171.449219 53.863281 C 171.976562 53.335938 172.527344 52.839844 173.101562 52.367188 C 173.675781 51.898438 174.273438 51.453125 174.890625 51.042969 C 175.507812 50.628906 176.144531 50.25 176.800781 49.898438 C 177.457031 49.546875 178.128906 49.230469 178.816406 48.945312 C 179.503906 48.664062 180.203125 48.414062 180.914062 48.199219 C 181.628906 47.980469 182.347656 47.800781 183.078125 47.65625 C 183.808594 47.511719 184.542969 47.402344 185.28125 47.332031 C 186.023438 47.257812 186.765625 47.222656 187.507812 47.222656 C 188.25 47.222656 188.992188 47.257812 189.734375 47.332031 C 190.472656 47.402344 191.210938 47.511719 191.9375 47.65625 C 192.667969 47.800781 193.390625 47.980469 194.101562 48.199219 C 194.8125 48.414062 195.511719 48.664062 196.199219 48.945312 C 196.886719 49.230469 197.558594 49.546875 198.214844 49.898438 C 198.871094 50.25 199.507812 50.628906 200.125 51.042969 C 200.746094 51.453125 201.339844 51.898438 201.914062 52.367188 C 202.492188 52.839844 203.042969 53.335938 203.566406 53.863281 C 204.09375 54.386719 204.59375 54.9375 205.0625 55.511719 C 205.535156 56.085938 205.976562 56.679688 206.390625 57.296875 C 206.804688 57.914062 207.1875 58.550781 207.539062 59.207031 C 207.886719 59.863281 208.207031 60.53125 208.492188 61.21875 C 208.773438 61.90625 209.023438 62.601562 209.242188 63.3125 C 209.457031 64.023438 209.636719 64.742188 209.78125 65.472656 C 209.929688 66.199219 210.035156 66.933594 210.109375 67.671875 C 210.183594 68.410156 210.21875 69.152344 210.21875 69.894531 Z M 210.21875 69.894531 " fill-opacity="1" fill-rule="nonzero"/></g><g clip-path="url(#bd1a5346c7)"><path fill="#ffffff" d="M 253.230469 176.109375 L 252.65625 174.53125 C 244.015625 150.820312 233.3125 127.910156 220.675781 106.058594 C 217.261719 100.152344 210.949219 96.511719 204.113281 96.511719 L 170.902344 96.511719 C 164.070312 96.511719 157.753906 100.152344 154.339844 106.058594 C 141.703125 127.910156 131.003906 150.820312 122.359375 174.53125 L 121.785156 176.109375 C 120.007812 180.984375 122.527344 186.347656 127.390625 188.113281 C 132.253906 189.882812 137.636719 187.390625 139.414062 182.515625 C 145.09375 166.941406 151.679688 151.71875 159.101562 136.90625 C 159.289062 136.535156 159.859375 136.667969 159.859375 137.085938 L 159.859375 280.84375 C 159.859375 287.589844 165.066406 293.472656 171.824219 293.675781 C 178.8125 293.886719 184.546875 288.289062 184.546875 281.359375 L 184.546875 188.195312 C 184.546875 186.5625 185.871094 185.238281 187.507812 185.238281 C 189.144531 185.238281 190.46875 186.5625 190.46875 188.195312 L 190.46875 280.84375 C 190.46875 287.589844 195.679688 293.472656 202.433594 293.675781 C 209.425781 293.886719 215.15625 288.289062 215.15625 281.359375 L 215.15625 137.085938 C 215.15625 136.667969 215.726562 136.535156 215.914062 136.90625 C 223.335938 151.71875 229.921875 166.941406 235.601562 182.515625 C 237.378906 187.390625 242.761719 189.882812 247.625 188.113281 C 252.488281 186.347656 255.007812 180.984375 253.230469 176.109375 Z M 253.230469 176.109375 " fill-opacity="1" fill-rule="nonzero"/></g><g clip-path="url(#b0aa155fa7)"><path fill="#ffffff" d="M 266.644531 180.265625 L 266.066406 178.683594 C 257.425781 154.976562 246.726562 132.0625 234.089844 110.214844 C 230.671875 104.304688 224.359375 100.667969 217.527344 100.667969 L 184.3125 100.667969 C 177.480469 100.667969 171.167969 104.304688 167.75 110.214844 C 155.113281 132.0625 144.414062 154.976562 135.769531 178.683594 L 135.195312 180.265625 C 133.417969 185.136719 135.941406 190.503906 140.800781 192.269531 C 145.664062 194.035156 151.046875 191.542969 152.824219 186.671875 C 158.503906 171.09375 165.089844 155.875 172.511719 141.058594 C 172.699219 140.6875 173.269531 140.824219 173.269531 141.238281 L 173.269531 284.996094 C 173.269531 291.742188 178.480469 297.628906 185.234375 297.832031 C 192.226562 298.039062 197.957031 292.445312 197.957031 285.511719 L 197.957031 192.351562 C 197.957031 190.71875 199.285156 189.394531 200.917969 189.394531 C 202.554688 189.394531 203.882812 190.71875 203.882812 192.351562 L 203.882812 284.996094 C 203.882812 291.742188 209.089844 297.628906 215.84375 297.832031 C 222.835938 298.039062 228.566406 292.445312 228.566406 285.511719 L 228.566406 141.238281 C 228.566406 140.824219 229.140625 140.6875 229.328125 141.058594 C 236.746094 155.875 243.335938 171.09375 249.011719 186.671875 C 250.789062 191.542969 256.175781 194.035156 261.035156 192.269531 C 265.898438 190.503906 268.417969 185.136719 266.644531 180.265625 Z M 266.644531 180.265625 " fill-opacity="1" fill-rule="nonzero"/></g><g clip-path="url(#d0395eb8b9)"><path fill="#ffffff" d="M 239.894531 177.453125 L 239.316406 175.875 C 230.675781 152.164062 219.972656 129.253906 207.335938 107.402344 C 203.921875 101.496094 197.609375 97.855469 190.773438 97.855469 L 157.5625 97.855469 C 150.730469 97.855469 144.414062 101.496094 141 107.402344 C 128.363281 129.253906 117.664062 152.164062 109.019531 175.875 L 108.445312 177.453125 C 106.667969 182.328125 109.1875 187.691406 114.050781 189.457031 C 118.914062 191.226562 124.296875 188.734375 126.074219 183.859375 C 131.753906 168.285156 138.339844 153.0625 145.761719 138.25 C 145.949219 137.878906 146.519531 138.011719 146.519531 138.429688 L 146.519531 282.1875 C 146.519531 288.933594 151.726562 294.816406 158.484375 295.019531 C 165.472656 295.230469 171.207031 289.632812 171.207031 282.703125 L 171.207031 189.539062 C 171.207031 187.90625 172.53125 186.582031 174.167969 186.582031 C 175.804688 186.582031 177.132812 187.90625 177.132812 189.539062 L 177.132812 282.1875 C 177.132812 288.933594 182.339844 294.816406 189.09375 295.019531 C 196.085938 295.230469 201.816406 289.632812 201.816406 282.703125 L 201.816406 138.429688 C 201.816406 138.011719 202.386719 137.878906 202.574219 138.25 C 209.996094 153.0625 216.585938 168.285156 222.261719 183.859375 C 224.039062 188.734375 229.425781 191.226562 234.285156 189.457031 C 239.148438 187.691406 241.667969 182.328125 239.894531 177.453125 Z M 239.894531 177.453125 " fill-opacity="1" fill-rule="nonzero"/></g><g clip-path="url(#b963982bc8)"><g clip-path="url(#eefdc78ed4)"><path fill="url(#82c1e192da)" d="M 254.3125 90.601562 L 118.40625 90.597656 L 118.40625 220.320312 L 254.3125 220.324219 Z M 254.3125 90.601562 " fill-rule="nonzero"/></g></g><path fill="#77b255" d="M 147.144531 102.859375 C 146.992188 102.890625 146.867188 102.972656 146.773438 103.109375 C 146.679688 103.246094 146.644531 103.398438 146.660156 103.566406 C 146.660156 103.566406 147.351562 112.882812 147.726562 122.65625 C 147.914062 127.546875 148.011719 132.539062 147.914062 136.527344 C 147.863281 138.523438 147.761719 140.273438 147.59375 141.609375 C 147.429688 142.945312 147.15625 143.898438 146.996094 144.128906 C 146.894531 144.273438 146.855469 144.429688 146.875 144.609375 C 146.898438 144.789062 146.976562 144.929688 147.105469 145.039062 C 147.238281 145.148438 147.386719 145.191406 147.550781 145.167969 C 147.71875 145.144531 147.851562 145.058594 147.949219 144.914062 C 148.433594 144.222656 148.617188 143.203125 148.792969 141.789062 C 148.964844 140.378906 149.058594 138.589844 149.109375 136.570312 C 149.210938 132.523438 149.109375 127.5 148.921875 122.597656 C 148.546875 112.789062 147.855469 103.445312 147.855469 103.445312 C 147.84375 103.25 147.765625 103.097656 147.625 102.980469 C 147.480469 102.863281 147.320312 102.824219 147.144531 102.859375 Z M 147.144531 102.859375 " fill-opacity="1" fill-rule="nonzero"/><path fill="#77b255" d="M 167.042969 93.867188 C 166.878906 93.894531 166.75 93.976562 166.652344 94.121094 C 166.550781 94.261719 166.515625 94.417969 166.535156 94.59375 C 166.535156 94.59375 167.132812 99.601562 169.941406 104.394531 C 172.746094 109.183594 177.894531 113.800781 186.636719 112.902344 C 195.707031 111.96875 200.496094 109.074219 203.203125 105.582031 C 205.910156 102.089844 206.511719 98.109375 207.445312 95.199219 C 207.5 95.03125 207.492188 94.863281 207.417969 94.703125 C 207.34375 94.542969 207.230469 94.433594 207.070312 94.375 C 206.914062 94.316406 206.761719 94.328125 206.613281 94.40625 C 206.464844 94.484375 206.363281 94.605469 206.308594 94.777344 C 205.316406 97.855469 204.742188 101.566406 202.269531 104.753906 C 199.792969 107.945312 195.402344 110.699219 186.523438 111.609375 C 178.203125 112.464844 173.597656 108.226562 170.949219 103.707031 C 168.300781 99.1875 167.714844 94.433594 167.714844 94.433594 C 167.695312 94.253906 167.617188 94.109375 167.488281 94 C 167.355469 93.886719 167.207031 93.84375 167.039062 93.867188 Z M 167.042969 93.867188 " fill-opacity="1" fill-rule="nonzero"/><path fill="#77b255" d="M 171.824219 93.382812 L 170.890625 94.167969 C 170.914062 94.207031 170.941406 94.230469 170.964844 94.269531 C 174.523438 100.503906 178.359375 103.773438 182.148438 105.054688 C 185.960938 106.34375 189.652344 105.597656 192.84375 104.085938 C 199.21875 101.0625 203.707031 94.914062 203.707031 94.914062 L 202.976562 93.945312 C 192.621094 99.644531 184.828125 99.449219 179.621094 97.878906 C 174.417969 96.304688 171.824219 93.382812 171.824219 93.382812 Z M 200.65625 96.527344 C 198.863281 98.515625 196.222656 101.09375 192.375 102.917969 C 189.367188 104.34375 185.980469 105 182.503906 103.824219 C 179.691406 102.875 176.785156 100.605469 173.9375 96.585938 C 175.296875 97.46875 177.015625 98.414062 179.304688 99.105469 C 184.277344 100.609375 191.472656 100.835938 200.65625 96.527344 Z M 200.65625 96.527344 " fill-opacity="1" fill-rule="nonzero"/><path fill="#77b255" d="M 148.265625 214.375 C 148.101562 214.382812 147.960938 214.453125 147.851562 214.585938 C 147.738281 214.714844 147.6875 214.871094 147.695312 215.050781 C 147.703125 215.226562 147.769531 215.378906 147.890625 215.496094 C 148.011719 215.617188 148.15625 215.671875 148.324219 215.664062 L 225.675781 215.90625 C 225.839844 215.910156 225.984375 215.847656 226.101562 215.722656 C 226.222656 215.59375 226.28125 215.441406 226.28125 215.261719 C 226.28125 215.082031 226.222656 214.929688 226.101562 214.800781 C 225.984375 214.675781 225.839844 214.613281 225.675781 214.617188 L 148.324219 214.375 C 148.304688 214.375 148.285156 214.375 148.265625 214.375 Z M 148.265625 214.375 " fill-opacity="1" fill-rule="nonzero"/><path fill="#77b255" d="M 252.113281 130.5 C 251.972656 130.519531 251.855469 130.589844 251.757812 130.699219 L 231.660156 152.132812 C 231.542969 152.261719 231.484375 152.414062 231.488281 152.59375 C 231.488281 152.773438 231.550781 152.925781 231.667969 153.050781 C 231.789062 153.175781 231.929688 153.238281 232.09375 153.234375 C 232.261719 153.234375 232.402344 153.167969 232.519531 153.039062 L 252.601562 131.609375 C 252.8125 131.394531 252.855469 131.144531 252.730469 130.863281 C 252.605469 130.582031 252.402344 130.460938 252.113281 130.5 Z M 252.113281 130.5 " fill-opacity="1" fill-rule="nonzero"/><path fill="#77b255" d="M 121.980469 130.5 C 121.726562 130.527344 121.554688 130.667969 121.472656 130.929688 C 121.390625 131.191406 121.441406 131.417969 121.625 131.609375 L 140.640625 152.113281 C 140.753906 152.261719 140.898438 152.339844 141.074219 152.351562 C 141.253906 152.363281 141.40625 152.300781 141.53125 152.164062 C 141.65625 152.027344 141.714844 151.863281 141.703125 151.671875 C 141.695312 151.480469 141.621094 151.324219 141.480469 151.203125 L 122.464844 130.699219 C 122.335938 130.550781 122.171875 130.480469 121.980469 130.5 Z M 121.980469 130.5 " fill-opacity="1" fill-rule="nonzero"/><path fill="#77b255" d="M 225.605469 104.007812 C 225.320312 104.050781 225.152344 104.226562 225.101562 104.53125 C 225.101562 104.53125 223.753906 112.519531 223.136719 121.75 C 222.828125 126.363281 222.691406 131.296875 223.007812 135.71875 C 223.320312 140.144531 224.066406 144.0625 225.605469 146.707031 C 225.6875 146.875 225.8125 146.984375 225.980469 147.03125 C 226.148438 147.082031 226.308594 147.054688 226.453125 146.953125 C 226.601562 146.855469 226.691406 146.710938 226.722656 146.527344 C 226.757812 146.339844 226.71875 146.171875 226.617188 146.023438 C 225.273438 143.714844 224.511719 139.945312 224.203125 135.621094 C 223.898438 131.292969 224.027344 126.402344 224.335938 121.828125 C 224.945312 112.683594 226.277344 104.773438 226.277344 104.773438 C 226.296875 104.671875 226.292969 104.566406 226.269531 104.46875 C 226.242188 104.367188 226.195312 104.277344 226.128906 104.203125 C 226.058594 104.125 225.980469 104.070312 225.886719 104.035156 C 225.796875 104 225.703125 103.992188 225.605469 104.007812 Z M 225.605469 104.007812 " fill-opacity="1" fill-rule="nonzero"/></svg>