<svg xmlns="http://www.w3.org/2000/svg" xmlns:xlink="http://www.w3.org/1999/xlink" width="500" zoomAndPan="magnify" viewBox="0 0 375 374.999991" height="500" preserveAspectRatio="xMidYMid meet" version="1.0"><defs><clipPath id="0cdf15b6e2"><path d="M 42.964844 54 L 163 54 L 163 225 L 42.964844 225 Z M 42.964844 54 " clip-rule="nonzero"/></clipPath><clipPath id="adf17d2470"><path d="M 49 151 L 331 151 L 331 327.621094 L 49 327.621094 Z M 49 151 " clip-rule="nonzero"/></clipPath><clipPath id="71c285e68f"><path d="M 145 47.121094 L 331.714844 47.121094 L 331.714844 129 L 145 129 Z M 145 47.121094 " clip-rule="nonzero"/></clipPath></defs><path fill="#000000" d="M 55.375 199.695312 L 97.660156 199.695312 L 97.660156 208.734375 L 55.375 208.734375 Z M 55.375 199.695312 " fill-opacity="1" fill-rule="nonzero"/><path fill="#000000" d="M 106.671875 199.695312 L 130.882812 199.695312 L 130.882812 208.734375 L 106.671875 208.734375 Z M 106.671875 199.695312 " fill-opacity="1" fill-rule="nonzero"/><g clip-path="url(#0cdf15b6e2)"><path fill="#000000" d="M 153.09375 115.097656 C 145.917969 112.449219 138 115.90625 135.066406 122.972656 L 134.832031 123.535156 L 134.792969 119.78125 L 134.734375 74.550781 C 134.726562 66.375 128.066406 59.71875 119.839844 59.71875 C 119.835938 59.71875 119.835938 59.71875 119.832031 59.71875 C 117.058594 59.71875 114.40625 60.488281 112.097656 61.90625 C 109.546875 57.382812 104.707031 54.316406 99.15625 54.316406 C 95.1875 54.316406 91.453125 55.867188 88.648438 58.679688 C 87.546875 59.78125 86.652344 61.023438 85.957031 62.367188 C 83.773438 61.105469 81.246094 60.371094 78.542969 60.371094 C 78.542969 60.371094 78.542969 60.371094 78.539062 60.371094 C 74.570312 60.371094 70.839844 61.917969 68.035156 64.726562 C 67.09375 65.667969 66.3125 66.71875 65.667969 67.839844 C 63.355469 66.417969 60.699219 65.644531 57.914062 65.644531 C 57.914062 65.644531 57.914062 65.644531 57.910156 65.644531 L 57.796875 65.644531 C 53.816406 65.644531 50.082031 67.199219 47.273438 70.019531 C 44.46875 72.839844 42.933594 76.585938 42.953125 80.5625 L 43.296875 156.667969 C 43.386719 165.199219 45.992188 173.328125 50.851562 180.285156 L 50.851562 212.398438 C 50.851562 219.335938 56.496094 224.984375 63.4375 224.984375 L 122.8125 224.984375 C 129.753906 224.984375 135.398438 219.335938 135.398438 212.398438 L 135.398438 179.699219 L 138.480469 176.097656 C 147.074219 166.046875 153.726562 154.652344 158.253906 142.230469 L 161.515625 133.289062 C 164.191406 125.957031 160.414062 117.796875 153.09375 115.097656 Z M 153.027344 130.1875 L 149.765625 139.132812 C 145.605469 150.535156 139.5 160.996094 131.613281 170.21875 L 126.359375 176.359375 L 126.359375 212.394531 C 126.359375 214.351562 124.769531 215.941406 122.816406 215.941406 L 63.441406 215.941406 C 61.484375 215.941406 59.894531 214.351562 59.894531 212.394531 L 59.894531 177.308594 L 58.984375 176.097656 C 54.710938 170.425781 52.414062 163.675781 52.339844 156.601562 L 51.992188 80.523438 C 51.988281 78.964844 52.585938 77.5 53.683594 76.398438 C 54.78125 75.292969 56.246094 74.6875 57.800781 74.683594 L 57.914062 74.683594 C 57.914062 74.683594 57.914062 74.683594 57.917969 74.683594 C 59.46875 74.683594 60.925781 75.289062 62.023438 76.386719 C 62.996094 77.359375 63.578125 78.613281 63.699219 79.96875 L 63.75 120.441406 L 72.789062 120.429688 L 72.757812 95.921875 L 72.765625 95.921875 L 72.765625 80.496094 C 72.765625 80.320312 72.746094 80.144531 72.738281 79.96875 L 72.734375 75.230469 C 72.730469 73.675781 73.332031 72.21875 74.429688 71.117188 C 75.527344 70.019531 76.988281 69.414062 78.5625 69.414062 C 81.515625 69.414062 83.957031 71.632812 84.320312 74.492188 L 84.371094 98.808594 L 84.371094 104.945312 L 84.382812 104.945312 L 84.417969 120.226562 L 93.457031 120.210938 L 93.410156 98.789062 L 93.410156 75.222656 C 93.410156 74.878906 93.382812 74.539062 93.359375 74.199219 L 93.347656 69.183594 C 93.347656 67.628906 93.949219 66.167969 95.046875 65.066406 C 96.144531 63.964844 97.605469 63.359375 99.15625 63.359375 C 102.355469 63.359375 104.964844 65.964844 104.964844 69.164062 L 104.984375 82.96875 L 104.984375 85.972656 L 104.988281 85.972656 L 105.019531 113.953125 C 105.101562 121.597656 99.570312 128.074219 92.152344 129.015625 C 91.957031 129.042969 91.757812 129.0625 91.554688 129.085938 C 75.988281 130.585938 67.554688 140.542969 67.203125 140.964844 L 74.136719 146.765625 C 74.398438 146.457031 80.691406 139.214844 92.421875 138.082031 C 92.71875 138.054688 93.007812 138.023438 93.292969 137.988281 C 105.261719 136.464844 114.1875 126.09375 114.058594 113.902344 L 114.023438 83.042969 L 114.023438 74.570312 C 114.023438 73.019531 114.628906 71.558594 115.726562 70.460938 C 116.824219 69.367188 118.28125 68.761719 119.882812 68.761719 C 119.886719 68.761719 119.886719 68.761719 119.886719 68.761719 C 123.085938 68.761719 125.6875 71.367188 125.691406 74.5625 L 125.75 119.835938 L 125.996094 143.332031 C 126 143.527344 126.027344 143.71875 126.054688 143.910156 C 124.207031 146.773438 120.644531 150.691406 114.640625 151.605469 L 115.996094 160.542969 C 128.195312 158.691406 133.792969 149.125 135.566406 145.3125 C 135.582031 145.273438 135.609375 145.238281 135.625 145.199219 L 135.703125 145.007812 C 135.933594 144.496094 136.082031 144.125 136.15625 143.921875 L 143.414062 126.445312 C 144.480469 123.875 147.355469 122.617188 149.964844 123.582031 C 152.625 124.5625 153.996094 127.527344 153.027344 130.1875 Z M 153.027344 130.1875 " fill-opacity="1" fill-rule="nonzero"/></g><path fill="#000000" d="M 238.601562 210.433594 L 255.511719 192.324219 L 238.601562 174.210938 L 251.679688 160.210938 L 239.308594 160.210938 L 226.230469 174.210938 L 243.144531 192.324219 L 226.230469 210.429688 L 239.222656 224.347656 L 251.59375 224.347656 Z M 238.601562 210.433594 " fill-opacity="1" fill-rule="nonzero"/><g clip-path="url(#adf17d2470)"><path fill="#000000" d="M 330.019531 160.210938 L 330.019531 151.167969 L 198.777344 151.167969 L 198.777344 160.210938 L 263.828125 160.210938 L 250.75 174.210938 L 267.664062 192.328125 L 250.75 210.433594 L 263.742188 224.347656 L 180.15625 224.347656 C 173.058594 224.347656 166.371094 226.972656 161.199219 231.753906 L 161.199219 180.796875 C 161.199219 169.445312 168.734375 160.210938 177.996094 160.210938 L 190.609375 160.210938 L 190.609375 151.167969 L 177.996094 151.167969 C 163.75 151.167969 152.160156 164.460938 152.160156 180.796875 L 152.160156 245.152344 L 49.183594 245.152344 L 49.183594 254.195312 L 64 254.195312 L 64 259.710938 L 49.183594 259.710938 L 49.183594 268.75 L 64 268.75 L 64 274.367188 L 49.183594 274.367188 L 49.183594 283.40625 L 64 283.40625 L 64 289.019531 L 49.183594 289.019531 L 49.183594 298.0625 L 64 298.0625 L 64 303.675781 L 49.183594 303.675781 L 49.183594 312.71875 L 64 312.71875 L 64 318.332031 L 49.183594 318.332031 L 49.183594 327.375 L 190.609375 327.375 L 190.609375 318.332031 L 116.542969 318.332031 L 129.621094 304.332031 L 112.707031 286.21875 L 129.621094 268.113281 L 116.628906 254.195312 L 152.222656 254.195312 C 152.503906 258.496094 153.769531 262.675781 155.925781 266.386719 C 156.878906 268.035156 158.007812 269.589844 159.277344 271.007812 C 164.390625 276.726562 171.632812 280.09375 179.261719 280.335938 L 179.441406 280.40625 L 217.390625 280.40625 C 222.453125 280.40625 227.210938 282.382812 230.792969 285.964844 C 234.378906 289.550781 236.351562 294.3125 236.351562 299.378906 C 236.351562 309.828125 227.847656 318.332031 217.390625 318.332031 L 198.265625 318.332031 L 198.265625 327.375 L 217.390625 327.375 C 232.832031 327.375 245.390625 314.816406 245.390625 299.378906 L 245.390625 247.570312 C 245.390625 242.234375 243.578125 237.316406 240.542969 233.390625 L 330.019531 233.390625 L 330.019531 224.347656 L 315.203125 224.347656 L 315.203125 218.734375 L 330.019531 218.734375 L 330.019531 209.695312 L 315.203125 209.695312 L 315.203125 204.082031 L 330.019531 204.082031 L 330.019531 195.039062 L 315.203125 195.039062 L 315.203125 189.425781 L 330.019531 189.425781 L 330.019531 180.382812 L 315.203125 180.382812 L 315.203125 174.769531 L 330.019531 174.769531 L 330.019531 165.726562 L 315.203125 165.726562 L 315.203125 160.214844 Z M 73.042969 318.332031 L 73.042969 254.195312 L 92.65625 254.195312 L 79.566406 268.199219 L 96.480469 286.308594 L 79.570312 304.421875 L 92.5625 318.332031 Z M 117.25 304.332031 L 104.554688 317.925781 L 91.941406 304.421875 L 104.636719 290.820312 Z M 117.253906 268.113281 L 104.554688 281.703125 L 91.941406 268.203125 L 104.644531 254.605469 Z M 236.351562 278.773438 C 231.167969 273.988281 224.480469 271.363281 217.390625 271.363281 L 181.152344 271.363281 L 181.007812 271.308594 L 180.15625 271.308594 C 174.769531 271.308594 169.613281 269 166.015625 264.980469 C 165.15625 264.023438 164.394531 262.972656 163.746094 261.847656 C 162.082031 258.984375 161.203125 255.703125 161.203125 252.351562 L 161.203125 252.238281 C 161.226562 247.21875 163.199219 242.496094 166.761719 238.941406 C 170.332031 235.363281 175.089844 233.394531 180.152344 233.394531 L 222.171875 233.394531 C 229.992188 233.394531 236.351562 239.753906 236.351562 247.574219 Z M 263.121094 174.214844 L 275.820312 160.617188 L 288.433594 174.125 L 275.734375 187.722656 Z M 263.121094 210.433594 L 275.820312 196.839844 L 288.429688 210.34375 L 275.726562 223.9375 Z M 306.164062 224.347656 L 287.71875 224.347656 L 300.804688 210.34375 L 283.890625 192.234375 L 300.804688 174.121094 L 287.808594 160.210938 L 306.164062 160.210938 Z M 306.164062 224.347656 " fill-opacity="1" fill-rule="nonzero"/></g><g clip-path="url(#71c285e68f)"><path fill="#000000" d="M 322.660156 60.296875 L 310.746094 60.296875 C 308.03125 57.261719 304.75 55.296875 301.183594 54.628906 L 295.546875 53.546875 C 276.808594 49.332031 259.269531 47.449219 238.6875 47.445312 C 238.664062 47.445312 238.640625 47.445312 238.617188 47.445312 C 218.105469 47.445312 197.449219 49.835938 177.207031 54.554688 L 177.171875 54.5625 C 172.921875 55.363281 169.378906 57.289062 166.574219 60.296875 L 154.621094 60.296875 C 149.578125 60.296875 145.625 64.832031 145.625 70.625 L 145.625 92.261719 C 145.625 98.054688 149.578125 102.59375 154.621094 102.59375 L 160.988281 102.59375 C 163.09375 107.488281 166.609375 111.414062 171.085938 113.515625 L 199.496094 126.867188 C 202.453125 128.253906 205.507812 128.925781 208.523438 128.925781 C 215.945312 128.925781 223.113281 124.863281 227.929688 117.4375 L 237.984375 101.945312 C 238.015625 101.894531 238.105469 101.773438 238.257812 101.691406 C 238.402344 101.613281 238.546875 101.601562 238.617188 101.601562 C 238.875 101.601562 239.113281 101.730469 239.253906 101.945312 L 249.304688 117.4375 C 256.082031 127.882812 267.511719 131.671875 277.742188 126.863281 L 306.152344 113.515625 C 310.628906 111.414062 314.144531 107.488281 316.25 102.59375 L 322.660156 102.59375 C 327.703125 102.59375 331.65625 98.054688 331.65625 92.261719 L 331.65625 70.625 C 331.652344 64.835938 327.703125 60.296875 322.660156 60.296875 Z M 158.796875 84.230469 L 158.796875 92.835938 L 158.835938 92.835938 C 158.84375 93.074219 158.839844 93.316406 158.855469 93.550781 L 154.992188 93.550781 C 154.847656 93.332031 154.667969 92.882812 154.667969 92.265625 L 154.667969 70.628906 C 154.667969 70.007812 154.847656 69.558594 154.992188 69.339844 L 161.332031 69.339844 C 159.691406 73.8125 158.796875 78.921875 158.796875 84.230469 Z M 171.554688 68.667969 C 174.097656 64.34375 177.550781 63.691406 178.847656 63.449219 L 179.171875 63.382812 C 198.765625 58.808594 218.765625 56.488281 238.613281 56.488281 C 238.636719 56.488281 238.664062 56.488281 238.683594 56.488281 C 258.597656 56.492188 275.542969 58.3125 293.628906 62.386719 L 299.5 63.515625 C 301.980469 63.980469 304.332031 66.066406 306.128906 69.398438 C 306.261719 69.644531 306.375 69.90625 306.5 70.160156 C 304.789062 69.328125 302.9375 68.753906 300.96875 68.476562 L 295.320312 67.671875 C 276.65625 64.53125 259.1875 63.132812 238.6875 63.128906 C 238.664062 63.128906 238.640625 63.128906 238.621094 63.128906 C 218.171875 63.128906 197.585938 64.910156 177.441406 68.421875 L 177.402344 68.425781 C 174.90625 68.773438 172.664062 69.449219 170.648438 70.417969 C 170.933594 69.808594 171.230469 69.21875 171.554688 68.667969 Z M 256.886719 112.515625 L 246.835938 97.023438 C 245.023438 94.230469 241.949219 92.558594 238.617188 92.558594 C 237.671875 92.558594 236.734375 92.714844 235.832031 92.984375 C 235.179688 93.175781 234.542969 93.421875 233.941406 93.75 C 232.511719 94.527344 231.285156 95.660156 230.402344 97.023438 L 220.347656 112.515625 C 216.316406 118.726562 210.15625 121.230469 204.386719 119.117188 C 204.035156 118.988281 203.6875 118.847656 203.335938 118.683594 L 199.28125 116.777344 L 191.984375 113.347656 L 199.046875 100.214844 L 195.910156 98.527344 L 191.085938 95.933594 L 183.789062 109.5 L 174.925781 105.332031 C 170.6875 103.339844 167.835938 97.878906 167.835938 91.742188 C 167.835938 87.714844 169.035156 83.972656 171.210938 81.203125 C 173.675781 78.070312 177.28125 77.570312 178.640625 77.382812 L 178.917969 77.339844 C 186.699219 75.984375 194.550781 74.898438 202.433594 74.074219 L 194.589844 89.765625 L 202.675781 93.808594 L 213.011719 73.136719 C 216.183594 72.902344 219.359375 72.722656 222.535156 72.570312 C 224.871094 72.460938 227.199219 72.371094 229.53125 72.308594 C 232.5625 72.226562 235.59375 72.167969 238.617188 72.167969 C 238.640625 72.167969 238.664062 72.167969 238.683594 72.167969 C 241.414062 72.167969 244.070312 72.203125 246.699219 72.253906 C 258.359375 72.488281 269.148438 73.226562 279.953125 74.5625 L 258.429688 114.582031 C 257.890625 113.945312 257.371094 113.261719 256.886719 112.515625 Z M 309.355469 92.96875 C 309.003906 98.597656 306.265625 103.476562 302.308594 105.332031 L 292.292969 110.039062 L 282.417969 114.679688 L 293.578125 93.925781 L 289.121094 91.53125 L 285.613281 89.644531 L 269.378906 119.835938 C 268.253906 119.898438 267.136719 119.789062 266.039062 119.523438 L 289.503906 75.894531 C 290.402344 76.03125 291.308594 76.175781 292.214844 76.324219 L 288.148438 84.460938 L 291.886719 86.328125 L 296.234375 88.503906 L 301.539062 77.890625 C 303.695312 78.660156 305.523438 80.21875 306.871094 82.328125 C 308.328125 84.613281 309.230469 87.546875 309.367188 90.851562 C 309.363281 91.855469 309.359375 92.65625 309.355469 92.96875 Z M 322.613281 92.265625 C 322.613281 92.882812 322.433594 93.332031 322.289062 93.550781 L 318.378906 93.550781 C 318.386719 93.425781 318.386719 93.292969 318.390625 93.164062 L 318.394531 93.164062 C 318.394531 93.164062 318.394531 93.121094 318.394531 93.054688 C 318.414062 92.617188 318.4375 92.183594 318.4375 91.742188 C 318.4375 91.320312 318.425781 90.902344 318.410156 90.488281 C 318.421875 88.164062 318.4375 85.050781 318.4375 84.230469 C 318.4375 78.8125 317.59375 73.75 315.980469 69.339844 L 322.289062 69.339844 C 322.433594 69.558594 322.613281 70.007812 322.613281 70.625 Z M 322.613281 92.265625 " fill-opacity="1" fill-rule="nonzero"/></g></svg>