<svg xmlns="http://www.w3.org/2000/svg" xmlns:xlink="http://www.w3.org/1999/xlink" width="500" zoomAndPan="magnify" viewBox="0 0 375 374.999991" height="500" preserveAspectRatio="xMidYMid meet" version="1.0"><defs><clipPath id="a1f0a3f3a4"><path d="M 68.019531 56.742188 L 307 56.742188 L 307 318.492188 L 68.019531 318.492188 Z M 68.019531 56.742188 " clip-rule="nonzero"/></clipPath></defs><g clip-path="url(#a1f0a3f3a4)"><path fill="#000000" d="M 187.363281 56.949219 C 156.039062 56.949219 130.535156 82.449219 130.535156 113.761719 L 130.535156 125.125 C 130.511719 127.167969 131.578125 129.074219 133.351562 130.117188 C 135.128906 131.140625 137.304688 131.140625 139.078125 130.117188 C 140.855469 129.074219 141.921875 127.167969 141.898438 125.125 L 141.898438 113.761719 C 141.898438 88.597656 162.1875 68.3125 187.363281 68.3125 C 212.535156 68.3125 232.824219 88.597656 232.824219 113.761719 L 232.824219 125.125 C 232.804688 127.167969 233.867188 129.074219 235.644531 130.117188 C 237.421875 131.140625 239.597656 131.140625 241.371094 130.117188 C 243.148438 129.074219 244.214844 127.167969 244.191406 125.125 L 244.191406 113.761719 C 244.191406 82.449219 218.683594 56.949219 187.363281 56.949219 Z M 136.214844 136.488281 C 129.933594 136.488281 124.851562 141.570312 124.851562 147.851562 L 96.4375 147.851562 C 96.257812 147.851562 96.082031 147.851562 95.902344 147.851562 C 93.460938 148.09375 91.464844 149.890625 90.929688 152.289062 L 73.882812 227.386719 C 73.304688 230.25 74.992188 233.089844 77.789062 233.957031 C 77.789062 233.957031 78.609375 234.113281 78.675781 234.132812 L 68.019531 306.039062 C 67.753906 307.703125 68.242188 309.367188 69.332031 310.632812 C 70.441406 311.917969 72.039062 312.628906 73.703125 312.605469 L 90.753906 312.605469 L 90.753906 318.289062 L 107.800781 318.289062 L 107.800781 312.605469 L 266.921875 312.605469 L 266.921875 318.289062 L 283.972656 318.289062 L 283.972656 312.605469 L 301.019531 312.605469 C 302.683594 312.628906 304.285156 311.917969 305.394531 310.632812 C 306.480469 309.367188 306.96875 307.703125 306.703125 306.039062 L 296.046875 234.132812 C 296.113281 234.113281 296.9375 233.957031 296.9375 233.957031 C 299.734375 233.089844 301.417969 230.25 300.84375 227.386719 L 283.792969 152.289062 C 283.214844 149.714844 280.929688 147.871094 278.289062 147.851562 L 249.875 147.851562 C 249.875 141.570312 244.789062 136.488281 238.507812 136.488281 C 232.226562 136.488281 227.140625 141.570312 227.140625 147.851562 L 147.582031 147.851562 C 147.582031 141.570312 142.5 136.488281 136.214844 136.488281 Z M 100.875 159.210938 L 273.847656 159.210938 L 288.589844 224.371094 C 281.417969 226.476562 238.550781 238.75 187.363281 238.75 C 138.125 238.75 97.390625 227.652344 87.910156 224.902344 C 87.691406 224.769531 87.445312 224.65625 87.199219 224.546875 C 87.046875 224.503906 86.445312 224.414062 86.3125 224.371094 C 86.246094 224.371094 86.203125 224.371094 86.136719 224.371094 Z M 89.6875 237.152344 C 105.714844 241.234375 136.371094 248.046875 171.378906 249.757812 C 173.644531 256.503906 179.859375 261.476562 187.363281 261.476562 C 194.867188 261.476562 201.082031 256.503906 203.34375 249.757812 C 238.242188 248.070312 268.789062 241.257812 284.859375 237.152344 L 294.449219 301.246094 L 80.273438 301.246094 Z M 89.6875 237.152344 " fill-opacity="1" fill-rule="nonzero"/></g></svg>