<svg xmlns="http://www.w3.org/2000/svg" xmlns:xlink="http://www.w3.org/1999/xlink" width="500" zoomAndPan="magnify" viewBox="0 0 375 374.999991" height="500" preserveAspectRatio="xMidYMid meet" version="1.0"><defs><clipPath id="0fd6f5d2cc"><path d="M 38 62 L 337 62 L 337 313.6875 L 38 313.6875 Z M 38 62 " clip-rule="nonzero"/></clipPath></defs><g clip-path="url(#0fd6f5d2cc)"><path fill="#000000" d="M 323.816406 217.136719 C 322.398438 217.132812 321.015625 217.359375 319.671875 217.8125 L 306.171875 222.320312 C 301.160156 223.988281 296.039062 225.1875 290.804688 225.925781 C 285.574219 226.660156 280.320312 226.917969 275.042969 226.699219 C 269.765625 226.476562 264.546875 225.785156 259.394531 224.617188 C 254.242188 223.449219 249.238281 221.824219 244.378906 219.746094 C 240.917969 218.246094 238.027344 216.003906 235.703125 213.027344 C 235.703125 212.945312 235.703125 212.863281 235.703125 212.78125 C 235.703125 208.226562 236.019531 203.695312 236.664062 199.1875 C 237.304688 194.679688 238.257812 190.238281 239.53125 185.863281 C 240.800781 181.492188 242.375 177.230469 244.25 173.082031 C 246.128906 168.933594 248.285156 164.9375 250.730469 161.097656 L 259.121094 147.890625 C 262.5 142.585938 265.066406 136.914062 266.820312 130.871094 C 268.578125 124.832031 269.453125 118.667969 269.445312 112.378906 C 269.445312 112.21875 269.417969 112.066406 269.414062 111.894531 L 301.042969 90.773438 C 301.535156 90.449219 301.949219 90.046875 302.289062 89.566406 C 302.632812 89.089844 302.878906 88.566406 303.03125 87.996094 C 303.179688 87.429688 303.226562 86.851562 303.167969 86.265625 C 303.105469 85.679688 302.945312 85.125 302.683594 84.597656 L 296.921875 73.074219 C 296.589844 72.410156 296.21875 71.765625 295.8125 71.144531 C 295.402344 70.523438 294.957031 69.925781 294.480469 69.355469 C 294 68.789062 293.488281 68.25 292.945312 67.742188 C 292.402344 67.230469 291.832031 66.757812 291.234375 66.316406 C 290.636719 65.875 290.011719 65.472656 289.367188 65.105469 C 288.71875 64.738281 288.054688 64.410156 287.367188 64.121094 C 286.683594 63.832031 285.980469 63.585938 285.265625 63.382812 C 284.554688 63.175781 283.828125 63.015625 283.09375 62.894531 C 282.359375 62.777344 281.621094 62.699219 280.878906 62.667969 C 280.136719 62.636719 279.394531 62.648438 278.652344 62.707031 C 277.914062 62.761719 277.175781 62.863281 276.449219 63.003906 C 275.71875 63.148438 275 63.335938 274.292969 63.5625 C 273.585938 63.792969 272.894531 64.0625 272.21875 64.371094 C 271.542969 64.683594 270.886719 65.03125 270.253906 65.421875 C 269.621094 65.808594 269.011719 66.234375 268.425781 66.695312 C 267.84375 67.15625 267.289062 67.648438 266.761719 68.175781 L 247.828125 87.128906 C 246.527344 86.917969 245.214844 86.804688 243.898438 86.789062 C 242.265625 86.792969 240.632812 86.835938 239.003906 86.917969 C 237.375 86.996094 235.746094 87.121094 234.121094 87.28125 C 232.496094 87.441406 230.878906 87.644531 229.261719 87.886719 C 227.648438 88.125 226.039062 88.40625 224.4375 88.726562 C 222.839844 89.046875 221.246094 89.40625 219.664062 89.804688 C 218.078125 90.203125 216.507812 90.640625 214.945312 91.117188 C 213.382812 91.59375 211.832031 92.105469 210.296875 92.65625 C 208.757812 93.210938 207.238281 93.796875 205.730469 94.425781 C 204.222656 95.050781 202.730469 95.714844 201.253906 96.414062 C 199.777344 97.113281 198.320312 97.847656 196.882812 98.621094 C 195.441406 99.390625 194.023438 100.199219 192.621094 101.039062 C 191.222656 101.878906 189.84375 102.753906 188.488281 103.664062 C 187.128906 104.570312 185.796875 105.511719 184.484375 106.488281 C 183.171875 107.460938 181.886719 108.46875 180.625 109.503906 C 179.363281 110.542969 178.128906 111.609375 176.917969 112.707031 C 175.707031 113.804688 174.527344 114.933594 173.371094 116.089844 C 172.21875 117.246094 171.089844 118.429688 169.996094 119.640625 C 168.898438 120.851562 167.832031 122.089844 166.796875 123.355469 C 165.761719 124.617188 164.757812 125.90625 163.785156 127.21875 C 162.8125 128.53125 161.871094 129.867188 160.964844 131.226562 C 160.054688 132.585938 159.183594 133.96875 158.34375 135.371094 C 157.503906 136.769531 156.699219 138.191406 155.929688 139.636719 C 155.160156 141.078125 154.421875 142.535156 153.726562 144.015625 C 153.027344 145.492188 152.363281 146.984375 151.738281 148.496094 C 151.113281 150.007812 150.523438 151.53125 149.972656 153.070312 C 149.421875 154.609375 148.910156 156.160156 148.4375 157.726562 C 147.960938 159.289062 147.523438 160.863281 147.125 162.449219 C 146.730469 164.035156 146.371094 165.628906 146.050781 167.234375 C 145.730469 168.835938 145.449219 170.445312 145.210938 172.0625 C 144.96875 173.679688 144.765625 175.304688 144.605469 176.929688 C 144.445312 178.558594 144.324219 180.1875 144.242188 181.820312 C 144.160156 183.453125 144.117188 185.085938 144.117188 186.722656 L 144.117188 197.703125 C 139.207031 197.386719 134.402344 196.492188 129.707031 195.023438 C 125.011719 193.554688 120.554688 191.550781 116.335938 189.015625 L 109.828125 185.105469 C 108.890625 184.539062 107.894531 184.109375 106.839844 183.808594 C 105.789062 183.507812 104.714844 183.351562 103.621094 183.339844 C 102.523438 183.324219 101.445312 183.453125 100.386719 183.726562 C 99.324219 184 98.320312 184.40625 97.367188 184.945312 C 96.414062 185.484375 95.546875 186.140625 94.769531 186.910156 C 93.988281 187.683594 93.324219 188.542969 92.773438 189.488281 C 92.222656 190.4375 91.804688 191.4375 91.519531 192.496094 C 91.234375 193.554688 91.089844 194.632812 91.09375 195.730469 C 91.09375 198.410156 91.429688 201.046875 92.101562 203.640625 C 92.769531 206.234375 93.757812 208.703125 95.054688 211.046875 C 97.011719 214.570312 99.226562 217.921875 101.703125 221.097656 C 104.179688 224.273438 106.886719 227.242188 109.828125 229.996094 C 112.765625 232.75 115.898438 235.257812 119.226562 237.523438 C 122.554688 239.789062 126.039062 241.78125 129.679688 243.503906 C 127.183594 246.199219 124.441406 248.605469 121.453125 250.734375 C 118.460938 252.859375 115.285156 254.65625 111.925781 256.128906 C 108.5625 257.597656 105.085938 258.707031 101.496094 259.457031 C 97.90625 260.207031 94.277344 260.582031 90.609375 260.585938 C 78.457031 260.582031 66.488281 259.105469 54.699219 256.15625 C 54.207031 256.035156 53.707031 255.941406 53.207031 255.875 C 52.703125 255.808594 52.199219 255.773438 51.691406 255.761719 C 51.183594 255.753906 50.679688 255.773438 50.171875 255.824219 C 49.667969 255.875 49.167969 255.949219 48.671875 256.058594 C 48.175781 256.164062 47.6875 256.296875 47.207031 256.457031 C 46.726562 256.621094 46.257812 256.808594 45.796875 257.023438 C 45.339844 257.238281 44.894531 257.476562 44.460938 257.742188 C 44.027344 258.007812 43.613281 258.296875 43.214844 258.609375 C 42.8125 258.921875 42.433594 259.257812 42.070312 259.613281 C 41.710938 259.96875 41.371094 260.34375 41.050781 260.738281 C 40.730469 261.132812 40.4375 261.546875 40.164062 261.972656 C 39.890625 262.402344 39.644531 262.84375 39.421875 263.300781 C 39.199219 263.757812 39.003906 264.226562 38.835938 264.703125 C 38.667969 265.183594 38.523438 265.667969 38.410156 266.164062 C 38.296875 266.660156 38.210938 267.160156 38.152344 267.664062 C 38.097656 268.167969 38.066406 268.675781 38.066406 269.183594 C 38.0625 270.460938 38.203125 271.726562 38.484375 272.976562 C 38.769531 274.226562 39.1875 275.425781 39.742188 276.582031 C 40.292969 277.734375 40.96875 278.8125 41.765625 279.8125 C 42.566406 280.8125 43.464844 281.714844 44.464844 282.511719 C 47.8125 285.1875 51.363281 287.566406 55.113281 289.644531 C 58.863281 291.722656 62.761719 293.472656 66.808594 294.894531 C 70.851562 296.316406 74.988281 297.386719 79.210938 298.113281 C 83.4375 298.835938 87.691406 299.199219 91.980469 299.203125 C 94.199219 299.203125 96.414062 299.121094 98.628906 298.960938 C 100.839844 298.796875 103.042969 298.550781 105.238281 298.226562 C 107.433594 297.898438 109.617188 297.492188 111.78125 297.007812 C 113.945312 296.523438 116.089844 295.957031 118.214844 295.3125 C 120.339844 294.667969 122.4375 293.949219 124.507812 293.148438 C 126.578125 292.351562 128.617188 291.476562 130.625 290.527344 C 132.632812 289.582031 134.601562 288.558594 136.53125 287.464844 C 138.464844 286.375 140.355469 285.210938 142.199219 283.976562 C 144.046875 282.746094 145.847656 281.445312 147.597656 280.082031 C 149.347656 278.71875 151.046875 277.289062 152.695312 275.800781 C 154.339844 274.3125 155.933594 272.761719 157.464844 271.15625 C 158.996094 269.546875 160.46875 267.886719 161.882812 266.171875 C 163.292969 264.457031 164.640625 262.691406 165.921875 260.878906 C 167.203125 259.0625 168.414062 257.207031 169.5625 255.300781 C 170.707031 253.398438 171.78125 251.453125 172.785156 249.472656 C 173.785156 247.488281 174.714844 245.472656 175.570312 243.421875 C 176.167969 245.902344 176.871094 248.351562 177.671875 250.773438 C 178.476562 253.195312 179.378906 255.578125 180.378906 257.925781 C 181.382812 260.269531 182.480469 262.570312 183.671875 264.824219 C 184.863281 267.078125 186.148438 269.28125 187.523438 271.425781 C 188.898438 273.574219 190.363281 275.660156 191.914062 277.6875 C 193.460938 279.710938 195.09375 281.667969 196.804688 283.558594 C 198.515625 285.445312 200.304688 287.261719 202.167969 289 C 204.03125 290.742188 205.960938 292.402344 207.964844 293.980469 C 209.964844 295.558594 212.027344 297.050781 214.152344 298.457031 C 216.277344 299.863281 218.457031 301.179688 220.695312 302.40625 C 222.929688 303.628906 225.210938 304.761719 227.539062 305.792969 C 229.867188 306.828125 232.234375 307.765625 234.640625 308.601562 C 237.046875 309.4375 239.484375 310.175781 241.953125 310.808594 C 244.421875 311.441406 246.910156 311.972656 249.421875 312.398438 C 251.933594 312.824219 254.460938 313.144531 256.996094 313.359375 C 259.535156 313.574219 262.078125 313.683594 264.625 313.6875 L 282.460938 313.6875 C 283.40625 313.6875 284.34375 313.605469 285.277344 313.4375 C 286.207031 313.273438 287.113281 313.023438 288 312.695312 C 288.886719 312.367188 289.738281 311.964844 290.554688 311.484375 C 291.367188 311.003906 292.132812 310.453125 292.851562 309.835938 C 293.566406 309.21875 294.222656 308.542969 294.820312 307.808594 C 295.417969 307.074219 295.945312 306.292969 296.402344 305.464844 C 296.859375 304.632812 297.238281 303.773438 297.542969 302.875 C 297.847656 301.980469 298.070312 301.0625 298.210938 300.125 C 298.351562 299.191406 298.40625 298.25 298.378906 297.300781 C 298.351562 296.355469 298.242188 295.417969 298.050781 294.492188 C 297.855469 293.566406 297.582031 292.664062 297.226562 291.785156 C 296.871094 290.90625 296.445312 290.070312 295.941406 289.265625 C 295.4375 288.464844 294.867188 287.714844 294.226562 287.015625 C 293.589844 286.316406 292.898438 285.679688 292.144531 285.105469 C 291.394531 284.53125 290.601562 284.023438 289.757812 283.589844 C 288.917969 283.160156 288.046875 282.804688 287.140625 282.527344 C 281.507812 280.800781 276.160156 278.429688 271.101562 275.410156 C 266.039062 272.386719 261.410156 268.804688 257.21875 264.664062 C 262.035156 265.160156 266.863281 265.410156 271.707031 265.410156 C 277.035156 265.40625 282.320312 264.945312 287.566406 264.019531 C 292.8125 263.097656 297.941406 261.726562 302.949219 259.910156 C 307.957031 258.09375 312.769531 255.859375 317.390625 253.207031 C 322.011719 250.554688 326.371094 247.519531 330.464844 244.109375 C 331.476562 243.261719 332.386719 242.320312 333.191406 241.273438 C 333.996094 240.226562 334.679688 239.109375 335.238281 237.914062 C 335.796875 236.714844 336.21875 235.472656 336.507812 234.183594 C 336.792969 232.894531 336.933594 231.59375 336.933594 230.273438 C 336.929688 229.410156 336.847656 228.554688 336.675781 227.710938 C 336.507812 226.863281 336.257812 226.042969 335.929688 225.246094 C 335.597656 224.453125 335.195312 223.695312 334.714844 222.976562 C 334.238281 222.261719 333.695312 221.597656 333.085938 220.988281 C 332.476562 220.378906 331.8125 219.835938 331.097656 219.355469 C 330.382812 218.875 329.628906 218.472656 328.832031 218.140625 C 328.039062 217.808594 327.21875 217.558594 326.375 217.390625 C 325.53125 217.222656 324.675781 217.136719 323.816406 217.136719 Z M 273.566406 75.003906 C 273.824219 74.746094 274.097656 74.503906 274.382812 74.28125 C 274.667969 74.054688 274.964844 73.847656 275.273438 73.660156 C 275.585938 73.46875 275.90625 73.300781 276.234375 73.148438 C 276.566406 72.996094 276.902344 72.867188 277.246094 72.753906 C 277.59375 72.644531 277.945312 72.554688 278.300781 72.484375 C 278.65625 72.414062 279.015625 72.367188 279.378906 72.339844 C 279.738281 72.3125 280.101562 72.304688 280.464844 72.320312 C 280.828125 72.335938 281.1875 72.375 281.546875 72.433594 C 281.90625 72.492188 282.257812 72.574219 282.605469 72.671875 C 282.957031 72.773438 283.296875 72.894531 283.632812 73.035156 C 283.964844 73.175781 284.289062 73.335938 284.605469 73.515625 C 284.921875 73.695312 285.226562 73.894531 285.519531 74.109375 C 285.808594 74.328125 286.089844 74.558594 286.351562 74.808594 C 286.617188 75.054688 286.867188 75.320312 287.101562 75.597656 C 287.332031 75.875 287.550781 76.167969 287.75 76.472656 C 287.949219 76.777344 288.128906 77.089844 288.289062 77.414062 L 292.144531 85.140625 L 267.136719 101.832031 C 266.140625 99.582031 264.835938 97.523438 263.226562 95.660156 C 261.617188 93.796875 259.769531 92.207031 257.691406 90.894531 Z M 103.480469 206.359375 C 101.652344 203.058594 100.734375 199.515625 100.734375 195.738281 C 100.746094 195.503906 100.785156 195.269531 100.855469 195.046875 C 100.925781 194.820312 101.023438 194.605469 101.148438 194.402344 C 101.273438 194.199219 101.417969 194.019531 101.589844 193.851562 C 101.761719 193.6875 101.949219 193.546875 102.15625 193.429688 C 102.363281 193.316406 102.578125 193.226562 102.808594 193.164062 C 103.035156 193.101562 103.269531 193.070312 103.503906 193.066406 C 103.742188 193.0625 103.976562 193.089844 104.207031 193.148438 C 104.4375 193.203125 104.65625 193.285156 104.863281 193.398438 L 111.375 197.308594 C 116.34375 200.289062 121.597656 202.625 127.136719 204.324219 C 132.671875 206.019531 138.332031 207.027344 144.117188 207.34375 C 144.085938 212.355469 143.363281 217.261719 141.949219 222.066406 C 140.535156 226.871094 138.484375 231.386719 135.796875 235.609375 C 132.394531 234.140625 129.140625 232.402344 126.023438 230.394531 C 122.90625 228.390625 119.976562 226.144531 117.230469 223.65625 C 114.480469 221.167969 111.953125 218.472656 109.648438 215.574219 C 107.339844 212.671875 105.285156 209.601562 103.480469 206.359375 Z M 173.039062 193.746094 L 173.039062 212.023438 L 172.335938 217.984375 C 172.046875 220.425781 171.652344 222.84375 171.144531 225.246094 C 170.636719 227.648438 170.023438 230.023438 169.300781 232.371094 C 168.578125 234.71875 167.753906 237.027344 166.820312 239.300781 C 165.890625 241.570312 164.855469 243.796875 163.722656 245.972656 C 162.589844 248.148438 161.359375 250.269531 160.035156 252.335938 C 158.707031 254.402344 157.289062 256.402344 155.78125 258.339844 C 154.273438 260.277344 152.683594 262.140625 151.003906 263.933594 C 149.328125 265.722656 147.574219 267.433594 145.742188 269.066406 C 143.910156 270.699219 142.007812 272.242188 140.035156 273.703125 C 138.0625 275.160156 136.027344 276.527344 133.929688 277.800781 C 131.835938 279.074219 129.683594 280.25 127.480469 281.328125 C 125.277344 282.40625 123.03125 283.378906 120.738281 284.253906 C 118.445312 285.125 116.121094 285.894531 113.757812 286.554688 C 111.398438 287.214844 109.011719 287.769531 106.601562 288.214844 C 104.1875 288.65625 101.761719 288.992188 99.320312 289.214844 C 96.878906 289.4375 94.429688 289.550781 91.980469 289.550781 C 88.234375 289.546875 84.519531 289.226562 80.832031 288.59375 C 77.140625 287.964844 73.53125 287.027344 70 285.789062 C 66.46875 284.546875 63.066406 283.019531 59.789062 281.203125 C 56.515625 279.390625 53.414062 277.3125 50.488281 274.976562 C 49.609375 274.273438 48.921875 273.414062 48.4375 272.398438 C 47.949219 271.382812 47.707031 270.308594 47.707031 269.183594 C 47.707031 268.683594 47.804688 268.203125 47.996094 267.738281 C 48.1875 267.277344 48.460938 266.871094 48.8125 266.515625 C 49.164062 266.164062 49.570312 265.890625 50.03125 265.699219 C 50.492188 265.507812 50.972656 265.414062 51.472656 265.410156 C 51.78125 265.414062 52.089844 265.449219 52.390625 265.523438 C 64.9375 268.664062 77.675781 270.234375 90.609375 270.238281 C 92.675781 270.238281 94.738281 270.132812 96.796875 269.929688 C 98.855469 269.726562 100.898438 269.421875 102.925781 269.015625 C 104.953125 268.609375 106.957031 268.105469 108.933594 267.503906 C 110.914062 266.902344 112.855469 266.203125 114.765625 265.410156 C 116.675781 264.617188 118.542969 263.734375 120.367188 262.757812 C 122.191406 261.78125 123.960938 260.714844 125.679688 259.566406 C 127.398438 258.414062 129.058594 257.183594 130.65625 255.867188 C 132.253906 254.554688 133.785156 253.164062 135.246094 251.699219 C 136.707031 250.238281 138.09375 248.703125 139.40625 247.101562 C 140.71875 245.503906 141.949219 243.84375 143.097656 242.121094 C 144.246094 240.398438 145.308594 238.625 146.285156 236.800781 C 147.261719 234.972656 148.144531 233.105469 148.9375 231.191406 C 149.726562 229.277344 150.425781 227.332031 151.027344 225.351562 C 151.628906 223.367188 152.128906 221.363281 152.535156 219.332031 C 152.941406 217.300781 153.246094 215.253906 153.449219 213.195312 C 153.652344 211.132812 153.753906 209.070312 153.757812 206.996094 L 153.757812 186.722656 C 153.761719 184.324219 153.859375 181.933594 154.050781 179.542969 C 154.242188 177.15625 154.53125 174.777344 154.910156 172.410156 C 155.292969 170.046875 155.765625 167.699219 156.335938 165.371094 C 156.902344 163.042969 157.5625 160.738281 158.3125 158.464844 C 159.0625 156.1875 159.902344 153.945312 160.832031 151.734375 C 161.757812 149.527344 162.773438 147.359375 163.875 145.230469 C 164.976562 143.101562 166.160156 141.023438 167.425781 138.988281 C 168.691406 136.953125 170.035156 134.972656 171.457031 133.046875 C 172.882812 131.121094 174.378906 129.253906 175.949219 127.445312 C 177.523438 125.636719 179.164062 123.894531 180.871094 122.21875 C 182.582031 120.542969 184.355469 118.933594 186.191406 117.398438 C 188.03125 115.863281 189.925781 114.402344 191.878906 113.019531 C 193.832031 111.632812 195.835938 110.328125 197.894531 109.101562 C 199.949219 107.878906 202.050781 106.738281 204.199219 105.679688 C 206.347656 104.621094 208.535156 103.652344 210.757812 102.765625 C 212.984375 101.882812 215.238281 101.089844 217.527344 100.386719 C 214.058594 103.183594 210.753906 106.171875 207.621094 109.339844 C 204.484375 112.511719 201.535156 115.847656 198.773438 119.347656 C 196.011719 122.847656 193.449219 126.492188 191.09375 130.277344 C 188.738281 134.066406 186.601562 137.972656 184.683594 142 C 182.765625 146.027344 181.074219 150.148438 179.617188 154.363281 C 178.160156 158.582031 176.941406 162.867188 175.960938 167.21875 C 174.980469 171.570312 174.246094 175.964844 173.757812 180.402344 C 173.269531 184.835938 173.03125 189.285156 173.039062 193.746094 Z M 284.304688 291.746094 C 284.660156 291.855469 285.007812 291.992188 285.339844 292.164062 C 285.671875 292.332031 285.988281 292.53125 286.285156 292.757812 C 286.585938 292.980469 286.859375 293.234375 287.113281 293.507812 C 287.367188 293.785156 287.59375 294.082031 287.792969 294.394531 C 287.992188 294.710938 288.164062 295.042969 288.304688 295.390625 C 288.445312 295.738281 288.554688 296.09375 288.632812 296.460938 C 288.707031 296.828125 288.753906 297.195312 288.765625 297.570312 C 288.773438 297.945312 288.753906 298.316406 288.699219 298.6875 C 288.640625 299.058594 288.554688 299.421875 288.433594 299.773438 C 288.3125 300.128906 288.164062 300.472656 287.980469 300.796875 C 287.800781 301.125 287.589844 301.433594 287.355469 301.722656 C 287.117188 302.015625 286.859375 302.28125 286.574219 302.523438 C 286.289062 302.769531 285.988281 302.984375 285.664062 303.171875 C 285.34375 303.363281 285.003906 303.519531 284.652344 303.648438 C 284.304688 303.777344 283.945312 303.875 283.574219 303.9375 C 283.207031 304.003906 282.835938 304.035156 282.460938 304.03125 L 264.625 304.03125 C 263.285156 304.03125 261.945312 303.996094 260.605469 303.929688 C 259.269531 303.863281 257.929688 303.761719 256.597656 303.628906 C 255.261719 303.496094 253.933594 303.332031 252.605469 303.132812 C 251.28125 302.933594 249.960938 302.703125 248.644531 302.441406 C 247.332031 302.175781 246.023438 301.882812 244.722656 301.554688 C 243.421875 301.226562 242.132812 300.867188 240.847656 300.476562 C 239.566406 300.085938 238.292969 299.664062 237.03125 299.210938 C 235.769531 298.757812 234.519531 298.273438 233.28125 297.761719 C 232.042969 297.246094 230.816406 296.703125 229.605469 296.125 C 228.394531 295.550781 227.195312 294.949219 226.015625 294.316406 C 224.832031 293.679688 223.667969 293.019531 222.515625 292.328125 C 221.367188 291.636719 220.234375 290.917969 219.121094 290.171875 C 218.007812 289.425781 216.910156 288.652344 215.832031 287.851562 C 214.757812 287.054688 213.699219 286.226562 212.664062 285.375 C 211.628906 284.523438 210.613281 283.648438 209.621094 282.746094 C 208.625 281.84375 207.65625 280.917969 206.707031 279.96875 C 205.761719 279.019531 204.835938 278.046875 203.933594 277.050781 C 203.035156 276.058594 202.160156 275.039062 201.308594 274.003906 C 200.457031 272.964844 199.632812 271.90625 198.835938 270.828125 C 198.035156 269.75 197.261719 268.652344 196.519531 267.535156 C 195.773438 266.421875 195.054688 265.285156 194.367188 264.136719 C 193.675781 262.984375 193.015625 261.816406 192.382812 260.632812 C 191.75 259.449219 191.148438 258.25 190.574219 257.035156 C 190 255.824219 189.457031 254.597656 188.941406 253.355469 C 188.429688 252.117188 187.945312 250.863281 187.492188 249.597656 C 187.039062 248.335938 186.617188 247.0625 186.230469 245.777344 C 185.839844 244.492188 185.480469 243.199219 185.152344 241.894531 C 184.828125 240.59375 184.53125 239.285156 184.269531 237.96875 C 184.007812 236.652344 183.777344 235.328125 183.578125 234 C 183.378906 232.671875 183.214844 231.339844 183.082031 230.003906 C 182.949219 228.667969 182.851562 227.328125 182.78125 225.988281 C 182.714844 224.648438 182.679688 223.304688 182.679688 221.964844 L 182.679688 193.746094 C 182.675781 191.265625 182.753906 188.785156 182.917969 186.3125 C 183.078125 183.835938 183.324219 181.367188 183.65625 178.910156 C 183.984375 176.449219 184.394531 174.003906 184.890625 171.574219 C 185.386719 169.144531 185.960938 166.730469 186.617188 164.339844 C 187.277344 161.949219 188.011719 159.582031 188.832031 157.238281 C 189.648438 154.898438 190.542969 152.585938 191.515625 150.304688 C 192.488281 148.023438 193.539062 145.777344 194.664062 143.566406 C 195.789062 141.355469 196.988281 139.1875 198.257812 137.058594 C 199.53125 134.929688 200.875 132.84375 202.285156 130.804688 C 203.699219 128.769531 205.179688 126.78125 206.726562 124.84375 C 208.273438 122.90625 209.882812 121.019531 211.554688 119.191406 C 213.230469 117.363281 214.964844 115.59375 216.757812 113.882812 C 218.550781 112.171875 220.398438 110.523438 222.304688 108.9375 C 224.210938 107.351562 226.164062 105.828125 228.171875 104.375 C 230.179688 102.921875 232.234375 101.539062 234.335938 100.222656 C 236.4375 98.910156 238.582031 97.667969 240.765625 96.5 C 241.800781 96.445312 242.839844 96.445312 243.898438 96.445312 C 244.417969 96.445312 244.9375 96.472656 245.457031 96.523438 C 245.976562 96.574219 246.492188 96.652344 247.003906 96.753906 C 247.511719 96.855469 248.019531 96.980469 248.515625 97.132812 C 249.015625 97.285156 249.503906 97.460938 249.984375 97.660156 C 250.46875 97.859375 250.9375 98.082031 251.398438 98.328125 C 251.855469 98.574219 252.304688 98.839844 252.734375 99.132812 C 253.167969 99.421875 253.585938 99.730469 253.988281 100.0625 C 254.394531 100.394531 254.777344 100.742188 255.148438 101.113281 C 255.515625 101.480469 255.863281 101.867188 256.195312 102.269531 C 256.527344 102.675781 256.835938 103.09375 257.125 103.527344 C 257.414062 103.960938 257.683594 104.40625 257.925781 104.867188 C 258.171875 105.328125 258.394531 105.796875 258.59375 106.28125 C 258.792969 106.761719 258.96875 107.253906 259.121094 107.753906 C 259.273438 108.25 259.398438 108.757812 259.5 109.269531 C 259.601562 109.78125 259.679688 110.296875 259.730469 110.816406 C 259.78125 111.335938 259.804688 111.855469 259.804688 112.378906 C 259.808594 117.746094 259.058594 123.011719 257.558594 128.167969 C 256.058594 133.320312 253.871094 138.164062 250.988281 142.695312 L 242.597656 155.917969 C 239.910156 160.144531 237.53125 164.539062 235.46875 169.105469 C 233.402344 173.671875 231.671875 178.359375 230.273438 183.171875 C 228.871094 187.984375 227.820312 192.871094 227.117188 197.832031 C 226.410156 202.792969 226.058594 207.777344 226.0625 212.789062 C 226.054688 214.984375 226.132812 217.171875 226.300781 219.359375 C 226.46875 221.546875 226.722656 223.722656 227.0625 225.886719 C 227.40625 228.054688 227.832031 230.203125 228.34375 232.335938 C 228.855469 234.46875 229.453125 236.574219 230.132812 238.660156 C 230.816406 240.742188 231.578125 242.796875 232.421875 244.820312 C 233.269531 246.84375 234.191406 248.828125 235.195312 250.777344 C 236.199219 252.726562 237.28125 254.632812 238.4375 256.496094 C 239.59375 258.355469 240.820312 260.167969 242.121094 261.933594 C 243.421875 263.695312 244.792969 265.40625 246.230469 267.058594 C 247.667969 268.714844 249.167969 270.308594 250.734375 271.839844 C 252.296875 273.375 253.921875 274.84375 255.605469 276.246094 C 257.285156 277.652344 259.023438 278.984375 260.8125 280.25 C 262.601562 281.515625 264.4375 282.707031 266.320312 283.824219 C 268.203125 284.941406 270.128906 285.980469 272.097656 286.945312 C 274.0625 287.90625 276.066406 288.789062 278.105469 289.589844 C 280.140625 290.394531 282.207031 291.113281 284.304688 291.75 Z M 324.3125 236.710938 C 320.644531 239.765625 316.746094 242.476562 312.605469 244.851562 C 308.46875 247.226562 304.160156 249.222656 299.675781 250.847656 C 295.191406 252.46875 290.601562 253.695312 285.90625 254.519531 C 281.207031 255.34375 276.476562 255.753906 271.707031 255.757812 C 263.785156 255.742188 255.925781 255.023438 248.132812 253.597656 C 245.410156 249.554688 243.121094 245.277344 241.261719 240.765625 C 239.402344 236.257812 238.011719 231.609375 237.09375 226.820312 C 238.222656 227.492188 239.386719 228.09375 240.59375 228.621094 C 245.988281 230.925781 251.542969 232.730469 257.265625 234.027344 C 262.984375 235.320312 268.777344 236.09375 274.636719 236.335938 C 280.5 236.582031 286.332031 236.292969 292.140625 235.476562 C 297.949219 234.660156 303.636719 233.328125 309.207031 231.480469 L 322.726562 226.96875 C 322.988281 226.890625 323.253906 226.84375 323.523438 226.828125 C 323.796875 226.8125 324.066406 226.828125 324.335938 226.875 C 324.601562 226.917969 324.863281 226.996094 325.113281 227.101562 C 325.363281 227.207031 325.597656 227.339844 325.820312 227.496094 C 326.039062 227.65625 326.238281 227.839844 326.417969 228.042969 C 326.597656 228.25 326.75 228.472656 326.878906 228.714844 C 327.003906 228.953125 327.105469 229.207031 327.171875 229.46875 C 327.242188 229.730469 327.28125 230 327.292969 230.273438 C 327.292969 231.511719 327.03125 232.695312 326.503906 233.816406 C 325.980469 234.941406 325.242188 235.898438 324.289062 236.691406 Z M 324.3125 236.710938 " fill-opacity="1" fill-rule="nonzero"/></g></svg>