<svg xmlns="http://www.w3.org/2000/svg" xmlns:xlink="http://www.w3.org/1999/xlink" width="500" zoomAndPan="magnify" viewBox="0 0 375 374.999991" height="500" preserveAspectRatio="xMidYMid meet" version="1.0"><defs><clipPath id="a7fa41e3cb"><path d="M 37.5 78.328125 L 337.5 78.328125 L 337.5 296.578125 L 37.5 296.578125 Z M 37.5 78.328125 " clip-rule="nonzero"/></clipPath></defs><g clip-path="url(#a7fa41e3cb)"><path fill="#000000" d="M 327.800781 273.660156 C 327.800781 277.933594 324.265625 281.414062 319.726562 281.421875 L 187.488281 286.890625 L 55.046875 281.414062 C 50.710938 281.414062 47.175781 277.933594 47.175781 273.660156 L 47.175781 111.164062 C 47.175781 106.871094 50.710938 103.378906 55.046875 103.378906 L 60.828125 103.378906 L 60.828125 267.992188 C 61.167969 271.394531 63.855469 272.617188 65.914062 272.820312 C 66.347656 272.863281 110.167969 270.589844 144.199219 270.457031 C 171.988281 270.457031 186.855469 276.28125 187.476562 276.28125 C 188.121094 276.28125 202.976562 270.457031 231.65625 270.457031 C 264.796875 270.589844 308.617188 272.828125 309.046875 272.820312 C 312.265625 272.78125 314.039062 270.410156 314.136719 267.992188 L 314.136719 103.378906 L 319.929688 103.378906 C 324.265625 103.378906 327.804688 106.871094 327.804688 111.164062 Z M 174.636719 263.238281 C 167.171875 261.929688 156.824219 260.78125 143.273438 260.78125 C 124.75 260.855469 103.089844 261.574219 87.28125 262.199219 C 102.84375 257.460938 124.902344 251.941406 143.515625 251.855469 C 157.910156 251.855469 168.105469 257.710938 174.636719 263.238281 Z M 70.507812 106.402344 C 81.117188 102.136719 118.125 88.019531 143.222656 88.019531 C 167.683594 88.289062 179.445312 99 182.648438 102.511719 L 182.648438 257.34375 C 174.863281 250.265625 161.886719 242.183594 143.261719 242.183594 C 116.574219 242.300781 84.226562 252.632812 70.507812 257.480469 Z M 287.730469 262.203125 C 271.800781 261.574219 249.851562 260.855469 230.777344 260.78125 C 217.761719 260.78125 207.726562 261.90625 200.40625 263.195312 C 206.964844 257.679688 217.195312 251.855469 231.675781 251.855469 C 250.175781 251.9375 272.1875 257.460938 287.730469 262.203125 Z M 192.324219 102.515625 C 195.566406 98.976562 207.417969 88.289062 232.402344 88.011719 C 256.933594 88.011719 293.855469 102.132812 304.460938 106.402344 L 304.460938 257.480469 C 290.734375 252.632812 258.351562 242.300781 231.453125 242.183594 C 212.996094 242.183594 200.097656 250.25 192.324219 257.320312 Z M 319.929688 93.707031 L 298.457031 93.707031 C 282.128906 87.664062 253.417969 78.347656 231.648438 78.347656 C 207.480469 78.609375 193.742188 88.023438 187.574219 93.707031 L 187.382812 93.707031 C 181.167969 88.023438 167.273438 78.609375 142.574219 78.339844 C 121.332031 78.339844 92.761719 87.664062 76.492188 93.707031 L 55.046875 93.707031 C 45.371094 93.707031 37.5 101.539062 37.5 111.164062 L 37.5 273.65625 C 37.5 283.265625 45.371094 291.082031 54.839844 291.082031 C 54.847656 291.082031 187.289062 296.5625 187.289062 296.5625 C 187.355469 296.566406 187.421875 296.566406 187.488281 296.566406 C 187.554688 296.566406 187.617188 296.566406 187.6875 296.5625 L 319.929688 291.085938 C 329.601562 291.085938 337.476562 283.269531 337.476562 273.65625 L 337.476562 111.164062 C 337.476562 101.535156 329.601562 93.707031 319.929688 93.707031 " fill-opacity="1" fill-rule="nonzero"/></g></svg>