<svg xmlns="http://www.w3.org/2000/svg" xmlns:xlink="http://www.w3.org/1999/xlink" width="500" zoomAndPan="magnify" viewBox="0 0 375 374.999991" height="500" preserveAspectRatio="xMidYMid meet" version="1.0"><defs><clipPath id="d02674e449"><path d="M 40 37.5 L 341 37.5 L 341 337.5 L 40 337.5 Z M 40 37.5 " clip-rule="nonzero"/></clipPath></defs><g clip-path="url(#d02674e449)"><path fill="#000000" d="M 334.511719 113.910156 L 252.207031 83.984375 C 251.640625 83.78125 251.0625 83.632812 250.472656 83.542969 C 249.878906 83.453125 249.28125 83.417969 248.683594 83.445312 C 248.085938 83.472656 247.492188 83.558594 246.910156 83.699219 C 246.328125 83.84375 245.765625 84.042969 245.222656 84.292969 C 244.679688 84.546875 244.164062 84.851562 243.679688 85.207031 C 243.199219 85.558594 242.753906 85.957031 242.347656 86.398438 C 241.941406 86.839844 241.585938 87.316406 241.273438 87.828125 C 240.960938 88.339844 240.703125 88.878906 240.496094 89.441406 L 235.308594 103.683594 C 227.039062 119.152344 219.710938 135.054688 213.320312 151.386719 L 206.128906 120.257812 L 208.007812 121.429688 C 208.527344 121.753906 209.074219 122.023438 209.648438 122.242188 C 210.222656 122.457031 210.8125 122.617188 211.414062 122.71875 C 212.019531 122.820312 212.628906 122.859375 213.242188 122.839844 C 213.855469 122.820312 214.460938 122.742188 215.058594 122.605469 C 215.65625 122.46875 216.234375 122.273438 216.792969 122.023438 C 217.351562 121.769531 217.878906 121.46875 218.378906 121.113281 C 218.878906 120.757812 219.339844 120.355469 219.757812 119.910156 C 220.179688 119.464844 220.550781 118.980469 220.878906 118.460938 L 237.078125 92.5625 C 237.402344 92.042969 237.671875 91.496094 237.890625 90.925781 C 238.105469 90.351562 238.265625 89.761719 238.367188 89.15625 C 238.46875 88.554688 238.507812 87.945312 238.492188 87.332031 C 238.472656 86.71875 238.394531 86.113281 238.253906 85.515625 C 238.117188 84.921875 237.921875 84.34375 237.667969 83.785156 C 237.417969 83.226562 237.113281 82.695312 236.753906 82.199219 C 236.398438 81.699219 235.996094 81.238281 235.550781 80.820312 C 235.101562 80.402344 234.617188 80.027344 234.097656 79.703125 L 188.738281 51.425781 C 188.105469 51.03125 187.417969 50.789062 186.675781 50.710938 L 173.640625 49.257812 C 173.40625 49.039062 173.152344 48.84375 172.875 48.671875 L 156.175781 38.246094 C 155.625 37.898438 155.027344 37.671875 154.382812 37.5625 C 153.738281 37.457031 153.097656 37.476562 152.460938 37.628906 L 96.6875 50.488281 C 96.054688 50.636719 95.476562 50.898438 94.945312 51.273438 C 94.417969 51.648438 93.980469 52.109375 93.632812 52.660156 L 83.089844 69.367188 C 82.910156 69.644531 82.761719 69.941406 82.644531 70.25 L 71.882812 77.066406 C 71.097656 77.476562 70.46875 78.058594 70.003906 78.8125 L 41.636719 124.097656 C 41.3125 124.617188 41.042969 125.164062 40.824219 125.734375 C 40.605469 126.308594 40.449219 126.898438 40.347656 127.5 C 40.246094 128.105469 40.203125 128.714844 40.222656 129.328125 C 40.242188 129.9375 40.320312 130.542969 40.457031 131.140625 C 40.59375 131.738281 40.789062 132.316406 41.042969 132.875 C 41.292969 133.433594 41.597656 133.960938 41.953125 134.460938 C 42.308594 134.960938 42.710938 135.417969 43.15625 135.839844 C 43.605469 136.257812 44.089844 136.632812 44.609375 136.957031 L 70.53125 153.136719 C 71.050781 153.460938 71.597656 153.734375 72.171875 153.949219 C 72.746094 154.167969 73.335938 154.328125 73.9375 154.429688 C 74.542969 154.53125 75.152344 154.570312 75.765625 154.550781 C 76.378906 154.535156 76.984375 154.457031 77.582031 154.316406 C 78.179688 154.179688 78.757812 153.984375 79.320312 153.734375 C 79.878906 153.480469 80.40625 153.179688 80.90625 152.820312 C 81.40625 152.464844 81.867188 152.0625 82.285156 151.617188 C 82.707031 151.171875 83.078125 150.6875 83.402344 150.167969 L 84.613281 148.234375 L 100.269531 215.980469 C 100.386719 216.484375 100.542969 216.976562 100.742188 217.453125 C 100.9375 217.933594 101.175781 218.390625 101.449219 218.832031 C 101.726562 219.269531 102.035156 219.679688 102.382812 220.066406 C 102.726562 220.453125 103.101562 220.808594 103.503906 221.132812 C 103.910156 221.457031 104.335938 221.746094 104.789062 221.996094 C 105.242188 222.25 105.714844 222.460938 106.203125 222.632812 C 106.691406 222.808594 107.191406 222.9375 107.699219 223.027344 C 108.210938 223.117188 108.726562 223.164062 109.242188 223.164062 L 109.5 223.164062 C 127.964844 222.453125 146.191406 219.972656 164.175781 215.722656 C 174.785156 213.261719 185.234375 210.25 195.527344 206.6875 L 169.707031 299.628906 C 169.558594 300.1875 169.457031 300.75 169.410156 301.328125 C 169.367188 301.902344 169.371094 302.476562 169.433594 303.046875 C 169.492188 303.621094 169.605469 304.183594 169.773438 304.738281 C 169.9375 305.289062 170.152344 305.820312 170.414062 306.335938 C 170.679688 306.847656 170.988281 307.332031 171.34375 307.785156 C 171.699219 308.242188 172.089844 308.660156 172.523438 309.042969 C 172.957031 309.421875 173.417969 309.761719 173.914062 310.058594 C 174.410156 310.355469 174.929688 310.601562 175.46875 310.800781 L 195.671875 318.148438 C 196.214844 318.34375 196.769531 318.488281 197.335938 318.578125 C 197.90625 318.671875 198.476562 318.710938 199.054688 318.695312 C 199.628906 318.683594 200.199219 318.617188 200.761719 318.496094 C 201.324219 318.375 201.871094 318.207031 202.40625 317.984375 C 202.9375 317.765625 203.441406 317.496094 203.925781 317.179688 C 204.40625 316.867188 204.855469 316.507812 205.269531 316.109375 C 205.6875 315.710938 206.0625 315.28125 206.398438 314.8125 C 206.734375 314.34375 207.023438 313.847656 207.265625 313.328125 L 244.027344 234.304688 L 221.382812 318.417969 C 221.230469 318.976562 221.132812 319.539062 221.085938 320.113281 C 221.039062 320.691406 221.042969 321.265625 221.105469 321.835938 C 221.164062 322.410156 221.277344 322.972656 221.441406 323.527344 C 221.609375 324.078125 221.824219 324.613281 222.085938 325.125 C 222.351562 325.636719 222.660156 326.121094 223.015625 326.574219 C 223.371094 327.03125 223.761719 327.449219 224.195312 327.832031 C 224.628906 328.214844 225.09375 328.550781 225.589844 328.847656 C 226.082031 329.144531 226.601562 329.390625 227.144531 329.589844 L 247.34375 336.9375 C 248.359375 337.308594 249.410156 337.492188 250.488281 337.496094 C 251.378906 337.496094 252.253906 337.371094 253.109375 337.121094 C 253.964844 336.871094 254.765625 336.503906 255.515625 336.023438 C 256.265625 335.542969 256.933594 334.96875 257.519531 334.296875 C 258.105469 333.625 258.582031 332.886719 258.957031 332.078125 L 304.25 232.746094 C 317.851562 202.902344 328.03125 171.933594 334.789062 139.839844 L 339.976562 125.609375 C 340.179688 125.046875 340.328125 124.46875 340.417969 123.875 C 340.507812 123.285156 340.539062 122.6875 340.515625 122.089844 C 340.488281 121.492188 340.402344 120.902344 340.257812 120.320312 C 340.117188 119.738281 339.917969 119.175781 339.664062 118.632812 C 339.410156 118.089844 339.105469 117.574219 338.753906 117.09375 C 338.398438 116.609375 338 116.164062 337.558594 115.761719 C 337.117188 115.355469 336.636719 114.996094 336.125 114.6875 C 335.613281 114.375 335.074219 114.117188 334.511719 113.910156 Z M 307.871094 114.691406 L 304.503906 123.933594 L 303.089844 123.421875 L 268.839844 110.964844 L 272.203125 101.722656 Z M 242.171875 111.734375 L 255.546875 116.597656 C 255.007812 117.363281 254.417969 118.085938 253.773438 118.765625 C 253.128906 119.445312 252.441406 120.074219 251.703125 120.652344 C 250.96875 121.230469 250.195312 121.753906 249.382812 122.21875 C 248.570312 122.683594 247.730469 123.089844 246.859375 123.433594 C 245.988281 123.777344 245.097656 124.054688 244.1875 124.269531 C 243.273438 124.484375 242.351562 124.628906 241.421875 124.710938 C 240.488281 124.789062 239.554688 124.800781 238.621094 124.746094 C 237.683594 124.691406 236.757812 124.566406 235.84375 124.378906 C 237.894531 120.128906 239.988281 115.90625 242.171875 111.738281 Z M 311.046875 136.78125 L 324.339844 141.613281 C 323.332031 146.210938 322.21875 150.789062 321.058594 155.351562 C 320.238281 154.90625 319.457031 154.402344 318.714844 153.84375 C 317.96875 153.285156 317.269531 152.675781 316.609375 152.011719 C 315.953125 151.351562 315.347656 150.648438 314.792969 149.902344 C 314.238281 149.152344 313.738281 148.367188 313.296875 147.550781 C 312.855469 146.730469 312.476562 145.882812 312.15625 145.007812 C 311.835938 144.132812 311.582031 143.238281 311.390625 142.328125 C 311.199219 141.417969 311.078125 140.496094 311.019531 139.566406 C 310.960938 138.636719 310.972656 137.707031 311.046875 136.78125 Z M 327.109375 132.15625 L 313.753906 127.296875 L 317.121094 118.054688 L 330.480469 122.914062 Z M 249.507812 93.46875 L 262.953125 98.359375 L 259.585938 107.601562 L 246.140625 102.710938 Z M 130.515625 69.992188 L 110.453125 57.410156 L 143.097656 49.878906 Z M 99.339844 62.058594 L 125.296875 78.332031 L 120.074219 86.683594 L 94.050781 70.4375 Z M 155.136719 49.195312 L 163.484375 54.40625 L 147.207031 80.425781 L 138.859375 75.210938 Z M 161.960938 206.132812 C 144.789062 210.199219 127.390625 212.59375 109.761719 213.316406 L 91.53125 134.449219 C 91.421875 133.976562 91.246094 133.53125 91.003906 133.109375 C 90.761719 132.6875 90.464844 132.308594 90.109375 131.976562 C 89.753906 131.640625 89.359375 131.367188 88.921875 131.152344 C 88.488281 130.9375 88.027344 130.789062 87.546875 130.707031 C 87.066406 130.628906 86.585938 130.617188 86.105469 130.679688 C 85.621094 130.742188 85.15625 130.875 84.714844 131.074219 C 84.269531 131.273438 83.863281 131.535156 83.5 131.855469 C 83.132812 132.175781 82.820312 132.539062 82.5625 132.953125 L 75.320312 144.53125 L 50.253906 128.882812 L 77.734375 85.003906 L 88.195312 78.378906 L 119.035156 97.628906 C 119.308594 97.800781 119.597656 97.945312 119.898438 98.058594 C 120.199219 98.171875 120.511719 98.257812 120.832031 98.308594 C 121.148438 98.363281 121.46875 98.386719 121.792969 98.375 C 122.117188 98.367188 122.433594 98.324219 122.75 98.25 C 123.066406 98.179688 123.371094 98.074219 123.664062 97.941406 C 123.960938 97.808594 124.238281 97.652344 124.5 97.460938 C 124.765625 97.273438 125.007812 97.0625 125.226562 96.828125 C 125.449219 96.59375 125.644531 96.339844 125.816406 96.066406 L 132.027344 86.136719 L 133.191406 91.171875 C 133.285156 91.589844 133.503906 91.929688 133.839844 92.199219 C 134.175781 92.464844 134.554688 92.597656 134.984375 92.601562 C 135.125 92.601562 135.265625 92.585938 135.402344 92.550781 C 135.640625 92.496094 135.863281 92.398438 136.0625 92.257812 C 136.261719 92.113281 136.425781 91.941406 136.554688 91.730469 C 136.683594 91.523438 136.769531 91.300781 136.808594 91.058594 C 136.847656 90.816406 136.839844 90.578125 136.785156 90.339844 L 135.484375 84.703125 L 146.167969 91.371094 C 146.441406 91.542969 146.730469 91.6875 147.03125 91.800781 C 147.335938 91.914062 147.644531 92 147.964844 92.054688 C 148.285156 92.105469 148.605469 92.128906 148.925781 92.117188 C 149.25 92.109375 149.570312 92.066406 149.882812 91.996094 C 150.199219 91.921875 150.503906 91.820312 150.800781 91.6875 C 151.09375 91.554688 151.371094 91.394531 151.636719 91.207031 C 151.898438 91.019531 152.140625 90.804688 152.363281 90.570312 C 152.585938 90.335938 152.78125 90.082031 152.953125 89.808594 L 172.222656 58.996094 L 184.476562 60.359375 L 228.460938 87.78125 L 212.796875 112.820312 L 201.265625 105.625 C 200.851562 105.367188 200.410156 105.175781 199.941406 105.046875 C 199.472656 104.921875 198.992188 104.867188 198.507812 104.882812 C 198.019531 104.894531 197.546875 104.980469 197.085938 105.136719 C 196.621094 105.292969 196.195312 105.511719 195.796875 105.792969 C 195.402344 106.074219 195.054688 106.410156 194.757812 106.796875 C 194.460938 107.179688 194.226562 107.601562 194.054688 108.054688 C 193.878906 108.507812 193.777344 108.980469 193.746094 109.464844 C 193.710938 109.949219 193.75 110.429688 193.859375 110.902344 L 212.070312 189.707031 C 195.890625 196.773438 179.1875 202.25 161.960938 206.132812 Z M 295.289062 228.667969 L 250.21875 327.515625 L 231.007812 320.527344 L 265.417969 192.71875 C 265.566406 192.183594 265.632812 191.636719 265.621094 191.078125 C 265.613281 190.523438 265.523438 189.976562 265.355469 189.445312 C 265.1875 188.914062 264.949219 188.417969 264.640625 187.953125 C 264.332031 187.488281 263.964844 187.078125 263.535156 186.722656 L 266.253906 179.261719 C 266.335938 179.035156 266.375 178.796875 266.363281 178.550781 C 266.351562 178.308594 266.296875 178.074219 266.191406 177.851562 C 266.089844 177.628906 265.945312 177.4375 265.765625 177.273438 C 265.585938 177.105469 265.378906 176.980469 265.152344 176.898438 C 264.921875 176.8125 264.683594 176.777344 264.4375 176.789062 C 264.195312 176.796875 263.960938 176.855469 263.738281 176.960938 C 263.515625 177.0625 263.320312 177.203125 263.15625 177.382812 C 262.992188 177.566406 262.867188 177.769531 262.78125 178 L 260.089844 185.390625 C 259.5 185.34375 258.917969 185.386719 258.34375 185.515625 C 257.765625 185.648438 257.222656 185.863281 256.714844 186.160156 C 256.203125 186.457031 255.75 186.820312 255.351562 187.257812 C 254.953125 187.695312 254.628906 188.179688 254.382812 188.714844 L 198.546875 308.726562 L 179.339844 301.742188 L 206.90625 202.492188 C 210.21875 201.179688 213.503906 199.851562 216.609375 198.457031 C 217.09375 198.234375 217.550781 197.976562 217.988281 197.675781 C 218.425781 197.375 218.832031 197.042969 219.214844 196.671875 C 219.59375 196.304688 219.9375 195.90625 220.25 195.476562 C 220.558594 195.050781 220.832031 194.597656 221.066406 194.121094 C 221.300781 193.648438 221.492188 193.15625 221.640625 192.648438 C 221.789062 192.140625 221.894531 191.625 221.953125 191.097656 C 222.011719 190.574219 222.027344 190.046875 221.996094 189.515625 C 221.96875 188.988281 221.890625 188.46875 221.773438 187.953125 L 217.335938 168.761719 C 221.554688 156.8125 226.378906 145.019531 231.648438 133.433594 C 234.277344 134.242188 236.96875 134.664062 239.71875 134.699219 C 240.996094 134.695312 242.273438 134.613281 243.539062 134.445312 C 244.808594 134.277344 246.058594 134.027344 247.296875 133.695312 C 248.53125 133.363281 249.738281 132.953125 250.921875 132.460938 C 252.101562 131.972656 253.246094 131.410156 254.355469 130.769531 C 255.464844 130.128906 256.523438 129.421875 257.539062 128.644531 C 258.554688 127.863281 259.515625 127.023438 260.417969 126.121094 C 261.324219 125.214844 262.164062 124.257812 262.945312 123.242188 C 263.722656 122.230469 264.433594 121.167969 265.074219 120.0625 L 301.554688 133.328125 C 301.253906 134.921875 301.09375 136.53125 301.066406 138.15625 C 301.039062 139.777344 301.148438 141.390625 301.394531 142.992188 C 301.640625 144.597656 302.019531 146.167969 302.535156 147.710938 C 303.046875 149.25 303.683594 150.734375 304.445312 152.167969 C 305.210938 153.601562 306.089844 154.957031 307.082031 156.242188 C 308.074219 157.527344 309.167969 158.71875 310.363281 159.816406 C 311.558594 160.917969 312.835938 161.910156 314.195312 162.792969 C 315.558594 163.675781 316.984375 164.4375 318.476562 165.082031 C 312.402344 186.878906 304.671875 208.074219 295.289062 228.667969 Z M 274.125 157.664062 L 271.304688 165.398438 C 271.171875 165.765625 270.945312 166.058594 270.628906 166.28125 C 270.308594 166.5 269.957031 166.613281 269.570312 166.613281 C 269.351562 166.613281 269.140625 166.574219 268.9375 166.503906 C 268.707031 166.417969 268.5 166.292969 268.320312 166.128906 C 268.140625 165.960938 268 165.769531 267.894531 165.546875 C 267.792969 165.324219 267.734375 165.09375 267.722656 164.847656 C 267.710938 164.605469 267.75 164.367188 267.832031 164.136719 L 270.652344 156.398438 C 270.738281 156.167969 270.863281 155.964844 271.027344 155.785156 C 271.191406 155.605469 271.386719 155.464844 271.609375 155.363281 C 271.832031 155.257812 272.0625 155.203125 272.308594 155.191406 C 272.550781 155.179688 272.789062 155.21875 273.019531 155.300781 C 273.25 155.386719 273.453125 155.507812 273.632812 155.675781 C 273.8125 155.839844 273.957031 156.03125 274.058594 156.253906 C 274.164062 156.476562 274.21875 156.707031 274.230469 156.953125 C 274.242188 157.195312 274.207031 157.433594 274.125 157.664062 Z M 142.078125 113.226562 C 142.132812 113.464844 142.140625 113.707031 142.101562 113.945312 C 142.058594 114.1875 141.976562 114.414062 141.84375 114.621094 C 141.714844 114.828125 141.550781 115.003906 141.351562 115.144531 C 141.152344 115.285156 140.933594 115.382812 140.695312 115.441406 C 140.558594 115.472656 140.417969 115.488281 140.277344 115.488281 C 139.847656 115.488281 139.464844 115.351562 139.128906 115.085938 C 138.792969 114.820312 138.578125 114.476562 138.480469 114.058594 L 136.515625 105.546875 C 136.460938 105.308594 136.453125 105.070312 136.492188 104.828125 C 136.53125 104.589844 136.617188 104.363281 136.746094 104.15625 C 136.875 103.949219 137.039062 103.773438 137.238281 103.632812 C 137.4375 103.488281 137.65625 103.390625 137.894531 103.335938 C 138.132812 103.28125 138.375 103.273438 138.617188 103.3125 C 138.855469 103.355469 139.082031 103.4375 139.289062 103.570312 C 139.496094 103.699219 139.671875 103.863281 139.8125 104.0625 C 139.957031 104.261719 140.054688 104.480469 140.109375 104.71875 Z M 142.078125 113.226562 " fill-opacity="1" fill-rule="nonzero"/></g></svg>