<svg xmlns="http://www.w3.org/2000/svg" xmlns:xlink="http://www.w3.org/1999/xlink" width="500" zoomAndPan="magnify" viewBox="0 0 375 374.999991" height="500" preserveAspectRatio="xMidYMid meet" version="1.0"><defs><clipPath id="dc6610b262"><path d="M 61.125 37.5 L 313.875 37.5 L 313.875 337.5 L 61.125 337.5 Z M 61.125 37.5 " clip-rule="nonzero"/></clipPath></defs><g clip-path="url(#dc6610b262)"><path fill="#000000" d="M 141.414062 332.523438 C 156.230469 335.617188 171.378906 337.246094 186.359375 337.246094 C 186.523438 337.246094 186.847656 337.246094 187.011719 337.246094 C 201.992188 337.246094 216.976562 335.777344 231.632812 332.847656 C 235.703125 332.035156 238.960938 329.425781 240.753906 325.683594 C 242.542969 321.9375 242.382812 317.703125 240.425781 314.121094 L 236.84375 307.441406 L 236.84375 164.128906 C 236.84375 146.054688 219.582031 137.257812 212.089844 134.328125 C 213.230469 131.070312 214.695312 125.371094 215.023438 118.367188 C 215.347656 109.574219 213.394531 100.292969 209.160156 91.496094 L 205.414062 83.679688 L 205.414062 68.699219 L 208.507812 68.699219 C 210.300781 68.699219 211.765625 67.230469 211.765625 65.441406 C 211.765625 63.648438 210.300781 62.183594 208.507812 62.183594 L 205.414062 62.183594 L 205.414062 46.386719 C 205.414062 41.664062 201.667969 37.753906 196.945312 37.753906 L 177.402344 37.753906 C 172.679688 37.753906 168.933594 41.664062 168.933594 46.386719 L 168.933594 62.183594 L 166.003906 62.183594 C 164.210938 62.183594 162.746094 63.648438 162.746094 65.441406 C 162.746094 67.230469 164.210938 68.699219 166.003906 68.699219 L 168.933594 68.699219 L 168.933594 83.515625 L 165.027344 91.496094 C 160.792969 100.128906 158.835938 109.410156 159.164062 118.207031 C 159.488281 125.207031 160.953125 130.90625 162.09375 134.164062 C 154.601562 137.097656 137.339844 146.054688 137.339844 163.96875 L 137.339844 307.28125 L 133.269531 314.933594 C 132.292969 316.726562 131.804688 318.679688 131.804688 320.632812 C 131.804688 326.332031 135.875 331.382812 141.414062 332.523438 Z M 234.890625 322.914062 C 234.078125 324.703125 232.285156 326.007812 230.332031 326.496094 C 215.835938 329.425781 201.015625 330.894531 186.359375 330.894531 C 171.703125 330.894531 157.046875 329.265625 142.714844 326.332031 C 140.109375 325.84375 138.316406 323.566406 138.316406 320.796875 C 138.316406 319.820312 138.480469 319.003906 138.96875 318.191406 L 142.226562 312.003906 C 156.71875 315.257812 171.539062 316.886719 186.359375 316.886719 C 186.523438 316.886719 186.847656 316.886719 187.011719 316.886719 C 194.992188 316.886719 203.132812 316.398438 211.113281 315.421875 C 212.90625 315.257812 214.207031 313.628906 214.046875 311.839844 C 213.882812 310.046875 212.253906 308.746094 210.460938 308.90625 C 202.484375 309.886719 194.503906 310.210938 186.523438 310.210938 C 172.191406 310.210938 158.023438 308.582031 143.855469 305.488281 L 143.855469 194.09375 C 155.09375 197.027344 166.980469 197.839844 180.984375 198.328125 C 184.570312 198.492188 188.152344 198.492188 191.898438 198.492188 C 204.761719 198.492188 217.953125 197.515625 230.65625 194.09375 L 230.65625 308.09375 C 230.65625 308.582031 230.820312 309.234375 230.980469 309.558594 L 234.890625 317.050781 C 235.703125 318.84375 235.703125 320.960938 234.890625 322.914062 Z M 166.816406 139.375 L 186.847656 139.375 C 188.640625 139.375 190.105469 137.910156 190.105469 136.121094 C 190.105469 134.328125 188.640625 132.863281 186.847656 132.863281 L 168.609375 132.863281 C 167.632812 130.257812 166.003906 124.882812 165.675781 118.042969 C 165.351562 110.226562 167.144531 102.082031 170.890625 94.265625 L 174.144531 87.589844 L 185.21875 87.589844 C 187.011719 87.589844 188.476562 86.125 188.476562 84.332031 C 188.476562 82.539062 187.011719 81.074219 185.21875 81.074219 L 175.285156 81.074219 L 175.285156 68.699219 L 189.128906 68.699219 C 190.921875 68.699219 192.386719 67.230469 192.386719 65.441406 C 192.386719 63.648438 190.921875 62.183594 189.128906 62.183594 L 175.285156 62.183594 L 175.285156 46.386719 C 175.285156 45.246094 176.101562 44.269531 177.238281 44.269531 L 196.621094 44.269531 C 197.761719 44.269531 198.574219 45.246094 198.574219 46.386719 L 198.574219 65.441406 C 198.574219 65.601562 198.574219 65.601562 198.574219 65.765625 L 198.574219 84.332031 C 198.574219 84.820312 198.738281 85.308594 198.898438 85.796875 L 202.972656 94.429688 C 206.71875 102.246094 208.507812 110.386719 208.183594 118.207031 C 207.855469 128.140625 204.601562 134.816406 204.601562 134.816406 C 204.109375 135.632812 204.109375 136.609375 204.601562 137.585938 C 205.089844 138.5625 205.738281 139.214844 206.71875 139.375 C 206.878906 139.375 230.167969 146.542969 230.167969 164.128906 L 230.167969 187.417969 C 214.371094 191.976562 197.109375 192.304688 180.824219 191.816406 C 166.65625 191.328125 154.765625 190.511719 143.53125 187.417969 L 143.53125 164.128906 C 143.855469 147.683594 163.722656 140.355469 166.816406 139.375 Z M 68.128906 301.578125 C 67.800781 302.230469 67.640625 302.882812 67.640625 303.535156 C 67.640625 305.488281 69.105469 307.28125 71.058594 307.769531 C 83.273438 310.375 95.648438 311.511719 108.027344 311.675781 C 112.425781 311.675781 116.660156 311.511719 121.054688 311.1875 C 122.847656 311.023438 124.476562 312.492188 124.476562 314.28125 C 124.636719 316.074219 123.171875 317.703125 121.382812 317.703125 C 117.148438 318.027344 112.75 318.191406 108.515625 318.191406 C 108.351562 318.191406 108.191406 318.191406 107.863281 318.191406 C 95 318.191406 82.132812 316.726562 69.59375 314.121094 C 64.707031 313.140625 61.125 308.582031 61.125 303.535156 C 61.125 301.742188 61.613281 299.949219 62.429688 298.484375 L 65.847656 292.132812 L 65.847656 170.644531 C 65.847656 155.335938 80.179688 147.683594 86.855469 145.078125 C 85.878906 142.144531 84.738281 137.585938 84.414062 131.886719 C 84.085938 124.394531 85.878906 116.414062 89.460938 108.921875 L 92.71875 102.246094 L 92.71875 90.195312 L 90.765625 90.195312 C 88.972656 90.195312 87.507812 88.730469 87.507812 86.9375 C 87.507812 85.144531 88.972656 83.679688 90.765625 83.679688 L 92.71875 83.679688 L 92.71875 70.816406 C 92.71875 66.582031 96.140625 62.996094 100.371094 62.996094 L 116.820312 62.996094 C 121.054688 62.996094 124.476562 66.417969 124.476562 70.816406 L 124.476562 83.679688 L 126.59375 83.679688 C 128.382812 83.679688 129.847656 85.144531 129.847656 86.9375 C 129.847656 88.730469 128.382812 90.195312 126.59375 90.195312 L 124.636719 90.195312 L 124.636719 102.246094 L 127.894531 108.921875 C 131.476562 116.414062 133.269531 124.394531 132.945312 131.886719 C 132.78125 137.585938 131.476562 142.308594 130.5 145.078125 C 130.828125 145.238281 131.316406 145.402344 131.804688 145.566406 C 133.433594 146.378906 134.246094 148.171875 133.433594 149.800781 C 132.945312 150.9375 131.640625 151.753906 130.5 151.753906 C 130.011719 151.753906 129.6875 151.589844 129.199219 151.429688 C 126.917969 150.449219 125.453125 149.960938 125.453125 149.960938 C 124.476562 149.636719 123.824219 148.984375 123.335938 148.171875 C 123.007812 147.355469 123.007812 146.214844 123.335938 145.402344 C 123.335938 145.402344 126.105469 139.863281 126.429688 131.398438 C 126.753906 124.882812 125.125 118.042969 122.03125 111.527344 L 118.449219 104.199219 C 118.125 103.710938 118.125 103.222656 118.125 102.734375 L 118.125 86.9375 C 118.125 86.773438 118.125 86.773438 118.125 86.613281 L 118.125 70.488281 C 118.125 69.835938 117.636719 69.1875 116.984375 69.1875 L 100.371094 69.1875 C 99.722656 69.1875 99.234375 69.835938 99.234375 70.488281 L 99.234375 83.355469 L 110.46875 83.355469 C 112.261719 83.355469 113.726562 84.820312 113.726562 86.613281 C 113.726562 88.402344 112.261719 89.867188 110.46875 89.867188 L 99.234375 89.867188 L 99.234375 99.3125 L 107.210938 99.3125 C 109.003906 99.3125 110.46875 100.78125 110.46875 102.570312 C 110.46875 104.363281 109.003906 105.828125 107.210938 105.828125 L 98.09375 105.828125 L 95.324219 111.527344 C 92.230469 118.042969 90.601562 125.046875 90.925781 131.398438 C 91.089844 137.097656 92.394531 141.332031 93.207031 143.609375 L 108.515625 143.609375 C 110.308594 143.609375 111.773438 145.078125 111.773438 146.867188 C 111.773438 148.660156 110.308594 150.125 108.515625 150.125 L 91.578125 150.125 C 88.808594 151.101562 72.363281 157.128906 72.363281 170.644531 L 72.363281 290.34375 C 84.085938 292.949219 96.140625 294.25 108.027344 294.25 C 114.867188 294.25 121.542969 293.925781 128.222656 293.109375 C 130.011719 292.949219 131.640625 294.25 131.804688 296.042969 C 131.964844 297.832031 130.664062 299.460938 128.871094 299.625 C 122.03125 300.441406 115.191406 300.765625 108.351562 300.765625 C 108.191406 300.765625 108.027344 300.765625 107.863281 300.765625 C 95.488281 300.765625 82.949219 299.300781 70.570312 296.695312 Z M 307.359375 303.695312 C 307.359375 303.046875 307.199219 302.230469 306.871094 301.742188 L 304.265625 296.855469 C 292.050781 299.460938 279.511719 300.929688 266.972656 300.929688 C 266.808594 300.929688 266.648438 300.929688 266.484375 300.929688 C 259.644531 300.929688 252.804688 300.601562 245.964844 299.789062 C 244.171875 299.625 242.871094 297.996094 243.035156 296.207031 C 243.195312 294.414062 244.824219 293.109375 246.617188 293.273438 C 253.292969 294.089844 260.132812 294.414062 266.808594 294.414062 C 278.699219 294.414062 290.75 293.109375 302.476562 290.503906 L 302.476562 170.644531 C 302.476562 157.289062 286.027344 151.101562 283.257812 150.125 L 266.320312 150.125 C 264.53125 150.125 263.0625 148.660156 263.0625 146.867188 C 263.0625 145.078125 264.53125 143.609375 266.320312 143.609375 L 281.628906 143.609375 C 282.445312 141.332031 283.746094 137.097656 283.910156 131.398438 C 284.234375 124.882812 282.605469 118.042969 279.511719 111.527344 L 276.90625 106.152344 L 267.949219 106.152344 C 266.160156 106.152344 264.691406 104.6875 264.691406 102.898438 C 264.691406 101.105469 266.160156 99.640625 267.949219 99.640625 L 275.929688 99.640625 L 275.929688 90.195312 L 264.691406 90.195312 C 262.902344 90.195312 261.4375 88.730469 261.4375 86.9375 C 261.4375 85.144531 262.902344 83.679688 264.691406 83.679688 L 275.929688 83.679688 L 275.929688 70.816406 C 275.929688 70.164062 275.441406 69.511719 274.789062 69.511719 L 258.179688 69.511719 C 257.527344 69.511719 257.039062 70.164062 257.039062 70.816406 L 257.039062 86.9375 C 257.039062 87.101562 257.039062 87.101562 257.039062 87.261719 L 257.039062 103.058594 C 257.039062 103.546875 256.875 104.039062 256.714844 104.527344 L 253.128906 111.855469 C 250.035156 118.367188 248.40625 125.371094 248.734375 131.722656 C 249.058594 140.191406 251.664062 145.726562 251.828125 145.726562 C 252.316406 146.542969 252.316406 147.519531 251.828125 148.496094 C 251.5 149.3125 250.6875 150.125 249.710938 150.289062 C 249.710938 150.289062 248.082031 150.777344 245.964844 151.753906 C 245.476562 151.917969 245.152344 152.078125 244.660156 152.078125 C 243.359375 152.078125 242.21875 151.429688 241.730469 150.125 C 240.917969 148.496094 241.730469 146.542969 243.359375 145.890625 C 243.847656 145.726562 244.171875 145.566406 244.660156 145.402344 C 243.683594 142.472656 242.542969 137.910156 242.21875 132.210938 C 241.894531 124.71875 243.683594 116.738281 247.265625 109.25 L 250.523438 102.570312 L 250.523438 90.519531 L 248.40625 90.519531 C 246.617188 90.519531 245.152344 89.054688 245.152344 87.261719 C 245.152344 85.472656 246.617188 84.007812 248.40625 84.007812 L 250.523438 84.007812 L 250.523438 71.140625 C 250.523438 66.90625 253.945312 63.324219 258.179688 63.324219 L 274.628906 63.324219 C 278.859375 63.324219 282.28125 66.742188 282.28125 71.140625 L 282.28125 84.007812 L 284.234375 84.007812 C 286.027344 84.007812 287.492188 85.472656 287.492188 87.261719 C 287.492188 89.054688 286.027344 90.519531 284.234375 90.519531 L 282.28125 90.519531 L 282.28125 102.570312 L 285.539062 109.25 C 289.121094 116.738281 290.914062 124.71875 290.585938 132.210938 C 290.425781 137.910156 289.121094 142.632812 288.144531 145.402344 C 294.820312 148.171875 309.152344 155.824219 309.152344 170.96875 L 309.152344 292.621094 L 312.570312 298.972656 C 313.386719 300.601562 313.875 302.230469 313.875 304.023438 C 313.875 309.070312 310.292969 313.46875 305.40625 314.609375 C 292.867188 317.214844 279.839844 318.515625 267.136719 318.679688 C 266.972656 318.679688 266.808594 318.679688 266.484375 318.679688 C 262.25 318.679688 257.851562 318.515625 253.617188 318.191406 C 251.828125 318.027344 250.523438 316.5625 250.523438 314.769531 C 250.6875 312.980469 252.152344 311.675781 253.945312 311.675781 C 258.179688 312.003906 262.574219 312.164062 266.972656 312.164062 C 279.351562 312.164062 291.890625 310.863281 303.941406 308.257812 C 306.058594 307.441406 307.359375 305.652344 307.359375 303.695312 Z M 307.359375 303.695312 " fill-opacity="1" fill-rule="nonzero"/></g></svg>