<svg xmlns="http://www.w3.org/2000/svg" xmlns:xlink="http://www.w3.org/1999/xlink" width="500" zoomAndPan="magnify" viewBox="0 0 375 374.999991" height="500" preserveAspectRatio="xMidYMid meet" version="1.0"><defs><clipPath id="2bd05f6426"><path d="M 37.5 74 L 197.25 74 L 197.25 303 L 37.5 303 Z M 37.5 74 " clip-rule="nonzero"/></clipPath><clipPath id="3c2deb54cb"><path d="M 37.5 37.5 L 197.25 37.5 L 197.25 303 L 37.5 303 Z M 37.5 37.5 " clip-rule="nonzero"/></clipPath><clipPath id="20f59f9488"><path d="M 37.5 56 L 197.25 56 L 197.25 303 L 37.5 303 Z M 37.5 56 " clip-rule="nonzero"/></clipPath><clipPath id="7c4678a66b"><path d="M 37.5 37.5 L 197.25 37.5 L 197.25 303 L 37.5 303 Z M 37.5 37.5 " clip-rule="nonzero"/></clipPath><clipPath id="2e8cc08908"><path d="M 37.5 73 L 197.25 73 L 197.25 303 L 37.5 303 Z M 37.5 73 " clip-rule="nonzero"/></clipPath><clipPath id="7d43a62af8"><path d="M 117.296875 191.261719 L 337 191.261719 L 337 343.511719 L 117.296875 343.511719 Z M 117.296875 191.261719 " clip-rule="nonzero"/></clipPath></defs><g clip-path="url(#2bd05f6426)"><path stroke-linecap="butt" transform="matrix(2.240533, 0, 0, 2.238824, -5.742278, 27.301035)" fill="none" stroke-linejoin="miter" d="M 46.780207 120.710556 L 37.219144 117.470505 C 36.886146 117.346626 36.553148 117.346626 36.220149 117.470505 L 27.830683 120.75941 C 27.722589 120.803029 27.611009 120.830946 27.495941 120.846649 C 27.380874 120.862352 27.265806 120.862352 27.148995 120.850138 C 27.033928 120.83618 26.922347 120.810008 26.814253 120.769879 C 26.704416 120.728004 26.603296 120.675661 26.507407 120.609359 C 26.411517 120.544802 26.324345 120.468032 26.247633 120.380793 C 26.170922 120.293554 26.104671 120.199336 26.052367 120.096395 C 25.99832 119.993453 25.956478 119.885276 25.930326 119.773611 C 25.902431 119.6602 25.888483 119.54679 25.890227 119.42989 L 25.890227 78.999911 C 25.888483 78.811475 25.923352 78.628274 25.994833 78.453796 C 26.066315 78.277573 26.169178 78.124033 26.30168 77.989685 C 26.435925 77.855337 26.589349 77.752395 26.763693 77.679115 C 26.939782 77.605834 27.1211 77.569194 27.309392 77.569194 L 37.199967 77.569194 C 37.35862 77.569194 37.51553 77.595366 37.665467 77.645964 C 37.817147 77.698307 37.954879 77.773333 38.080407 77.87104 C 38.205935 77.968748 38.314029 78.083903 38.401201 78.218251 C 38.488374 78.350854 38.551138 78.495671 38.589494 78.649211 L 48.589905 118.969268 C 48.659643 119.222261 48.657899 119.475254 48.588162 119.726502 C 48.518424 119.979494 48.389409 120.195847 48.201116 120.377304 C 48.012824 120.558761 47.791406 120.67915 47.536863 120.738473 C 47.28232 120.797795 47.02952 120.789071 46.780207 120.710556 Z M 46.780207 120.710556 " stroke="#000000" stroke-width="4" stroke-opacity="1" stroke-miterlimit="10"/></g><g clip-path="url(#3c2deb54cb)"><path stroke-linecap="butt" transform="matrix(2.240533, 0, 0, 2.238824, -5.742278, 27.301035)" fill="none" stroke-linejoin="miter" d="M 87.869763 9.92069 C 87.226432 13.474802 86.370399 16.97657 85.298179 20.425994 C 84.227703 23.877164 82.949756 27.248073 81.466083 30.542213 C 79.98241 33.834607 78.301727 37.025805 76.427522 40.114061 C 74.553316 43.202316 72.497792 46.163203 70.259206 49.000211 C 66.904815 53.212103 63.193016 57.083764 59.125555 60.611704 C 55.058093 64.141388 50.702963 67.271519 46.060164 70.00035 L 45.929405 70.12074 C 45.313968 69.754337 44.646228 69.574624 43.929672 69.579859 L 25.930326 69.579859 L 25.930326 8.430651 C 31.739491 6.67017 34.209955 7.490216 35.369347 8.659216 C 36.239327 9.540329 36.169589 10.409228 37.170328 10.97977 C 39.239799 12.169708 41.359831 9.460069 44.810112 8.880803 C 50.950532 7.879301 54.369431 14.669974 59.029665 12.879833 C 61.339732 12.000465 60.860284 10.180662 63.280189 9.320487 C 66.950144 8.010159 69.870418 11.569505 74.729404 12.670459 C 77.600861 13.329985 81.900201 13.279387 87.869763 9.92069 Z M 87.869763 9.92069 " stroke="#000000" stroke-width="4" stroke-opacity="1" stroke-miterlimit="10"/></g><g clip-path="url(#20f59f9488)"><path stroke-linecap="butt" transform="matrix(2.240533, 0, 0, 2.238824, -5.742278, 27.301035)" fill="none" stroke-linejoin="miter" d="M 48.00062 73.580633 C 48.002363 74.11628 47.902987 74.632734 47.69726 75.12825 C 47.493277 75.625512 47.200378 76.061706 46.820306 76.440323 C 46.440235 76.81545 46.004373 77.103338 45.510978 77.305732 C 45.017582 77.509871 44.503266 77.611069 43.969771 77.609324 L 25.26956 77.609324 C 25.008042 77.609324 24.746525 77.584897 24.490239 77.532554 C 24.232209 77.481955 23.981152 77.405185 23.738813 77.305732 C 23.496474 77.204535 23.266339 77.082401 23.048408 76.93584 C 22.828734 76.789278 22.626494 76.623525 22.441689 76.438578 C 22.25514 76.251887 22.089512 76.051238 21.944806 75.831396 C 21.798357 75.613299 21.674572 75.382988 21.575196 75.140464 C 21.474076 74.89794 21.397364 74.648437 21.346804 74.39021 C 21.296244 74.131983 21.270092 73.872011 21.270092 73.610294 C 21.271836 73.076392 21.376443 72.561683 21.580426 72.069656 C 21.784409 71.575884 22.073821 71.13969 22.450406 70.759328 C 22.82699 70.382456 23.264596 70.092823 23.757991 69.890429 C 24.251387 69.68629 24.765703 69.586838 25.299198 69.590327 L 43.940132 69.590327 C 44.656689 69.583348 45.324429 69.76306 45.939866 70.129464 C 46.250199 70.298707 46.532638 70.504591 46.788924 70.750604 C 47.043468 70.994873 47.261399 71.268803 47.442717 71.572394 C 47.624035 71.875986 47.761768 72.198769 47.855914 72.539001 C 47.951804 72.879233 47.998877 73.226443 48.00062 73.580633 Z M 48.00062 73.580633 " stroke="#000000" stroke-width="4" stroke-opacity="1" stroke-miterlimit="10"/></g><g clip-path="url(#7c4678a66b)"><path stroke-linecap="butt" transform="matrix(2.240533, 0, 0, 2.238824, -5.742278, 27.301035)" fill="none" stroke-linejoin="miter" d="M 37.149407 10.97977 L 30.360424 69.550198 " stroke="#000000" stroke-width="4" stroke-opacity="1" stroke-miterlimit="10"/><path stroke-linecap="butt" transform="matrix(2.240533, 0, 0, 2.238824, -5.742278, 27.301035)" fill="none" stroke-linejoin="miter" d="M 57.51984 13.099674 L 38.209422 69.340824 " stroke="#000000" stroke-width="4" stroke-opacity="1" stroke-miterlimit="10"/><path stroke-linecap="butt" transform="matrix(2.240533, 0, 0, 2.238824, -5.742278, 27.301035)" fill="none" stroke-linejoin="miter" d="M 76.619301 13.099674 L 43.940132 69.560666 " stroke="#000000" stroke-width="4" stroke-opacity="1" stroke-miterlimit="10"/></g><g clip-path="url(#2e8cc08908)"><path stroke-linecap="butt" transform="matrix(2.240533, 0, 0, 2.238824, -5.742278, 27.301035)" fill="none" stroke-linejoin="miter" d="M 37.219144 117.470505 L 32.689669 77.39995 " stroke="#000000" stroke-width="4" stroke-opacity="1" stroke-miterlimit="10"/></g><g clip-path="url(#7d43a62af8)"><path fill="#000000" d="M 246.570312 335.601562 C 270.527344 342.792969 288.957031 334.550781 297.136719 312.996094 L 297.136719 312.992188 C 303.148438 297.148438 295.15625 279.363281 279.324219 273.347656 C 273.320312 271.066406 266.792969 271.261719 260.933594 273.898438 C 258.355469 275.058594 256.042969 276.628906 254.070312 278.539062 C 254.003906 278.609375 253.9375 278.675781 253.867188 278.738281 C 251.457031 281.128906 249.5625 284.027344 248.320312 287.296875 C 246.546875 291.96875 246.699219 297.050781 248.746094 301.609375 C 250.792969 306.167969 254.492188 309.652344 259.160156 311.425781 C 266.59375 314.25 274.9375 310.496094 277.761719 303.054688 C 278.285156 301.675781 279.832031 300.980469 281.214844 301.503906 C 282.59375 302.03125 283.289062 303.574219 282.765625 304.960938 C 278.894531 315.160156 267.453125 320.304688 257.261719 316.433594 C 251.257812 314.152344 246.5 309.667969 243.863281 303.804688 C 241.230469 297.941406 241.035156 291.40625 243.316406 285.394531 C 244.828125 281.414062 247.128906 277.882812 250.0625 274.96875 L 288.726562 218.832031 L 221.488281 201.792969 L 216.660156 208.125 C 216.660156 208.125 216.660156 208.128906 216.65625 208.132812 L 181.515625 254.226562 C 181.511719 254.226562 181.511719 254.226562 181.511719 254.230469 L 175.640625 261.929688 C 175.636719 261.9375 175.632812 261.941406 175.628906 261.945312 L 169.765625 269.636719 C 169.757812 269.644531 169.753906 269.652344 169.746094 269.664062 L 163.890625 277.339844 C 163.882812 277.351562 163.875 277.363281 163.867188 277.375 L 158.015625 285.046875 C 158.007812 285.058594 158 285.070312 157.992188 285.082031 L 152.140625 292.753906 C 152.132812 292.765625 152.125 292.777344 152.117188 292.789062 L 148.367188 297.703125 C 163.046875 303.773438 223.949219 328.8125 246.570312 335.601562 Z M 303.824219 295.132812 L 330.339844 224.347656 C 331.953125 220.09375 331.816406 215.472656 329.953125 211.324219 C 328.089844 207.175781 324.722656 204.003906 320.476562 202.390625 C 313.433594 199.714844 305.488281 202.738281 301.585938 209.582031 C 301.546875 209.648438 301.507812 209.710938 301.464844 209.773438 L 261.382812 267.972656 C 267.828125 265.777344 274.773438 265.890625 281.222656 268.339844 C 290.230469 271.761719 297.367188 278.488281 301.316406 287.28125 C 302.460938 289.828125 303.296875 292.460938 303.824219 295.132812 Z M 117.511719 289.453125 C 118.003906 288.058594 119.53125 287.328125 120.925781 287.816406 L 143.183594 295.671875 L 145.628906 292.464844 L 125.457031 285.480469 C 124.0625 284.996094 123.320312 283.46875 123.804688 282.070312 C 124.289062 280.675781 125.8125 279.933594 127.207031 280.417969 L 149.046875 287.980469 L 151.484375 284.785156 L 131.769531 278.089844 C 130.371094 277.613281 129.621094 276.09375 130.097656 274.691406 C 130.570312 273.292969 132.089844 272.542969 133.492188 273.015625 L 154.910156 280.292969 L 157.339844 277.105469 L 138.082031 270.699219 C 136.679688 270.230469 135.921875 268.714844 136.386719 267.3125 C 136.855469 265.910156 138.371094 265.148438 139.769531 265.617188 L 160.769531 272.605469 L 163.191406 269.429688 L 144.398438 263.308594 C 142.992188 262.851562 142.222656 261.339844 142.679688 259.933594 C 143.136719 258.527344 144.648438 257.757812 146.050781 258.214844 L 166.632812 264.914062 L 169.046875 261.75 L 150.710938 255.917969 C 149.304688 255.472656 148.523438 253.964844 148.972656 252.558594 C 149.417969 251.148438 150.921875 250.367188 152.332031 250.816406 L 172.492188 257.230469 L 174.898438 254.074219 L 157.023438 248.53125 C 155.613281 248.09375 154.824219 246.589844 155.261719 245.179688 C 155.699219 243.765625 157.199219 242.976562 158.609375 243.414062 L 178.355469 249.539062 L 180.746094 246.402344 L 163.339844 241.140625 C 161.925781 240.710938 161.125 239.21875 161.554688 237.804688 C 161.980469 236.386719 163.472656 235.585938 164.890625 236.011719 L 184.214844 241.855469 L 186.597656 238.726562 L 169.65625 233.75 C 168.242188 233.335938 167.429688 231.847656 167.84375 230.429688 C 168.261719 229.007812 169.75 228.195312 171.167969 228.613281 L 190.074219 234.167969 L 192.445312 231.054688 L 175.976562 226.363281 C 174.554688 225.957031 173.730469 224.476562 174.136719 223.050781 C 174.539062 221.628906 176.019531 220.804688 177.441406 221.210938 L 195.933594 226.480469 L 198.292969 223.386719 L 182.292969 218.972656 C 180.871094 218.582031 180.035156 217.105469 180.425781 215.679688 C 180.816406 214.253906 182.292969 213.417969 183.71875 213.808594 L 201.792969 218.796875 L 204.140625 215.71875 L 188.613281 211.585938 C 187.1875 211.203125 186.335938 209.734375 186.714844 208.308594 C 187.097656 206.878906 188.5625 206.027344 189.992188 206.410156 L 207.652344 211.113281 L 209.984375 208.050781 L 194.9375 204.195312 C 193.507812 203.828125 192.640625 202.367188 193.007812 200.9375 C 193.375 199.503906 194.832031 198.640625 196.265625 199.007812 L 213.511719 203.429688 L 215.828125 200.386719 L 201.257812 196.808594 C 199.824219 196.453125 198.945312 195.003906 199.296875 193.566406 C 199.652344 192.128906 201.101562 191.253906 202.535156 191.605469 L 221.070312 196.164062 C 221.074219 196.164062 221.074219 196.164062 221.078125 196.164062 C 221.082031 196.164062 221.085938 196.164062 221.089844 196.167969 L 291.964844 214.128906 L 296.996094 206.824219 C 299.511719 202.46875 303.441406 199.125 308.074219 197.394531 C 312.738281 195.65625 317.816406 195.652344 322.375 197.382812 C 327.960938 199.503906 332.382812 203.675781 334.832031 209.128906 C 337.28125 214.578125 337.464844 220.660156 335.347656 226.234375 L 302.144531 314.882812 C 302.144531 314.882812 302.144531 314.886719 302.144531 314.886719 C 302.140625 314.890625 302.140625 314.890625 302.140625 314.894531 C 297.753906 326.449219 290.382812 334.976562 280.816406 339.5625 C 275.867188 341.933594 270.351562 343.25 264.425781 343.46875 C 263.828125 343.492188 263.226562 343.503906 262.625 343.503906 C 257.078125 343.503906 251.167969 342.574219 245.03125 340.730469 C 219.261719 332.996094 147.109375 302.988281 143.171875 301.347656 L 119.144531 292.871094 C 117.753906 292.375 117.019531 290.847656 117.511719 289.453125 " fill-opacity="1" fill-rule="nonzero"/></g></svg>