<svg xmlns="http://www.w3.org/2000/svg" xmlns:xlink="http://www.w3.org/1999/xlink" width="500" zoomAndPan="magnify" viewBox="0 0 375 374.999991" height="500" preserveAspectRatio="xMidYMid meet" version="1.0"><defs><clipPath id="30d8336fd2"><path d="M 76 242 L 337 242 L 337 271.976562 L 76 271.976562 Z M 76 242 " clip-rule="nonzero"/></clipPath></defs><path stroke-linecap="round" transform="matrix(-4.668672, 0, 0, 4.674515, 336.897491, 39.186413)" fill="none" stroke-linejoin="round" d="M 62.810419 35.530321 L 42.810085 35.279626 C 40.691575 34.875172 38.60486 34.345372 36.54994 33.690223 C 35.72998 33.420309 34.899979 33.110284 34.069979 32.750119 L 33.779646 32.619758 C 32.87016 32.208619 31.983264 31.75152 31.119796 31.250131 C 30.360077 30.799716 29.550158 30.24986 28.730197 29.700003 C 27.910237 29.150147 27.230005 28.560179 26.460246 27.88999 C 25.689651 27.2198 25.079701 26.629832 24.380225 25.890284 C 24.130054 25.630397 23.889922 25.359647 23.639751 25.089733 C 23.537674 24.971906 23.425557 24.864108 23.3034 24.766337 C 23.181242 24.668566 23.050718 24.58333 22.912664 24.509793 C 22.774609 24.43542 22.631534 24.375253 22.482603 24.328457 C 22.332835 24.280825 22.180556 24.247399 22.025768 24.228179 C 21.870143 24.208959 21.714518 24.203946 21.558893 24.213973 C 21.402431 24.223165 21.248479 24.246564 21.097038 24.284168 C 20.944759 24.322608 20.798338 24.373582 20.6561 24.437927 C 20.513025 24.503108 20.378317 24.579987 20.250303 24.670237 C 18.422127 25.948779 16.438325 26.905596 14.299735 27.539853 C 13.141751 27.880797 11.961175 28.110601 10.759683 28.230098 C 10.250136 28.290265 9.759833 28.310321 9.260327 28.320348 L 9.260327 19.920413 C 9.25949 19.861082 9.262 19.801751 9.267857 19.743256 C 9.274551 19.68476 9.283754 19.626265 9.296305 19.568605 C 9.309692 19.510946 9.325589 19.454121 9.34567 19.398133 C 9.364914 19.34298 9.387504 19.288663 9.413442 19.235182 C 9.43938 19.1817 9.467827 19.130726 9.499621 19.080587 C 9.531416 19.031283 9.566557 18.983652 9.604208 18.937691 C 9.641023 18.89173 9.681184 18.848277 9.723855 18.80733 C 9.766527 18.766383 9.810872 18.727943 9.857727 18.69201 C 9.904581 18.656077 9.953946 18.623487 10.004985 18.593404 C 10.055186 18.563321 10.107898 18.535744 10.161446 18.512346 C 10.215832 18.488112 10.271053 18.467221 10.327112 18.449672 C 10.384007 18.432124 10.440902 18.417918 10.498634 18.407054 C 10.557203 18.396191 10.615771 18.38867 10.67434 18.384492 C 10.733745 18.380314 10.792314 18.379478 10.851719 18.382821 C 10.910288 18.385327 10.968856 18.391177 11.027425 18.401205 C 11.085993 18.410397 11.142889 18.423767 11.199784 18.439645 C 12.439764 18.808165 13.702336 19.05301 14.990008 19.174179 C 16.276843 19.295348 17.563679 19.290334 18.849677 19.159973 C 20.558207 18.982816 22.215698 18.592568 23.823824 17.98923 C 25.431113 17.385892 26.937162 16.58952 28.340298 15.600112 C 28.468312 15.510698 28.603857 15.433818 28.746095 15.369473 C 28.888333 15.305128 29.035591 15.254154 29.187032 15.217385 C 29.339311 15.179781 29.492426 15.156383 29.648887 15.147191 C 29.804513 15.137999 29.960138 15.143013 30.114926 15.162233 C 30.270551 15.181452 30.421993 15.214043 30.571761 15.261675 C 30.720693 15.308471 30.863767 15.368638 31.001822 15.442175 C 31.139876 15.514876 31.270401 15.600112 31.392558 15.697883 C 31.514715 15.794818 31.627669 15.902617 31.729746 16.019608 C 31.979917 16.290358 32.220048 16.560272 32.47022 16.820158 L 30.249634 19.649663 C 30.203616 19.710665 30.162618 19.77501 30.12915 19.842698 C 30.094845 19.911221 30.068071 19.982251 30.047991 20.055788 C 30.02791 20.129325 30.015359 20.204533 30.009503 20.280577 C 30.004482 20.356621 30.006992 20.432665 30.016196 20.508709 C 30.026236 20.583918 30.04297 20.65829 30.068071 20.730992 C 30.092335 20.802858 30.123293 20.872216 30.161781 20.938233 C 30.199432 21.005084 30.243777 21.066922 30.293979 21.123746 C 30.34418 21.181406 30.399402 21.233216 30.459644 21.280013 L 30.86042 21.610094 C 30.920662 21.656054 30.984251 21.696165 31.05286 21.730427 C 31.120632 21.764689 31.191751 21.791429 31.264544 21.811485 C 31.338173 21.83154 31.412638 21.844075 31.488778 21.849925 C 31.564917 21.854939 31.640219 21.853267 31.716358 21.844075 C 31.791661 21.834883 31.86529 21.81817 31.938082 21.794772 C 32.010038 21.770538 32.079484 21.740455 32.145582 21.702851 C 32.212518 21.666082 32.274433 21.622628 32.332165 21.573325 C 32.389897 21.524022 32.442609 21.469705 32.4903 21.410374 L 34.550241 18.799809 C 35.32 19.469999 36.089758 20.069994 36.820192 20.609823 L 35.099949 22.810084 C 35.053094 22.869415 35.012096 22.93376 34.976955 23.001448 C 34.941814 23.069135 34.914203 23.13933 34.893286 23.212867 C 34.873205 23.286404 34.858981 23.360777 34.853124 23.436821 C 34.847268 23.512865 34.848104 23.588909 34.857308 23.664117 C 34.865675 23.740161 34.882409 23.814534 34.905836 23.886399 C 34.929264 23.959101 34.959385 24.028459 34.996199 24.095311 C 35.03385 24.162163 35.076522 24.224001 35.125887 24.282496 C 35.175252 24.340156 35.230473 24.392802 35.289879 24.439598 L 35.699859 24.759652 C 35.760101 24.807284 35.824526 24.84823 35.893135 24.882492 C 35.961744 24.916753 36.032863 24.94433 36.107329 24.965221 C 36.180958 24.985277 36.25626 24.998647 36.332399 25.004496 C 36.408539 25.010346 36.485514 25.007839 36.561654 24.998647 C 36.637793 24.989455 36.712259 24.972742 36.785051 24.949344 C 36.857843 24.92511 36.927289 24.894191 36.994224 24.856587 C 37.06116 24.818983 37.123912 24.775529 37.181644 24.72539 C 37.240213 24.675251 37.292924 24.620098 37.339779 24.559932 L 39.20979 22.15995 C 40.073259 22.661339 40.960154 23.118439 41.869641 23.530413 L 39.869942 26.140142 C 39.81974 26.197802 39.775395 26.260476 39.736908 26.327327 C 39.699256 26.395015 39.667462 26.464374 39.644034 26.537911 C 39.61977 26.610612 39.603036 26.685821 39.593833 26.7627 C 39.584629 26.838744 39.582956 26.915624 39.588813 26.992503 C 39.59467 27.069383 39.608893 27.144591 39.629811 27.218964 C 39.650728 27.292501 39.679176 27.364367 39.714317 27.43289 C 39.749458 27.500578 39.791293 27.564922 39.838984 27.625089 C 39.887512 27.685256 39.941061 27.740409 39.999629 27.789712 L 40.40961 28.109765 C 40.469852 28.157397 40.534277 28.199179 40.602886 28.234277 C 40.671495 28.269374 40.742614 28.29695 40.816243 28.317841 C 40.890709 28.338733 40.966011 28.352103 41.04215 28.357953 C 41.119126 28.363802 41.195265 28.362131 41.272241 28.352939 C 41.34838 28.343746 41.422846 28.327034 41.495638 28.3028 C 41.568431 28.278566 41.638713 28.247647 41.705649 28.210043 C 41.772584 28.171603 41.8345 28.127314 41.892231 28.077175 C 41.9508 28.0262 42.002675 27.971047 42.050367 27.910045 L 44.629894 24.620098 C 52.000332 27.060191 58.600175 26.500307 61.550358 31.270186 C 61.934401 31.916142 62.233937 32.599703 62.447294 33.320867 C 62.660651 34.042031 62.781135 34.778237 62.810419 35.530321 Z M 62.810419 35.530321 " stroke="#000000" stroke-width="2" stroke-opacity="1" stroke-miterlimit="4"/><path stroke-linecap="round" transform="matrix(-4.668672, 0, 0, 4.674515, 336.897491, 39.186413)" fill="none" stroke-linejoin="round" d="M 62.819623 35.530321 L 62.819623 37.65036 C 62.819623 37.789913 62.806236 37.927795 62.778625 38.064841 C 62.751851 38.201888 62.710853 38.334756 62.657304 38.463446 C 62.603756 38.592135 62.538494 38.714976 62.460681 38.831131 C 62.382869 38.947286 62.294179 39.054249 62.195449 39.152855 C 62.096719 39.251462 61.988786 39.339205 61.872485 39.416085 C 61.756185 39.4938 61.633191 39.558145 61.50434 39.611626 C 61.375489 39.664272 61.242455 39.704383 61.105237 39.731124 C 60.968019 39.757865 60.829964 39.770399 60.690236 39.770399 L 53.069627 39.770399 C 51.069928 37.149807 47.85033 36.350091 43.959702 35.530321 Z M 62.819623 35.530321 " stroke="#000000" stroke-width="2" stroke-opacity="1" stroke-miterlimit="4"/><path stroke-linecap="round" transform="matrix(-4.668672, 0, 0, 4.674515, 336.897491, 39.186413)" fill="none" stroke-linejoin="round" d="M 34.570322 18.819864 L 32.510381 21.429594 C 32.46269 21.48976 32.409978 21.544077 32.352246 21.593381 C 32.294514 21.642684 32.231762 21.686138 32.165663 21.722906 C 32.099564 21.76051 32.030119 21.790594 31.957326 21.814827 C 31.885371 21.838226 31.811742 21.854939 31.735602 21.864131 C 31.6603 21.873323 31.584997 21.874994 31.508858 21.86998 C 31.432719 21.864131 31.358253 21.851596 31.284624 21.83154 C 31.211832 21.811485 31.140713 21.783908 31.072941 21.750483 C 31.004332 21.716221 30.939906 21.67611 30.879664 21.630149 L 30.479725 21.300068 C 30.419483 21.253272 30.364261 21.201462 30.314059 21.143802 C 30.263858 21.086142 30.219513 21.024304 30.181025 20.958288 C 30.143374 20.892272 30.112416 20.822913 30.088152 20.751047 C 30.063051 20.678346 30.046317 20.603973 30.036277 20.528765 C 30.027073 20.452721 30.024563 20.376677 30.029583 20.300633 C 30.034603 20.224589 30.047991 20.149381 30.068071 20.075844 C 30.087315 20.002307 30.114926 19.931277 30.148394 19.862753 C 30.182698 19.795066 30.22286 19.730721 30.269714 19.669719 L 32.4903 16.840214 C 33.189777 17.559707 33.880049 18.209841 34.570322 18.819864 Z M 34.570322 18.819864 " stroke="#000000" stroke-width="2" stroke-opacity="1" stroke-miterlimit="4"/><path stroke-linecap="round" transform="matrix(-4.668672, 0, 0, 4.674515, 336.897491, 39.186413)" fill="none" stroke-linejoin="round" d="M 39.229871 22.180006 L 37.35986 24.579987 C 37.313005 24.640154 37.260293 24.695307 37.201725 24.745446 C 37.143156 24.795584 37.081241 24.839038 37.014305 24.876642 C 36.94737 24.914246 36.877924 24.945165 36.805132 24.969399 C 36.732339 24.992797 36.657037 25.00951 36.581734 25.018702 C 36.505595 25.027895 36.428619 25.030402 36.35248 25.024552 C 36.276341 25.018702 36.201039 25.005332 36.126573 24.985277 C 36.052944 24.964385 35.981825 24.936809 35.913216 24.902547 C 35.844607 24.868286 35.780181 24.827339 35.719939 24.779707 L 35.309959 24.459654 C 35.250554 24.412858 35.195332 24.360212 35.145967 24.301716 C 35.096602 24.244057 35.053931 24.181383 35.01628 24.115367 C 34.979465 24.048515 34.949344 23.979156 34.925917 23.906455 C 34.902489 23.833753 34.885755 23.760216 34.877389 23.684172 C 34.868185 23.608964 34.867348 23.53292 34.873205 23.456876 C 34.879062 23.380832 34.892449 23.306459 34.913366 23.232922 C 34.934284 23.159385 34.961895 23.089191 34.997036 23.021503 C 35.03134 22.953816 35.072338 22.889471 35.12003 22.83014 L 36.840273 20.629878 C 37.660233 21.209818 38.470153 21.729591 39.229871 22.180006 Z M 39.229871 22.180006 " stroke="#000000" stroke-width="2" stroke-opacity="1" stroke-miterlimit="4"/><path stroke-linecap="round" transform="matrix(-4.668672, 0, 0, 4.674515, 336.897491, 39.186413)" fill="none" stroke-linejoin="round" d="M 44.670056 24.620098 L 42.089691 27.910045 C 42.042836 27.971047 41.990961 28.0262 41.932393 28.077175 C 41.874661 28.127314 41.811909 28.171603 41.74581 28.210043 C 41.678874 28.247647 41.608592 28.278566 41.5358 28.3028 C 41.463007 28.327034 41.388542 28.343746 41.311566 28.352939 C 41.235427 28.362131 41.159287 28.363802 41.082312 28.357953 C 41.006172 28.352103 40.93087 28.338733 40.856404 28.317841 C 40.782775 28.29695 40.711656 28.269374 40.643047 28.234277 C 40.574438 28.199179 40.510013 28.157397 40.449771 28.109765 L 39.999629 27.789712 C 39.940224 27.742915 39.885839 27.69027 39.836474 27.631774 C 39.787109 27.574115 39.743601 27.511441 39.706787 27.445425 C 39.669135 27.378573 39.639014 27.309214 39.615587 27.236513 C 39.592159 27.163811 39.576262 27.090274 39.567059 27.01423 C 39.558692 26.939022 39.557018 26.862978 39.562875 26.786934 C 39.569569 26.71089 39.582956 26.636517 39.603873 26.56298 C 39.624791 26.489443 39.652401 26.419249 39.686706 26.351561 C 39.721847 26.283874 39.762845 26.219529 39.8097 26.160198 L 41.810235 23.549633 L 42.099732 23.679994 C 43.000014 24.000047 43.850095 24.350184 44.670056 24.620098 Z M 44.670056 24.620098 " stroke="#000000" stroke-width="2" stroke-opacity="1" stroke-miterlimit="4"/><path stroke-linecap="round" transform="matrix(-4.668672, 0, 0, 4.674515, 336.897491, 39.186413)" fill="none" stroke-linejoin="round" d="M 54.719588 44.589582 L 54.000031 44.589582 C 43.333019 44.463399 32.693617 44.333038 22.080153 44.20017 L 11.080137 44.20017 C 11.095197 43.970367 11.095197 43.739728 11.080137 43.509925 C 11.080137 43.270929 11.068423 43.031934 11.044995 42.793774 C 11.021568 42.55645 10.986427 42.319962 10.939572 42.085145 C 10.893554 41.850328 10.834985 41.618853 10.76554 41.389885 C 10.696094 41.160918 10.615771 40.936128 10.524572 40.714682 C 10.433372 40.494071 10.331295 40.277638 10.218342 40.067054 C 10.105388 39.855635 9.983231 39.650902 9.850196 39.452017 C 9.717162 39.253133 9.574924 39.060934 9.423482 38.876256 C 9.272041 38.690742 9.111395 38.513584 8.942383 38.344784 C 8.773371 38.175147 8.596829 38.014703 8.411919 37.862615 C 8.22701 37.711362 8.035407 37.568466 7.836274 37.435598 C 7.637977 37.30273 7.432987 37.179054 7.22214 37.066242 C 7.011293 36.953429 6.795426 36.85148 6.574539 36.759559 C 6.353652 36.667638 6.128581 36.58658 5.900164 36.517221 C 5.67091 36.447027 5.439145 36.389367 5.204871 36.342571 C 4.96976 36.294939 4.733812 36.259841 4.496191 36.236443 C 4.257733 36.212209 4.019275 36.20051 3.779981 36.199675 C 2.887228 36.198839 2.02376 36.359284 1.190413 36.680172 L 1.190413 28.99973 C 1.189576 28.941235 1.192086 28.881904 1.197943 28.823409 C 1.2038 28.764913 1.21384 28.706418 1.226391 28.648758 C 1.239778 28.591098 1.255675 28.534274 1.274919 28.478286 C 1.295 28.423133 1.31759 28.36798 1.343528 28.315334 C 1.369465 28.261853 1.397913 28.210878 1.429707 28.16074 C 1.461502 28.111436 1.496643 28.063804 1.534294 28.017844 C 1.571109 27.971883 1.61127 27.928429 1.653941 27.887483 C 1.696613 27.846536 1.740958 27.808096 1.787812 27.772163 C 1.834667 27.73623 1.884032 27.70364 1.934234 27.673557 C 1.985272 27.643473 2.037984 27.615897 2.091532 27.592499 C 2.145918 27.568265 2.201139 27.547374 2.257198 27.529825 C 2.314093 27.512277 2.370988 27.498071 2.42872 27.487207 C 2.487289 27.476344 2.545857 27.468823 2.604426 27.464645 C 2.663831 27.460466 2.7224 27.459631 2.781805 27.462138 C 2.840374 27.46548 2.898942 27.47133 2.957511 27.481358 C 3.016079 27.49055 3.072975 27.50392 3.12987 27.519797 C 5.137099 28.117286 7.186999 28.3872 9.280408 28.330376 C 9.769874 28.330376 10.280257 28.330376 10.779763 28.240126 C 11.981256 28.120628 13.161831 27.890825 14.319816 27.549881 C 16.458406 26.915624 18.442207 25.958807 20.270384 24.680265 C 20.398398 24.590015 20.533106 24.513135 20.675344 24.447955 C 20.818419 24.38361 20.96484 24.332635 21.117118 24.294196 C 21.26856 24.256591 21.422512 24.233193 21.578973 24.224001 C 21.734598 24.213973 21.890224 24.218987 22.045849 24.238207 C 22.200637 24.257427 22.352915 24.290853 22.501847 24.338485 C 22.651615 24.385281 22.79469 24.445448 22.932744 24.519821 C 23.070799 24.593358 23.200486 24.678594 23.32348 24.776365 C 23.445638 24.874135 23.557755 24.981934 23.659831 25.09976 C 23.910003 25.369675 24.150134 25.639589 24.400306 25.900311 L 22.17972 28.719788 C 22.132865 28.78079 22.092704 28.845135 22.058399 28.914494 C 22.024095 28.983017 21.99732 29.054047 21.97724 29.12842 C 21.957159 29.202793 21.944609 29.278001 21.938752 29.354045 C 21.933732 29.430925 21.936242 29.506969 21.945445 29.583848 C 21.955486 29.659892 21.97222 29.734265 21.99732 29.806966 C 22.021585 29.879668 22.052542 29.949027 22.09103 30.015878 C 22.128681 30.08273 22.173026 30.144568 22.223228 30.203064 C 22.273429 30.260723 22.329488 30.313369 22.38973 30.360165 L 22.78967 30.680219 C 22.849912 30.727015 22.9135 30.767962 22.981273 30.803059 C 23.049045 30.838156 23.119327 30.865733 23.192956 30.886624 C 23.266585 30.907515 23.341051 30.920885 23.41719 30.926735 C 23.492493 30.932584 23.568632 30.931749 23.644771 30.922557 C 23.720073 30.9142 23.794539 30.897487 23.866495 30.874089 C 23.939287 30.850691 24.008733 30.820608 24.074832 30.783839 C 24.141767 30.746235 24.203683 30.702781 24.262251 30.653478 C 24.319983 30.604175 24.372695 30.549858 24.420386 30.489691 L 26.480327 27.879962 C 27.250086 28.550152 28.019844 29.140119 28.750278 29.689976 L 26.999914 31.900265 C 26.953059 31.959596 26.912061 32.023105 26.87692 32.091628 C 26.842616 32.159316 26.814168 32.22951 26.793251 32.303047 C 26.77317 32.376584 26.758946 32.450957 26.753089 32.527001 C 26.747233 32.603045 26.748069 32.679089 26.757273 32.754297 C 26.766476 32.830341 26.782374 32.903878 26.805801 32.97658 C 26.829229 33.049281 26.85935 33.11864 26.896164 33.185492 C 26.933815 33.251508 26.976487 33.314182 27.025852 33.371841 C 27.076053 33.430337 27.130438 33.482983 27.189844 33.529779 L 27.599824 33.849832 C 27.660066 33.897464 27.725328 33.937575 27.7931 33.972672 C 27.861709 34.006934 27.932828 34.03451 28.007294 34.054566 C 28.080923 34.075457 28.156225 34.088828 28.232364 34.094677 C 28.30934 34.099691 28.385479 34.09802 28.461619 34.088828 C 28.537758 34.079635 28.612224 34.062922 28.685016 34.039524 C 28.757808 34.01529 28.827254 33.984372 28.894189 33.946767 C 28.961125 33.909163 29.023877 33.865709 29.081609 33.815571 C 29.140177 33.765432 29.192889 33.710279 29.239744 33.650112 L 31.109755 31.250131 C 31.973224 31.75152 32.860119 32.208619 33.769606 32.619758 L 31.769907 35.150101 L 31.769907 35.230323 C 31.693768 35.318902 31.636872 35.419179 31.600058 35.530321 C 31.555713 35.647311 31.530612 35.76848 31.526429 35.894663 C 31.522245 36.02001 31.538143 36.142851 31.57412 36.263184 C 31.610098 36.383517 31.664483 36.494659 31.738112 36.596608 C 31.810905 36.698557 31.897921 36.7863 31.999998 36.859837 L 32.409978 37.17989 C 32.468546 37.224179 32.531298 37.263455 32.597397 37.296045 C 32.663496 37.328635 32.732105 37.354541 32.803224 37.37376 C 32.874343 37.393816 32.947135 37.406351 33.020764 37.4122 C 33.094394 37.41805 33.168023 37.416378 33.240815 37.408022 C 33.314444 37.399666 33.3864 37.384624 33.456682 37.362897 C 33.526964 37.340334 33.594737 37.311922 33.659999 37.276825 C 33.724424 37.242564 33.785503 37.201617 33.843235 37.154821 C 33.90013 37.108024 33.952842 37.056214 33.999696 37.000226 L 35.13007 35.550376 L 35.400322 35.220295 L 36.580061 33.710279 C 38.634981 34.365427 40.721696 34.895228 42.840206 35.299682 L 43.959702 35.550376 C 47.85033 36.370147 51.11009 37.169862 53.069627 39.789619 C 53.210192 39.970119 53.339879 40.169839 53.460363 40.360367 C 53.843569 41.001309 54.141432 41.679855 54.354789 42.396006 C 54.568146 43.112156 54.690303 43.843348 54.719588 44.589582 Z M 54.719588 44.589582 " stroke="#000000" stroke-width="2" stroke-opacity="1" stroke-miterlimit="4"/><g clip-path="url(#30d8336fd2)"><path stroke-linecap="round" transform="matrix(-4.668672, 0, 0, 4.674515, 336.897491, 39.186413)" fill="none" stroke-linejoin="round" d="M 54.719588 44.589582 L 54.719588 46.709622 C 54.719588 46.85001 54.706201 46.988728 54.679426 47.125774 C 54.651816 47.262821 54.611654 47.395689 54.558106 47.525214 C 54.504557 47.653904 54.438459 47.776744 54.360646 47.893735 C 54.28367 48.00989 54.194981 48.116853 54.096251 48.216295 C 53.997521 48.314902 53.889587 48.40348 53.773287 48.481196 C 53.656986 48.558911 53.533992 48.624091 53.405141 48.677573 C 53.276291 48.731054 53.14242 48.772001 53.005202 48.798742 C 52.867984 48.826318 52.729929 48.839689 52.590201 48.839689 L 3.309759 48.839689 C 3.170031 48.839689 3.031977 48.826318 2.894759 48.798742 C 2.757541 48.772001 2.624507 48.731054 2.494819 48.677573 C 2.365968 48.624091 2.242974 48.558911 2.126674 48.481196 C 2.010373 48.40348 1.90244 48.314902 1.80371 48.216295 C 1.70498 48.116853 1.61629 48.00989 1.539314 47.893735 C 1.461502 47.776744 1.395403 47.653904 1.341855 47.525214 C 1.288306 47.395689 1.248145 47.262821 1.220534 47.125774 C 1.19376 46.988728 1.180373 46.85001 1.180373 46.709622 L 1.180373 44.589582 Z M 54.719588 44.589582 " stroke="#000000" stroke-width="2" stroke-opacity="1" stroke-miterlimit="4"/></g><path stroke-linecap="round" transform="matrix(-4.668672, 0, 0, 4.674515, 336.897491, 39.186413)" fill="none" stroke-linejoin="round" d="M 11.090177 43.509925 C 11.105237 43.739728 11.105237 43.970367 11.090177 44.20017 L 1.190413 44.20017 L 1.190413 36.680172 C 2.02376 36.359284 2.887228 36.198839 3.779981 36.199675 C 4.019275 36.199675 4.25857 36.211374 4.496191 36.235608 C 4.734649 36.259006 4.971433 36.294103 5.205708 36.340064 C 5.440819 36.38686 5.672583 36.445355 5.901837 36.514714 C 6.131091 36.584073 6.356162 36.665131 6.577049 36.756216 C 6.798773 36.848138 7.01464 36.950087 7.226324 37.062899 C 7.437171 37.175712 7.642161 37.298552 7.841294 37.432256 C 8.040427 37.565124 8.23203 37.707184 8.417776 37.859272 C 8.602685 38.01136 8.780065 38.171804 8.949077 38.341441 C 9.118089 38.510242 9.278734 38.687399 9.431013 38.872913 C 9.582454 39.057591 9.724692 39.249791 9.857727 39.448675 C 9.990761 39.647559 10.113755 39.853128 10.226709 40.063712 C 10.339662 40.275131 10.441739 40.491564 10.533775 40.712175 C 10.624975 40.933622 10.706134 41.159247 10.77558 41.388214 C 10.845026 41.617182 10.902757 41.849492 10.949612 42.083473 C 10.996467 42.318291 11.031608 42.555615 11.055036 42.793774 C 11.078463 43.031934 11.090177 43.270929 11.090177 43.509925 Z M 11.090177 43.509925 " stroke="#000000" stroke-width="2" stroke-opacity="1" stroke-miterlimit="4"/><path stroke-linecap="round" transform="matrix(-4.668672, 0, 0, 4.674515, 336.897491, 39.186413)" fill="none" stroke-linejoin="round" d="M 26.480327 27.88999 L 24.420386 30.499719 C 24.372695 30.559885 24.319983 30.614203 24.262251 30.663506 C 24.203683 30.712809 24.141767 30.756263 24.074832 30.793867 C 24.008733 30.830635 23.939287 30.860719 23.866495 30.884117 C 23.794539 30.907515 23.720073 30.924228 23.644771 30.932584 C 23.568632 30.941777 23.492493 30.942612 23.41719 30.936763 C 23.341051 30.930913 23.266585 30.917543 23.192956 30.896652 C 23.119327 30.87576 23.049045 30.848184 22.981273 30.813087 C 22.9135 30.77799 22.849912 30.737043 22.78967 30.690246 L 22.38973 30.370193 C 22.329488 30.323397 22.273429 30.270751 22.223228 30.212256 C 22.173026 30.154596 22.128681 30.092758 22.09103 30.025906 C 22.052542 29.959054 22.021585 29.889696 21.99732 29.816994 C 21.97222 29.744293 21.955486 29.66992 21.945445 29.59304 C 21.936242 29.516996 21.933732 29.440953 21.938752 29.364073 C 21.944609 29.288029 21.957159 29.212821 21.97724 29.138448 C 21.99732 29.064075 22.024095 28.993045 22.058399 28.924522 C 22.092704 28.855163 22.132865 28.790818 22.17972 28.729816 L 24.400306 25.910339 C 25.099782 26.629832 25.800095 27.279966 26.480327 27.88999 Z M 26.480327 27.88999 " stroke="#000000" stroke-width="2" stroke-opacity="1" stroke-miterlimit="4"/><path stroke-linecap="round" transform="matrix(-4.668672, 0, 0, 4.674515, 336.897491, 39.186413)" fill="none" stroke-linejoin="round" d="M 31.139876 31.250131 L 29.269865 33.650112 C 29.22301 33.710279 29.170298 33.765432 29.11173 33.815571 C 29.053161 33.865709 28.991246 33.909163 28.92431 33.946767 C 28.857375 33.984372 28.787929 34.01529 28.715137 34.039524 C 28.641508 34.062922 28.567042 34.079635 28.49174 34.088828 C 28.4156 34.09802 28.338625 34.099691 28.262485 34.094677 C 28.186346 34.088828 28.111044 34.075457 28.036578 34.054566 C 27.962949 34.03451 27.89183 34.006934 27.823221 33.972672 C 27.754612 33.938411 27.690187 33.897464 27.629945 33.849832 L 27.219965 33.529779 C 27.158886 33.483818 27.103664 33.432008 27.052626 33.375184 C 27.001587 33.317524 26.957243 33.256522 26.918755 33.190506 C 26.880267 33.12449 26.848472 33.055131 26.823372 32.982429 C 26.799108 32.910564 26.781537 32.836191 26.771497 32.760983 C 26.76062 32.684939 26.75811 32.608895 26.76313 32.532851 C 26.76815 32.456807 26.779864 32.381598 26.799944 32.307226 C 26.819188 32.233689 26.845962 32.162659 26.87943 32.094135 C 26.913735 32.025612 26.953896 31.960432 26.999914 31.900265 L 28.720157 29.700003 C 29.570238 30.279943 30.380158 30.799716 31.139876 31.250131 Z M 31.139876 31.250131 " stroke="#000000" stroke-width="2" stroke-opacity="1" stroke-miterlimit="4"/><path stroke-linecap="round" transform="matrix(-4.668672, 0, 0, 4.674515, 336.897491, 39.186413)" fill="none" stroke-linejoin="round" d="M 36.580061 33.690223 L 35.400322 35.20024 L 35.13007 35.530321 L 33.999696 37.000226 C 33.952842 37.061228 33.900967 37.116381 33.842398 37.167355 C 33.784666 37.217494 33.721914 37.261784 33.655815 37.299388 C 33.58888 37.337828 33.518597 37.368747 33.445805 37.39298 C 33.373013 37.417214 33.298547 37.433927 33.221571 37.443119 C 33.145432 37.452311 33.069293 37.453983 32.992317 37.448133 C 32.916178 37.442284 32.840875 37.428913 32.766409 37.408022 C 32.69278 37.387131 32.621661 37.359554 32.553052 37.324457 C 32.484444 37.28936 32.420018 37.247578 32.359776 37.199946 L 31.999998 36.859837 C 31.901268 36.783793 31.817598 36.694378 31.748989 36.590758 C 31.679544 36.487138 31.628506 36.375997 31.596711 36.255663 C 31.56408 36.13533 31.55153 36.013325 31.55906 35.888814 C 31.56659 35.765138 31.593364 35.64564 31.640219 35.530321 C 31.677034 35.419179 31.733929 35.318902 31.810068 35.230323 L 31.810068 35.150101 L 33.809767 32.619758 L 34.1001 32.750119 C 34.9301 33.110284 35.760101 33.420309 36.580061 33.690223 Z M 36.580061 33.690223 " stroke="#000000" stroke-width="2" stroke-opacity="1" stroke-miterlimit="4"/></svg>