<svg xmlns="http://www.w3.org/2000/svg" xmlns:xlink="http://www.w3.org/1999/xlink" width="500" zoomAndPan="magnify" viewBox="0 0 375 374.999991" height="500" preserveAspectRatio="xMidYMid meet" version="1.0"><defs><clipPath id="cf01d649e7"><path d="M 184.820312 69 L 340.070312 69 L 340.070312 292.484375 L 184.820312 292.484375 Z M 184.820312 69 " clip-rule="nonzero"/></clipPath><clipPath id="6dcc61153b"><path d="M 37.5 230.25 L 180.75 230.25 L 180.75 333 L 37.5 333 Z M 37.5 230.25 " clip-rule="nonzero"/></clipPath></defs><g clip-path="url(#cf01d649e7)"><path fill="#000000" d="M 330.261719 99.105469 C 326.75 101.46875 321.429688 103.699219 314.878906 105.5625 C 300.90625 109.535156 282.285156 111.71875 262.445312 111.71875 C 242.609375 111.71875 223.988281 109.535156 210.015625 105.5625 C 203.464844 103.699219 198.144531 101.46875 194.628906 99.105469 C 192.445312 97.636719 189.839844 95.363281 189.839844 92.878906 C 189.839844 90.394531 192.445312 88.121094 194.628906 86.652344 C 198.144531 84.292969 203.464844 82.058594 210.015625 80.199219 C 223.988281 76.226562 242.609375 74.039062 262.445312 74.039062 C 282.285156 74.039062 300.90625 76.226562 314.878906 80.199219 C 321.429688 82.058594 326.75 84.292969 330.261719 86.652344 C 332.449219 88.121094 335.054688 90.394531 335.054688 92.878906 C 335.054688 95.363281 332.449219 97.636719 330.261719 99.105469 Z M 335.054688 159.828125 C 335.054688 163.128906 330.050781 167.972656 316.289062 172.101562 L 316.289062 150.085938 C 316.289062 149.308594 315.925781 148.570312 315.308594 148.09375 C 314.691406 147.617188 313.886719 147.460938 313.132812 147.660156 C 299.371094 151.320312 281.371094 153.335938 262.445312 153.335938 C 243.519531 153.335938 225.519531 151.320312 211.761719 147.660156 C 211.007812 147.460938 210.203125 147.617188 209.585938 148.09375 C 208.96875 148.570312 208.605469 149.308594 208.605469 150.085938 L 208.605469 172.101562 C 194.839844 167.972656 189.839844 163.128906 189.839844 159.828125 L 189.839844 101.789062 C 193.824219 105.070312 200.136719 107.976562 208.644531 110.394531 C 223.050781 114.488281 242.15625 116.742188 262.445312 116.742188 C 282.738281 116.742188 301.84375 114.488281 316.25 110.394531 C 324.757812 107.976562 331.070312 105.070312 335.054688 101.789062 Z M 335.054688 175.789062 C 335.054688 179.09375 330.050781 183.9375 316.289062 188.0625 L 316.289062 177.332031 C 323.101562 175.394531 330.371094 172.605469 335.054688 168.765625 Z M 335.054688 191.753906 C 335.054688 195.054688 330.050781 199.898438 316.289062 204.023438 L 316.289062 193.296875 C 323.109375 191.351562 330.375 188.5625 335.054688 184.726562 Z M 213.625 230.488281 L 213.625 153.308594 C 227.324219 156.578125 244.503906 158.359375 262.445312 158.359375 C 280.390625 158.359375 297.566406 156.578125 311.265625 153.308594 L 311.265625 230.488281 C 297.765625 233.84375 280.53125 235.683594 262.445312 235.683594 C 244.363281 235.683594 227.125 233.84375 213.625 230.488281 Z M 335.054688 268.59375 C 335.054688 271.074219 332.449219 273.347656 330.261719 274.820312 C 326.75 277.179688 321.429688 279.414062 314.878906 281.273438 C 300.90625 285.246094 282.285156 287.433594 262.445312 287.433594 C 242.609375 287.433594 223.988281 285.246094 210.015625 281.273438 C 203.464844 279.414062 198.144531 277.179688 194.628906 274.820312 C 192.445312 273.347656 189.839844 271.074219 189.839844 268.59375 L 189.839844 200.6875 C 194.523438 204.527344 201.792969 207.316406 208.605469 209.257812 L 208.605469 232.433594 C 208.605469 233.574219 209.371094 234.570312 210.46875 234.863281 C 224.636719 238.632812 243.097656 240.707031 262.445312 240.707031 C 281.796875 240.707031 300.253906 238.632812 314.421875 234.863281 C 315.523438 234.570312 316.289062 233.574219 316.289062 232.433594 L 316.289062 209.257812 C 323.101562 207.316406 330.371094 204.527344 335.054688 200.6875 Z M 189.839844 184.726562 C 194.523438 188.566406 201.792969 191.355469 208.605469 193.296875 L 208.605469 204.023438 C 194.84375 199.898438 189.839844 195.054688 189.839844 191.753906 Z M 189.839844 168.765625 C 194.523438 172.605469 201.792969 175.394531 208.605469 177.332031 L 208.605469 188.0625 C 194.839844 183.933594 189.839844 179.09375 189.839844 175.789062 Z M 316.25 75.363281 C 301.84375 71.269531 282.738281 69.015625 262.445312 69.015625 C 242.15625 69.015625 223.050781 71.269531 208.644531 75.363281 C 193.058594 79.796875 184.816406 85.851562 184.816406 92.878906 L 184.816406 268.59375 C 184.816406 275.617188 193.058594 281.675781 208.644531 286.105469 C 223.050781 290.203125 242.15625 292.457031 262.445312 292.457031 C 282.738281 292.457031 301.84375 290.203125 316.25 286.105469 C 331.835938 281.675781 340.074219 275.617188 340.074219 268.59375 L 340.074219 92.878906 C 340.074219 85.851562 331.835938 79.796875 316.25 75.363281 Z M 281.535156 96.414062 C 276.378906 97.792969 269.601562 98.554688 262.445312 98.554688 C 255.292969 98.554688 248.515625 97.792969 243.359375 96.414062 C 237.808594 94.929688 236.296875 93.285156 236.164062 92.878906 C 236.296875 92.472656 237.808594 90.832031 243.359375 89.34375 C 248.515625 87.964844 255.292969 87.207031 262.445312 87.207031 C 269.601562 87.207031 276.378906 87.964844 281.535156 89.34375 C 287.085938 90.832031 288.59375 92.472656 288.726562 92.878906 C 288.59375 93.285156 287.085938 94.929688 281.535156 96.414062 Z M 283.496094 84.675781 C 277.839844 83.066406 270.363281 82.183594 262.445312 82.183594 C 254.527344 82.183594 247.054688 83.066406 241.398438 84.675781 C 234.59375 86.609375 231.140625 89.371094 231.140625 92.878906 C 231.140625 96.390625 234.59375 99.148438 241.398438 101.082031 C 247.054688 102.691406 254.527344 103.578125 262.445312 103.578125 C 270.363281 103.578125 277.839844 102.691406 283.496094 101.082031 C 290.300781 99.148438 293.753906 96.390625 293.753906 92.878906 C 293.753906 89.371094 290.300781 86.609375 283.496094 84.675781 Z M 298.054688 100.78125 C 288.578125 103.476562 275.933594 104.957031 262.445312 104.957031 C 248.960938 104.957031 236.316406 103.476562 226.835938 100.78125 C 217.710938 98.1875 213.625 94.945312 213.625 92.878906 C 213.625 90.816406 217.710938 87.570312 226.835938 84.980469 C 236.316406 82.285156 248.960938 80.800781 262.445312 80.800781 C 275.933594 80.800781 288.578125 82.285156 298.054688 84.980469 C 307.183594 87.570312 311.265625 90.816406 311.265625 92.878906 C 311.265625 94.945312 307.183594 98.1875 298.054688 100.78125 Z M 262.445312 75.777344 C 235.691406 75.777344 208.605469 81.652344 208.605469 92.878906 C 208.605469 104.109375 235.691406 109.980469 262.445312 109.980469 C 289.203125 109.980469 316.289062 104.109375 316.289062 92.878906 C 316.289062 81.652344 289.203125 75.777344 262.445312 75.777344 " fill-opacity="1" fill-rule="nonzero"/></g><g clip-path="url(#6dcc61153b)"><path fill="#040606" d="M 109.125 230.371094 C 68.292969 230.371094 37.5 242.875 37.5 259.453125 C 37.5 259.820312 37.597656 260.175781 37.632812 260.539062 C 37.589844 260.746094 37.5 260.945312 37.5 261.164062 L 37.5 312.488281 C 37.5 326.59375 74.632812 333.019531 109.125 333.019531 C 143.617188 333.019531 180.742188 326.59375 180.742188 312.488281 L 180.742188 261.164062 C 180.742188 260.945312 180.660156 260.746094 180.617188 260.539062 C 180.652344 260.175781 180.742188 259.820312 180.742188 259.453125 C 180.742188 242.875 149.957031 230.371094 109.125 230.371094 Z M 109.125 237.210938 C 147.3125 237.210938 173.921875 248.933594 173.921875 259.453125 C 173.921875 269.972656 147.3125 281.695312 109.125 281.695312 C 70.9375 281.695312 44.328125 269.972656 44.328125 259.453125 C 44.328125 248.933594 70.9375 237.210938 109.125 237.210938 Z M 109.125 326.179688 C 67.195312 326.179688 44.328125 317.132812 44.328125 312.488281 L 44.328125 272.183594 C 55.550781 282.023438 79.691406 288.535156 109.125 288.535156 C 138.558594 288.535156 162.699219 282.023438 173.921875 272.183594 L 173.921875 312.488281 C 173.921875 317.132812 151.054688 326.179688 109.125 326.179688 " fill-opacity="1" fill-rule="nonzero"/></g><path fill="#040606" d="M 109.125 274.851562 C 129.394531 274.851562 163.695312 271.609375 163.695312 259.453125 C 163.695312 247.300781 129.394531 244.058594 109.125 244.058594 C 88.855469 244.058594 54.554688 247.300781 54.554688 259.453125 C 54.554688 271.609375 88.855469 274.851562 109.125 274.851562 Z M 109.125 250.902344 C 137.824219 250.902344 155.175781 256.390625 156.824219 259.453125 C 155.175781 262.523438 137.824219 268.007812 109.125 268.007812 C 79.964844 268.007812 62.527344 262.34375 61.359375 259.597656 C 62.527344 256.566406 79.964844 250.902344 109.125 250.902344 " fill-opacity="1" fill-rule="nonzero"/><path fill="#040606" d="M 114.238281 295.382812 C 107.425781 295.382812 101.6875 299.757812 98.621094 302.675781 L 90.847656 296.171875 C 89.398438 294.96875 87.25 295.160156 86.042969 296.613281 C 84.835938 298.066406 85.03125 300.226562 86.480469 301.429688 L 93.566406 307.359375 L 86.480469 313.285156 C 85.03125 314.488281 84.835938 316.648438 86.042969 318.101562 C 86.714844 318.914062 87.6875 319.332031 88.664062 319.332031 C 89.429688 319.332031 90.207031 319.074219 90.847656 318.542969 L 98.621094 312.039062 C 101.6875 314.949219 107.425781 319.332031 114.238281 319.332031 C 121.34375 319.332031 127.273438 314.570312 130.179688 311.730469 C 131.496094 310.4375 132.246094 309.507812 132.246094 309.507812 C 133.238281 308.25 133.246094 306.457031 132.246094 305.207031 C 131.921875 304.808594 124.234375 295.382812 114.238281 295.382812 Z M 114.238281 312.488281 C 109.929688 312.488281 105.933594 309.507812 103.617188 307.359375 C 105.933594 305.207031 109.929688 302.226562 114.238281 302.226562 C 118.558594 302.226562 122.546875 305.207031 124.863281 307.359375 C 122.566406 309.480469 118.558594 312.488281 114.238281 312.488281 " fill-opacity="1" fill-rule="nonzero"/></svg>