<svg xmlns="http://www.w3.org/2000/svg" xmlns:xlink="http://www.w3.org/1999/xlink" width="500" zoomAndPan="magnify" viewBox="0 0 375 374.999991" height="500" preserveAspectRatio="xMidYMid meet" version="1.0"><defs><clipPath id="c2182b2d9a"><path d="M 234 202 L 324.9375 202 L 324.9375 258 L 234 258 Z M 234 202 " clip-rule="nonzero"/></clipPath><clipPath id="1c51992b1b"><path d="M 121 205 L 254 205 L 254 337.5 L 121 337.5 Z M 121 205 " clip-rule="nonzero"/></clipPath><clipPath id="c03c14f46b"><path d="M 136 37.5 L 179 37.5 L 179 128 L 136 128 Z M 136 37.5 " clip-rule="nonzero"/></clipPath><clipPath id="4befd7d18d"><path d="M 199 37.5 L 242 37.5 L 242 128 L 199 128 Z M 199 37.5 " clip-rule="nonzero"/></clipPath><clipPath id="744f40a3ec"><path d="M 88 293 L 155 293 L 155 337.5 L 88 337.5 Z M 88 293 " clip-rule="nonzero"/></clipPath><clipPath id="333d1ef50d"><path d="M 221 293 L 288 293 L 288 337.5 L 221 337.5 Z M 221 293 " clip-rule="nonzero"/></clipPath></defs><g clip-path="url(#c2182b2d9a)"><path fill="#000000" d="M 246.914062 243.113281 C 246.414062 241.878906 246.726562 240.320312 247.628906 238.808594 C 248.84375 236.78125 250.988281 234.960938 253.777344 233.835938 L 300.355469 215.042969 C 303.15625 213.914062 305.984375 213.734375 308.28125 214.359375 C 309.980469 214.816406 311.277344 215.703125 311.765625 216.910156 C 312.238281 218.078125 311.972656 219.550781 311.160156 221 C 310.058594 222.96875 308.078125 224.761719 305.488281 225.9375 L 305.480469 225.921875 C 295.484375 230.460938 284.464844 234.746094 273.773438 238.902344 C 270.117188 240.324219 266.496094 241.730469 262.09375 243.480469 C 257.75 245.203125 253.457031 246.289062 250.300781 245.78125 C 248.792969 245.539062 247.570312 244.738281 246.914062 243.113281 Z M 237.351562 232.667969 C 234.558594 237.335938 233.8125 242.679688 235.789062 247.5625 C 238.265625 253.6875 242.8125 256.6875 248.421875 257.59375 C 253.960938 258.484375 260.390625 257.019531 266.507812 254.589844 C 269.65625 253.339844 273.851562 251.707031 278.089844 250.058594 C 289.265625 245.714844 300.78125 241.238281 310.457031 236.84375 L 310.457031 236.820312 C 315.441406 234.550781 319.351562 230.925781 321.628906 226.859375 C 324.179688 222.3125 324.796875 217.175781 322.890625 212.457031 C 320.902344 207.542969 316.640625 204.203125 311.378906 202.78125 C 306.71875 201.515625 301.183594 201.800781 295.898438 203.933594 L 249.320312 222.726562 C 244.023438 224.863281 239.835938 228.511719 237.351562 232.667969 " fill-opacity="1" fill-rule="nonzero"/></g><path fill="#000000" d="M 187.65625 217.53125 C 197.3125 217.53125 206.371094 210.746094 213.335938 201.007812 C 221.558594 189.511719 226.710938 174.164062 226.710938 160.53125 C 226.710938 148.589844 222.644531 139.054688 216.027344 132.445312 C 208.957031 125.382812 198.886719 121.53125 187.65625 121.53125 C 176.425781 121.53125 166.355469 125.382812 159.285156 132.445312 C 152.667969 139.054688 148.601562 148.589844 148.601562 160.53125 C 148.601562 174.164062 153.753906 189.511719 161.976562 201.007812 C 168.941406 210.746094 178 217.53125 187.65625 217.53125 Z M 223.097656 207.945312 C 214 220.667969 201.589844 229.53125 187.65625 229.53125 C 173.722656 229.53125 161.3125 220.667969 152.210938 207.945312 C 142.605469 194.511719 136.585938 176.535156 136.585938 160.53125 C 136.585938 145.183594 141.988281 132.746094 150.789062 123.957031 C 160.136719 114.625 173.222656 109.53125 187.65625 109.53125 C 202.085938 109.53125 215.175781 114.625 224.519531 123.957031 C 233.324219 132.746094 238.726562 145.183594 238.726562 160.53125 C 238.726562 176.535156 232.707031 194.511719 223.097656 207.945312 " fill-opacity="1" fill-rule="nonzero"/><g clip-path="url(#1c51992b1b)"><path fill="#000000" d="M 214.445312 207.460938 C 225.910156 214.449219 235.640625 225.527344 242.53125 238.109375 C 249.605469 251.023438 253.746094 265.605469 253.746094 279.03125 C 253.746094 283.222656 253.347656 287.234375 252.582031 291.050781 C 251.800781 294.960938 250.617188 298.703125 249.066406 302.261719 L 247.488281 305.867188 L 242.964844 305.867188 C 240.261719 305.867188 237.800781 306.980469 236.015625 308.761719 C 234.230469 310.546875 233.121094 313.003906 233.121094 315.699219 C 233.121094 316.125 233.144531 316.535156 233.195312 316.929688 C 233.242188 317.320312 233.320312 317.714844 233.417969 318.101562 L 234.414062 322.019531 L 231.140625 324.40625 C 225.265625 328.699219 218.488281 331.996094 211.097656 334.210938 C 203.792969 336.394531 195.886719 337.53125 187.65625 337.53125 C 179.425781 337.53125 171.519531 336.394531 164.214844 334.210938 C 156.824219 331.996094 150.046875 328.699219 144.171875 324.40625 L 140.898438 322.019531 L 141.894531 318.101562 C 141.992188 317.714844 142.070312 317.320312 142.117188 316.929688 C 142.167969 316.535156 142.191406 316.128906 142.191406 315.699219 C 142.191406 313.003906 141.082031 310.546875 139.292969 308.761719 C 137.507812 306.980469 135.050781 305.867188 132.347656 305.867188 L 127.820312 305.867188 L 126.25 302.261719 C 124.695312 298.703125 123.511719 294.960938 122.726562 291.050781 C 121.964844 287.234375 121.5625 283.222656 121.5625 279.03125 C 121.5625 265.605469 125.703125 251.023438 132.777344 238.109375 C 139.671875 225.527344 149.398438 214.449219 160.867188 207.460938 L 164.84375 205.035156 L 168.164062 208.28125 C 171.242188 211.289062 174.5625 213.703125 178.039062 215.3125 C 181.117188 216.738281 184.34375 217.53125 187.65625 217.53125 C 190.96875 217.53125 194.195312 216.738281 197.273438 215.3125 C 200.75 213.703125 204.066406 211.289062 207.148438 208.28125 L 210.46875 205.035156 Z M 232.015625 243.824219 C 226.855469 234.40625 219.925781 226.011719 211.859375 220.121094 C 208.851562 222.578125 205.652344 224.632812 202.292969 226.191406 C 197.652344 228.339844 192.746094 229.53125 187.65625 229.53125 C 182.566406 229.53125 177.660156 228.339844 173.019531 226.191406 C 169.660156 224.632812 166.460938 222.578125 163.453125 220.121094 C 155.386719 226.011719 148.457031 234.40625 143.292969 243.824219 C 137.167969 255.011719 133.582031 267.558594 133.582031 279.03125 C 133.582031 282.433594 133.902344 285.664062 134.507812 288.707031 C 134.890625 290.613281 135.375 292.429688 135.957031 294.167969 C 140.535156 294.933594 144.640625 297.128906 147.792969 300.277344 C 151.75 304.230469 154.210938 309.691406 154.210938 315.699219 C 154.210938 316.042969 154.203125 316.382812 154.183594 316.726562 C 158.230469 319.25 162.753906 321.265625 167.640625 322.726562 C 173.8125 324.570312 180.5625 325.53125 187.65625 325.53125 C 194.75 325.53125 201.5 324.570312 207.671875 322.726562 C 212.558594 321.261719 217.078125 319.25 221.128906 316.726562 C 221.109375 316.382812 221.101562 316.042969 221.101562 315.699219 C 221.101562 309.691406 223.5625 304.230469 227.519531 300.277344 C 230.667969 297.128906 234.777344 294.933594 239.355469 294.167969 C 239.9375 292.429688 240.421875 290.613281 240.804688 288.707031 C 241.410156 285.664062 241.730469 282.433594 241.730469 279.03125 C 241.730469 267.558594 238.144531 255.011719 232.015625 243.824219 " fill-opacity="1" fill-rule="nonzero"/></g><g clip-path="url(#c03c14f46b)"><path fill="#000000" d="M 157.613281 37.53125 C 164.433594 37.53125 169.453125 45.996094 172.746094 57.179688 C 176.339844 69.382812 178.640625 85.578125 178.640625 94.53125 C 178.640625 102.996094 176.667969 110.785156 173.472656 116.527344 C 169.6875 123.328125 164.105469 127.53125 157.613281 127.53125 C 151.125 127.53125 145.539062 123.328125 141.761719 116.527344 C 138.5625 110.785156 136.585938 102.996094 136.585938 94.53125 C 136.585938 85.578125 138.886719 69.382812 142.484375 57.179688 C 145.777344 45.996094 150.796875 37.53125 157.613281 37.53125 Z M 161.25 60.554688 C 159.398438 54.28125 157.894531 49.53125 157.613281 49.53125 C 157.332031 49.53125 155.828125 54.28125 153.984375 60.554688 C 150.703125 71.691406 148.601562 86.417969 148.601562 94.53125 C 148.601562 100.980469 149.988281 106.691406 152.226562 110.71875 C 153.882812 113.691406 155.808594 115.53125 157.613281 115.53125 C 159.421875 115.53125 161.347656 113.691406 163.003906 110.71875 C 165.242188 106.691406 166.625 100.980469 166.625 94.53125 C 166.625 86.417969 164.527344 71.691406 161.25 60.554688 " fill-opacity="1" fill-rule="nonzero"/></g><g clip-path="url(#4befd7d18d)"><path fill="#000000" d="M 220.332031 37.53125 C 227.148438 37.53125 232.171875 45.996094 235.464844 57.179688 C 239.058594 69.382812 241.359375 85.578125 241.359375 94.53125 C 241.359375 102.996094 239.382812 110.785156 236.1875 116.527344 C 232.40625 123.328125 226.820312 127.53125 220.332031 127.53125 C 213.839844 127.53125 208.257812 123.328125 204.476562 116.527344 C 201.28125 110.785156 199.304688 102.996094 199.304688 94.53125 C 199.304688 85.578125 201.605469 69.382812 205.199219 57.179688 C 208.492188 45.996094 213.515625 37.53125 220.332031 37.53125 Z M 223.964844 60.554688 C 222.117188 54.28125 220.613281 49.53125 220.332031 49.53125 C 220.050781 49.53125 218.546875 54.28125 216.699219 60.554688 C 213.417969 71.691406 211.320312 86.417969 211.320312 94.53125 C 211.320312 100.980469 212.703125 106.691406 214.945312 110.71875 C 216.597656 113.691406 218.527344 115.53125 220.332031 115.53125 C 222.136719 115.53125 224.0625 113.691406 225.71875 110.71875 C 227.960938 106.691406 229.34375 100.980469 229.34375 94.53125 C 229.34375 86.417969 227.242188 71.691406 223.964844 60.554688 " fill-opacity="1" fill-rule="nonzero"/></g><path fill="#000000" d="M 205.179688 144.53125 C 208.636719 144.53125 211.765625 145.929688 214.03125 148.191406 C 216.292969 150.453125 217.699219 153.578125 217.699219 157.03125 C 217.699219 160.480469 216.292969 163.605469 214.03125 165.867188 C 211.765625 168.132812 208.636719 169.53125 205.179688 169.53125 C 201.722656 169.53125 198.59375 168.132812 196.332031 165.867188 C 194.0625 163.605469 192.664062 160.480469 192.664062 157.03125 C 192.664062 153.578125 194.0625 150.453125 196.332031 148.191406 C 198.59375 145.929688 201.722656 144.53125 205.179688 144.53125 Z M 206.949219 155.261719 C 206.496094 154.8125 205.871094 154.53125 205.179688 154.53125 C 204.488281 154.53125 203.863281 154.8125 203.40625 155.261719 C 202.957031 155.714844 202.675781 156.339844 202.675781 157.03125 C 202.675781 157.722656 202.957031 158.347656 203.40625 158.800781 C 203.863281 159.25 204.488281 159.53125 205.179688 159.53125 C 205.871094 159.53125 206.496094 159.25 206.949219 158.800781 C 207.40625 158.347656 207.683594 157.722656 207.683594 157.03125 C 207.683594 156.339844 207.40625 155.714844 206.949219 155.261719 " fill-opacity="1" fill-rule="nonzero"/><path fill="#000000" d="M 170.132812 144.53125 C 173.589844 144.53125 176.71875 145.929688 178.980469 148.191406 C 181.25 150.453125 182.648438 153.578125 182.648438 157.03125 C 182.648438 160.480469 181.25 163.605469 178.980469 165.867188 C 176.71875 168.132812 173.589844 169.53125 170.132812 169.53125 C 166.675781 169.53125 163.546875 168.132812 161.28125 165.867188 C 159.015625 163.605469 157.613281 160.480469 157.613281 157.03125 C 157.613281 153.578125 159.015625 150.453125 161.28125 148.191406 C 163.546875 145.929688 166.675781 144.53125 170.132812 144.53125 Z M 171.902344 155.261719 C 171.453125 154.8125 170.824219 154.53125 170.132812 154.53125 C 169.441406 154.53125 168.816406 154.8125 168.363281 155.261719 C 167.910156 155.714844 167.628906 156.339844 167.628906 157.03125 C 167.628906 157.722656 167.910156 158.347656 168.363281 158.800781 C 168.816406 159.25 169.441406 159.53125 170.132812 159.53125 C 170.824219 159.53125 171.453125 159.25 171.902344 158.800781 C 172.355469 158.347656 172.632812 157.722656 172.632812 157.03125 C 172.632812 156.339844 172.355469 155.714844 171.902344 155.261719 " fill-opacity="1" fill-rule="nonzero"/><g clip-path="url(#744f40a3ec)"><path fill="#000000" d="M 109.980469 293.867188 L 132.347656 293.867188 C 138.367188 293.867188 143.832031 296.320312 147.792969 300.277344 C 151.75 304.230469 154.210938 309.691406 154.210938 315.699219 C 154.210938 321.710938 151.75 327.167969 147.792969 331.125 C 143.832031 335.078125 138.367188 337.53125 132.347656 337.53125 L 109.980469 337.53125 C 103.960938 337.53125 98.496094 335.078125 94.539062 331.125 C 90.578125 327.167969 88.121094 321.710938 88.121094 315.699219 C 88.121094 309.691406 90.578125 304.230469 94.539062 300.277344 C 98.496094 296.320312 103.960938 293.867188 109.980469 293.867188 Z M 132.347656 305.867188 L 109.980469 305.867188 C 107.28125 305.867188 104.816406 306.980469 103.03125 308.761719 C 101.246094 310.546875 100.136719 313.003906 100.136719 315.699219 C 100.136719 318.398438 101.246094 320.855469 103.03125 322.636719 C 104.816406 324.421875 107.28125 325.53125 109.980469 325.53125 L 132.347656 325.53125 C 135.050781 325.53125 137.507812 324.421875 139.292969 322.636719 C 141.082031 320.855469 142.191406 318.398438 142.191406 315.699219 C 142.191406 313.003906 141.082031 310.546875 139.292969 308.761719 C 137.507812 306.980469 135.050781 305.867188 132.347656 305.867188 " fill-opacity="1" fill-rule="nonzero"/></g><g clip-path="url(#333d1ef50d)"><path fill="#000000" d="M 265.332031 305.867188 L 242.964844 305.867188 C 240.261719 305.867188 237.800781 306.980469 236.015625 308.761719 C 234.230469 310.546875 233.121094 313.003906 233.121094 315.699219 C 233.121094 318.398438 234.230469 320.855469 236.015625 322.636719 C 237.800781 324.421875 240.261719 325.53125 242.964844 325.53125 L 265.332031 325.53125 C 268.035156 325.53125 270.496094 324.421875 272.28125 322.636719 C 274.066406 320.855469 275.175781 318.398438 275.175781 315.699219 C 275.175781 313.003906 274.066406 310.546875 272.28125 308.761719 C 270.496094 306.980469 268.035156 305.867188 265.332031 305.867188 Z M 242.964844 293.867188 L 265.332031 293.867188 C 271.351562 293.867188 276.816406 296.320312 280.773438 300.277344 C 284.734375 304.230469 287.191406 309.691406 287.191406 315.699219 C 287.191406 321.710938 284.734375 327.167969 280.773438 331.125 C 276.816406 335.078125 271.351562 337.53125 265.332031 337.53125 L 242.964844 337.53125 C 236.945312 337.53125 231.480469 335.078125 227.519531 331.125 C 223.5625 327.167969 221.101562 321.710938 221.101562 315.699219 C 221.101562 309.691406 223.5625 304.230469 227.519531 300.277344 C 231.480469 296.320312 236.945312 293.867188 242.964844 293.867188 " fill-opacity="1" fill-rule="nonzero"/></g><path fill="#000000" d="M 128.398438 243.042969 C 128.894531 241.808594 128.582031 240.253906 127.679688 238.738281 C 126.46875 236.710938 124.320312 234.894531 121.53125 233.765625 L 74.953125 214.972656 C 72.152344 213.84375 69.324219 213.664062 67.027344 214.289062 C 65.328125 214.746094 64.03125 215.636719 63.542969 216.84375 C 63.070312 218.011719 63.335938 219.480469 64.148438 220.929688 C 65.25 222.898438 67.230469 224.691406 69.820312 225.867188 L 69.828125 225.851562 C 79.824219 230.390625 90.84375 234.675781 101.539062 238.832031 C 105.191406 240.253906 108.8125 241.660156 113.214844 243.410156 C 117.558594 245.136719 121.855469 246.222656 125.011719 245.710938 C 126.515625 245.46875 127.738281 244.667969 128.398438 243.042969 Z M 137.957031 232.597656 C 140.753906 237.265625 141.496094 242.609375 139.519531 247.492188 C 137.042969 253.617188 132.5 256.621094 126.886719 257.523438 C 121.351562 258.417969 114.921875 256.949219 108.804688 254.519531 C 105.652344 253.269531 101.457031 251.640625 97.21875 249.988281 C 86.042969 245.644531 74.527344 241.167969 64.855469 236.773438 L 64.855469 236.75 C 59.867188 234.480469 55.960938 230.859375 53.683594 226.789062 C 51.128906 222.242188 50.511719 217.105469 52.421875 212.386719 C 54.40625 207.472656 58.667969 204.132812 63.929688 202.710938 C 68.589844 201.449219 74.125 201.730469 79.410156 203.863281 L 125.992188 222.65625 C 131.285156 224.792969 135.472656 228.441406 137.957031 232.597656 " fill-opacity="1" fill-rule="nonzero"/><path fill="#000000" d="M 190.664062 190.519531 C 190.601562 192.054688 190.75 193.378906 190.984375 194.46875 C 191.359375 196.179688 191.691406 196.941406 191.796875 197.027344 C 192.164062 197.320312 192.488281 197.558594 192.773438 197.742188 C 195.089844 199.265625 197.449219 199.691406 199.550781 199.304688 C 201.644531 198.921875 203.527344 197.734375 204.886719 196.03125 C 205.105469 195.757812 205.289062 195.515625 205.421875 195.308594 C 206.328125 193.933594 208.183594 193.546875 209.5625 194.453125 C 210.945312 195.359375 211.328125 197.214844 210.421875 198.589844 C 210.125 199.039062 209.847656 199.429688 209.582031 199.757812 C 207.335938 202.570312 204.179688 204.539062 200.628906 205.191406 C 197.089844 205.835938 193.199219 205.175781 189.488281 202.738281 C 188.964844 202.394531 188.488281 202.054688 188.0625 201.714844 C 187.949219 201.621094 187.808594 201.484375 187.65625 201.304688 C 187.5 201.484375 187.363281 201.621094 187.25 201.714844 C 186.824219 202.054688 186.347656 202.394531 185.828125 202.738281 C 182.109375 205.175781 178.222656 205.835938 174.683594 205.191406 C 171.132812 204.539062 167.976562 202.570312 165.730469 199.757812 C 165.464844 199.429688 165.1875 199.039062 164.890625 198.589844 C 163.984375 197.214844 164.367188 195.359375 165.75 194.453125 C 167.128906 193.546875 168.984375 193.933594 169.890625 195.308594 C 170.027344 195.515625 170.207031 195.757812 170.425781 196.03125 C 171.785156 197.734375 173.667969 198.921875 175.761719 199.304688 C 177.863281 199.691406 180.222656 199.265625 182.539062 197.742188 C 182.824219 197.558594 183.148438 197.320312 183.515625 197.027344 C 183.621094 196.941406 183.953125 196.179688 184.328125 194.46875 C 184.566406 193.363281 184.710938 192.023438 184.644531 190.464844 C 182.859375 187 180.695312 183.960938 178.019531 181.53125 C 175.671875 179.402344 174.621094 179.769531 178.410156 178.882812 C 181.425781 178.175781 184.460938 177.824219 187.515625 177.828125 C 190.582031 177.828125 193.664062 178.179688 196.765625 178.882812 C 200.265625 179.667969 199.949219 179.246094 197.765625 181.253906 C 194.921875 183.863281 192.566406 186.964844 190.664062 190.519531 " fill-opacity="1" fill-rule="nonzero"/></svg>